LondrinaSolid-Black.ufo
<glyph name="quotedbl" format="1">
  <advance width="378"/>
  <unicode hex="0022"/>
  <outline>
    <contour>
      <point x="24" y="709" type="line"/>
      <point x="22" y="659"/>
      <point x="21" y="623"/>
      <point x="21" y="588" type="curve"/>
      <point x="21" y="551" type="line"/>
      <point x="21" y="515" type="line"/>
      <point x="21" y="499"/>
      <point x="22" y="478"/>
      <point x="22" y="457" type="curve"/>
      <point x="37" y="454"/>
      <point x="53" y="454"/>
      <point x="68" y="454" type="curve" smooth="yes"/>
      <point x="81" y="454"/>
      <point x="100" y="454"/>
      <point x="112" y="455" type="curve"/>
      <point x="165" y="455" type="line"/>
      <point x="165" y="474" type="line"/>
      <point x="165" y="489"/>
      <point x="164" y="513"/>
      <point x="164" y="541" type="curve" smooth="yes"/>
      <point x="163" y="602"/>
      <point x="163" y="678"/>
      <point x="163" y="705" type="curve"/>
      <point x="158" y="713"/>
      <point x="144" y="716"/>
      <point x="127" y="716" type="curve" smooth="yes"/>
      <point x="109" y="716"/>
      <point x="85" y="714"/>
      <point x="68" y="712" type="curve" smooth="yes"/>
      <point x="64" y="712"/>
      <point x="62" y="711"/>
      <point x="58" y="711" type="curve"/>
      <point x="40" y="709" type="line"/>
    </contour>
    <contour>
      <point x="217" y="709" type="line"/>
      <point x="215" y="659"/>
      <point x="214" y="623"/>
      <point x="214" y="588" type="curve"/>
      <point x="214" y="551" type="line"/>
      <point x="214" y="515" type="line"/>
      <point x="214" y="499"/>
      <point x="215" y="478"/>
      <point x="215" y="457" type="curve"/>
      <point x="230" y="454"/>
      <point x="246" y="454"/>
      <point x="261" y="454" type="curve" smooth="yes"/>
      <point x="274" y="454"/>
      <point x="293" y="454"/>
      <point x="305" y="455" type="curve"/>
      <point x="358" y="455" type="line"/>
      <point x="358" y="474" type="line"/>
      <point x="358" y="489"/>
      <point x="357" y="513"/>
      <point x="357" y="541" type="curve" smooth="yes"/>
      <point x="356" y="602"/>
      <point x="356" y="678"/>
      <point x="356" y="705" type="curve"/>
      <point x="351" y="713"/>
      <point x="337" y="716"/>
      <point x="320" y="716" type="curve" smooth="yes"/>
      <point x="302" y="716"/>
      <point x="278" y="714"/>
      <point x="261" y="712" type="curve" smooth="yes"/>
      <point x="257" y="712"/>
      <point x="255" y="711"/>
      <point x="251" y="711" type="curve"/>
      <point x="233" y="709" type="line"/>
    </contour>
  </outline>
</glyph>
<glyph name="numbersign" format="1">
  <advance width="669"/>
  <unicode hex="0023"/>
  <outline>
    <contour>
      <point x="654" y="478" type="line"/>
      <point x="654" y="487" type="line"/>
      <point x="607" y="487" type="line"/>
      <point x="603" y="487"/>
      <point x="599" y="488"/>
      <point x="596" y="488" type="curve"/>
      <point x="592" y="488" type="line"/>
      <point x="600" y="516"/>
      <point x="606" y="533"/>
      <point x="611" y="551" type="curve" smooth="yes"/>
      <point x="614" y="562"/>
      <point x="618" y="571"/>
      <point x="620" y="579" type="curve"/>
      <point x="622" y="582"/>
      <point x="623" y="588"/>
      <point x="624" y="593" type="curve" smooth="yes"/>
      <point x="630" y="611"/>
      <point x="634" y="624"/>
      <point x="631" y="638" type="curve"/>
      <point x="601" y="643"/>
      <point x="579" y="643"/>
      <point x="559" y="642" type="curve" smooth="yes"/>
      <point x="542" y="641"/>
      <point x="525" y="640"/>
      <point x="491" y="648" type="curve"/>
      <point x="468" y="566"/>
      <point x="450" y="508"/>
      <point x="441" y="491" type="curve"/>
      <point x="424" y="492"/>
      <point x="416" y="491"/>
      <point x="405" y="491" type="curve"/>
      <point x="387" y="491" type="line"/>
      <point x="350" y="491" type="line"/>
      <point x="364" y="538"/>
      <point x="372" y="563"/>
      <point x="379" y="585" type="curve" smooth="yes"/>
      <point x="389" y="617"/>
      <point x="392" y="627"/>
      <point x="392" y="638" type="curve"/>
      <point x="380" y="638"/>
      <point x="361" y="639"/>
      <point x="349" y="639" type="curve" smooth="yes"/>
      <point x="335" y="639"/>
      <point x="323" y="639"/>
      <point x="314" y="640" type="curve"/>
      <point x="278" y="641"/>
      <point x="258" y="643"/>
      <point x="244" y="646" type="curve"/>
      <point x="235" y="604"/>
      <point x="202" y="498"/>
      <point x="194" y="482" type="curve"/>
      <point x="207" y="482" type="line"/>
      <point x="205" y="492" type="line"/>
      <point x="200" y="490"/>
      <point x="197" y="490"/>
      <point x="193" y="490" type="curve"/>
      <point x="189" y="490" type="line"/>
      <point x="179" y="490" type="line"/>
      <point x="159" y="489"/>
      <point x="141" y="489"/>
      <point x="126" y="489" type="curve" smooth="yes"/>
      <point x="59" y="489"/>
      <point x="28" y="499"/>
      <point x="22" y="502" type="curve"/>
      <point x="23" y="377" type="line"/>
      <point x="103" y="378"/>
      <point x="141" y="378"/>
      <point x="159" y="378" type="curve"/>
      <point x="142" y="331"/>
      <point x="136" y="306"/>
      <point x="131" y="287" type="curve" smooth="yes"/>
      <point x="128" y="277"/>
      <point x="128" y="270"/>
      <point x="128" y="265" type="curve"/>
      <point x="128" y="262" type="line"/>
      <point x="111" y="261"/>
      <point x="102" y="261"/>
      <point x="90" y="261" type="curve" smooth="yes"/>
      <point x="47" y="261"/>
      <point x="21" y="281"/>
      <point x="10" y="292" type="curve"/>
      <point x="10" y="252" type="line"/>
      <point x="10" y="241"/>
      <point x="11" y="231"/>
      <point x="11" y="225" type="curve" smooth="yes"/>
      <point x="11" y="198"/>
      <point x="11" y="172"/>
      <point x="13" y="149" type="curve"/>
      <point x="37" y="147"/>
      <point x="50" y="148"/>
      <point x="65" y="149" type="curve" smooth="yes"/>
      <point x="68" y="149"/>
      <point x="74" y="150"/>
      <point x="77" y="150" type="curve"/>
      <point x="74" y="142" type="line"/>
      <point x="72" y="137"/>
      <point x="71" y="133"/>
      <point x="69" y="128" type="curve" smooth="yes"/>
      <point x="52" y="86"/>
      <point x="36" y="44"/>
      <point x="27" y="-5" type="curve"/>
      <point x="51" y="-4"/>
      <point x="86" y="-3"/>
      <point x="102" y="-3" type="curve" smooth="yes"/>
      <point x="125" y="-3"/>
      <point x="140" y="-4"/>
      <point x="148" y="-5" type="curve"/>
      <point x="160" y="-5"/>
      <point x="168" y="-3"/>
      <point x="171" y="0" type="curve"/>
      <point x="181" y="19"/>
      <point x="185" y="28"/>
      <point x="187" y="35" type="curve" smooth="yes"/>
      <point x="199" y="69"/>
      <point x="207" y="88"/>
      <point x="212" y="99" type="curve" smooth="yes"/>
      <point x="218" y="113"/>
      <point x="223" y="128"/>
      <point x="235" y="162" type="curve"/>
      <point x="219" y="162" type="line"/>
      <point x="219" y="152" type="line"/>
      <point x="249" y="153"/>
      <point x="273" y="153"/>
      <point x="290" y="153" type="curve" smooth="yes"/>
      <point x="323" y="153"/>
      <point x="334" y="152"/>
      <point x="334" y="152" type="curve"/>
      <point x="334" y="162" type="line"/>
      <point x="321" y="162" type="line"/>
      <point x="315" y="134"/>
      <point x="307" y="110"/>
      <point x="299" y="90" type="curve" smooth="yes"/>
      <point x="297" y="85"/>
      <point x="294" y="77"/>
      <point x="292" y="71" type="curve" smooth="yes"/>
      <point x="283" y="47"/>
      <point x="273" y="16"/>
      <point x="268" y="-4" type="curve"/>
      <point x="295" y="-5"/>
      <point x="334" y="-6"/>
      <point x="351" y="-6" type="curve" smooth="yes"/>
      <point x="375" y="-6"/>
      <point x="392" y="-5"/>
      <point x="399" y="-4" type="curve"/>
      <point x="412" y="-4" type="line"/>
      <point x="434" y="34"/>
      <point x="446" y="72"/>
      <point x="457" y="102" type="curve" smooth="yes"/>
      <point x="458" y="106"/>
      <point x="461" y="113"/>
      <point x="462" y="117" type="curve"/>
      <point x="462" y="116" type="line"/>
      <point x="465" y="124"/>
      <point x="467" y="132"/>
      <point x="469" y="138" type="curve" smooth="yes"/>
      <point x="472" y="146"/>
      <point x="473" y="150"/>
      <point x="482" y="159" type="curve"/>
      <point x="461" y="159" type="line"/>
      <point x="461" y="149" type="line"/>
      <point x="511" y="150"/>
      <point x="541" y="150"/>
      <point x="564" y="150" type="curve" smooth="yes"/>
      <point x="592" y="150"/>
      <point x="610" y="150"/>
      <point x="650" y="155" type="curve"/>
      <point x="648" y="183"/>
      <point x="648" y="203"/>
      <point x="648" y="216" type="curve" smooth="yes"/>
      <point x="648" y="232"/>
      <point x="648" y="241"/>
      <point x="641" y="257" type="curve"/>
      <point x="594" y="260"/>
      <point x="544" y="262"/>
      <point x="521" y="262" type="curve"/>
      <point x="514" y="262" type="line"/>
      <point x="533" y="318" type="line"/>
      <point x="535" y="325"/>
      <point x="538" y="333"/>
      <point x="540" y="340" type="curve" smooth="yes"/>
      <point x="544" y="354"/>
      <point x="551" y="373"/>
      <point x="556" y="388" type="curve"/>
      <point x="540" y="388" type="line"/>
      <point x="540" y="378" type="line"/>
      <point x="661" y="381" type="line"/>
    </contour>
    <contour>
      <point x="270" y="262" type="line"/>
      <point x="273" y="272"/>
      <point x="274" y="276"/>
      <point x="278" y="287" type="curve" smooth="yes"/>
      <point x="281" y="298"/>
      <point x="285" y="308"/>
      <point x="289" y="319" type="curve" smooth="yes"/>
      <point x="295" y="338"/>
      <point x="303" y="360"/>
      <point x="310" y="380" type="curve"/>
      <point x="341" y="381"/>
      <point x="360" y="380"/>
      <point x="389" y="379" type="curve"/>
      <point x="403" y="379" type="line"/>
      <point x="408" y="379" type="line"/>
      <point x="403" y="385" type="line"/>
      <point x="400" y="364"/>
      <point x="393" y="344"/>
      <point x="387" y="328" type="curve" smooth="yes"/>
      <point x="385" y="323"/>
      <point x="384" y="318"/>
      <point x="382" y="313" type="curve" smooth="yes"/>
      <point x="375" y="293"/>
      <point x="369" y="280"/>
      <point x="365" y="262" type="curve"/>
      <point x="365" y="261"/>
      <point x="364" y="259"/>
      <point x="364" y="258" type="curve"/>
      <point x="369" y="263" type="line"/>
    </contour>
  </outline>
</glyph>
<glyph name="dollar" format="1">
  <advance width="445"/>
  <unicode hex="0024"/>
  <outline>
    <contour>
      <point x="349" y="329" type="curve"/>
      <point x="337" y="338" type="line"/>
      <point x="331" y="342"/>
      <point x="324" y="346"/>
      <point x="317" y="351" type="curve" smooth="yes"/>
      <point x="265" y="386"/>
      <point x="202" y="429"/>
      <point x="202" y="476" type="curve" smooth="yes"/>
      <point x="202" y="497"/>
      <point x="219" y="516"/>
      <point x="234" y="516" type="curve" smooth="yes"/>
      <point x="250" y="516"/>
      <point x="251" y="501"/>
      <point x="253" y="484" type="curve" smooth="yes"/>
      <point x="256" y="460"/>
      <point x="260" y="435"/>
      <point x="320" y="435" type="curve" smooth="yes"/>
      <point x="329" y="435"/>
      <point x="342" y="435"/>
      <point x="350" y="436" type="curve"/>
      <point x="362" y="436" type="line"/>
      <point x="366" y="436"/>
      <point x="371" y="437"/>
      <point x="376" y="437" type="curve"/>
      <point x="392" y="437" type="line"/>
      <point x="422" y="437"/>
      <point x="441" y="444"/>
      <point x="441" y="468" type="curve"/>
      <point x="441" y="474" type="line"/>
      <point x="441" y="507"/>
      <point x="441" y="532"/>
      <point x="426" y="563" type="curve" smooth="yes"/>
      <point x="411" y="595"/>
      <point x="369" y="644"/>
      <point x="310" y="649" type="curve"/>
      <point x="311" y="649"/>
      <point x="311" y="652"/>
      <point x="311" y="658" type="curve"/>
      <point x="311" y="738" type="line"/>
      <point x="299" y="761"/>
      <point x="227" y="758"/>
      <point x="212" y="758" type="curve"/>
      <point x="199" y="758" type="line"/>
      <point x="195" y="758" type="line"/>
      <point x="167" y="758"/>
      <point x="137" y="758"/>
      <point x="137" y="737" type="curve" smooth="yes"/>
      <point x="137" y="734"/>
      <point x="138" y="717"/>
      <point x="139" y="700" type="curve" smooth="yes"/>
      <point x="140" y="690"/>
      <point x="140" y="677"/>
      <point x="141" y="670" type="curve" smooth="yes"/>
      <point x="141" y="666"/>
      <point x="142" y="664"/>
      <point x="142" y="663" type="curve" smooth="yes"/>
      <point x="142" y="659"/>
      <point x="143" y="657"/>
      <point x="143" y="656" type="curve" smooth="yes"/>
      <point x="144" y="653"/>
      <point x="144" y="653"/>
      <point x="144" y="652" type="curve"/>
      <point x="111" y="641"/>
      <point x="74" y="622"/>
      <point x="53" y="601" type="curve" smooth="yes"/>
      <point x="25" y="573"/>
      <point x="13" y="540"/>
      <point x="13" y="507" type="curve" smooth="yes"/>
      <point x="13" y="461"/>
      <point x="38" y="408"/>
      <point x="71" y="370" type="curve"/>
      <point x="88" y="353"/>
      <point x="115" y="329"/>
      <point x="142" y="309" type="curve" smooth="yes"/>
      <point x="194" y="269"/>
      <point x="248" y="227"/>
      <point x="248" y="167" type="curve" smooth="yes"/>
      <point x="248" y="149"/>
      <point x="231" y="136"/>
      <point x="217" y="136" type="curve" smooth="yes"/>
      <point x="194" y="136"/>
      <point x="190" y="156"/>
      <point x="190" y="175" type="curve" smooth="yes"/>
      <point x="190" y="177"/>
      <point x="189" y="179"/>
      <point x="189" y="182" type="curve"/>
      <point x="189" y="190" type="line"/>
      <point x="189" y="206" type="line"/>
      <point x="189" y="243"/>
      <point x="159" y="243"/>
      <point x="126" y="243" type="curve" smooth="yes"/>
      <point x="120" y="243"/>
      <point x="114" y="243"/>
      <point x="107" y="244" type="curve"/>
      <point x="100" y="244" type="line"/>
      <point x="98" y="244"/>
      <point x="96" y="245"/>
      <point x="95" y="245" type="curve"/>
      <point x="96" y="245" type="line"/>
      <point x="88" y="246"/>
      <point x="77" y="247"/>
      <point x="66" y="247" type="curve" smooth="yes"/>
      <point x="5" y="247"/>
      <point x="5" y="235"/>
      <point x="5" y="191" type="curve" smooth="yes"/>
      <point x="5" y="101"/>
      <point x="15" y="41"/>
      <point x="121" y="6" type="curve" smooth="yes"/>
      <point x="144" y="-1"/>
      <point x="142" y="-26"/>
      <point x="141" y="-49" type="curve" smooth="yes"/>
      <point x="140" y="-77"/>
      <point x="139" y="-102"/>
      <point x="191" y="-102" type="curve"/>
      <point x="219" y="-102" type="line"/>
      <point x="223" y="-102"/>
      <point x="227" y="-101"/>
      <point x="231" y="-101" type="curve"/>
      <point x="241" y="-101" type="line"/>
      <point x="261" y="-101" type="line"/>
      <point x="300" y="-101"/>
      <point x="314" y="-88"/>
      <point x="314" y="-69" type="curve"/>
      <point x="314" y="-30" type="line"/>
      <point x="314" y="-20"/>
      <point x="315" y="-10"/>
      <point x="315" y="-3" type="curve"/>
      <point x="315" y="11" type="line"/>
      <point x="301" y="11" type="line"/>
      <point x="302" y="1" type="line"/>
      <point x="313" y="4"/>
      <point x="367" y="33"/>
      <point x="374" y="40" type="curve"/>
      <point x="373" y="40" type="line"/>
      <point x="419" y="78"/>
      <point x="437" y="118"/>
      <point x="437" y="160" type="curve" smooth="yes"/>
      <point x="437" y="215"/>
      <point x="405" y="289"/>
    </contour>
  </outline>
</glyph>
<glyph name="plus" format="1">
  <advance width="445"/>
  <unicode hex="002B"/>
  <outline>
    <contour>
      <point x="128" y="99" type="line"/>
      <point x="137" y="103"/>
      <point x="172" y="108"/>
      <point x="191" y="109" type="curve"/>
      <point x="214" y="108"/>
      <point x="241" y="107"/>
      <point x="262" y="107" type="curve" smooth="yes"/>
      <point x="289" y="107"/>
      <point x="308" y="109"/>
      <point x="308" y="116" type="curve" smooth="yes"/>
      <point x="308" y="124"/>
      <point x="309" y="140"/>
      <point x="311" y="158" type="curve" smooth="yes"/>
      <point x="314" y="188"/>
      <point x="316" y="226"/>
      <point x="314" y="245" type="curve"/>
      <point x="305" y="245" type="line"/>
      <point x="307" y="236" type="line"/>
      <point x="312" y="239"/>
      <point x="343" y="240"/>
      <point x="371" y="240" type="curve" smooth="yes"/>
      <point x="398" y="240"/>
      <point x="420" y="240"/>
      <point x="434" y="247" type="curve"/>
      <point x="437" y="275"/>
      <point x="437" y="300"/>
      <point x="437" y="326" type="curve" smooth="yes"/>
      <point x="437" y="346"/>
      <point x="437" y="370"/>
      <point x="438" y="395" type="curve"/>
      <point x="409" y="400"/>
      <point x="381" y="400"/>
      <point x="354" y="400" type="curve" smooth="yes"/>
      <point x="334" y="400"/>
      <point x="322" y="399"/>
      <point x="308" y="400" type="curve"/>
      <point x="320" y="396"/>
      <point x="315" y="420"/>
      <point x="315" y="447" type="curve"/>
      <point x="315" y="523" type="line"/>
      <point x="301" y="526"/>
      <point x="270" y="526"/>
      <point x="251" y="525" type="curve" smooth="yes"/>
      <point x="242" y="525"/>
      <point x="234" y="524"/>
      <point x="225" y="524" type="curve"/>
      <point x="200" y="524" type="line"/>
      <point x="184" y="524"/>
      <point x="165" y="528"/>
      <point x="140" y="544" type="curve"/>
      <point x="140" y="542"/>
      <point x="139" y="528"/>
      <point x="139" y="524" type="curve"/>
      <point x="139" y="516" type="line"/>
      <point x="139" y="514"/>
      <point x="138" y="511"/>
      <point x="137" y="507" type="curve" smooth="yes"/>
      <point x="137" y="503"/>
      <point x="137" y="498"/>
      <point x="136" y="493" type="curve" smooth="yes"/>
      <point x="135" y="483"/>
      <point x="134" y="469"/>
      <point x="133" y="457" type="curve" smooth="yes"/>
      <point x="133" y="454"/>
      <point x="132" y="450"/>
      <point x="132" y="446" type="curve"/>
      <point x="132" y="435" type="line"/>
      <point x="134" y="397" type="line"/>
      <point x="127" y="395"/>
      <point x="14" y="392"/>
      <point x="4" y="394" type="curve"/>
      <point x="4" y="389"/>
      <point x="4" y="373"/>
      <point x="5" y="364" type="curve"/>
      <point x="5" y="365" type="line"/>
      <point x="7" y="333"/>
      <point x="10" y="272"/>
      <point x="8" y="251" type="curve"/>
      <point x="24" y="241"/>
      <point x="98" y="235"/>
      <point x="125" y="234" type="curve"/>
      <point x="124" y="230"/>
      <point x="124" y="225"/>
      <point x="124" y="219" type="curve"/>
      <point x="124" y="169" type="line"/>
      <point x="123" y="157"/>
      <point x="123" y="132"/>
      <point x="126" y="116" type="curve"/>
    </contour>
  </outline>
</glyph>
<glyph name="comma" format="1">
  <advance width="188"/>
  <unicode hex="002C"/>
  <outline>
    <contour>
      <point x="161" y="-22" type="line"/>
      <point x="161" y="-17"/>
      <point x="162" y="-11"/>
      <point x="164" y="-6" type="curve" smooth="yes"/>
      <point x="164" y="-4"/>
      <point x="165" y="-1"/>
      <point x="165" y="-1" type="curve"/>
      <point x="165" y="0"/>
      <point x="166" y="3"/>
      <point x="166" y="4" type="curve"/>
      <point x="172" y="123" type="line"/>
      <point x="160" y="124"/>
      <point x="133" y="126"/>
      <point x="122" y="127" type="curve"/>
      <point x="123" y="127" type="line"/>
      <point x="107" y="129"/>
      <point x="90" y="130"/>
      <point x="74" y="130" type="curve" smooth="yes"/>
      <point x="58" y="130"/>
      <point x="41" y="129"/>
      <point x="21" y="122" type="curve"/>
      <point x="16" y="31"/>
      <point x="16" y="11"/>
      <point x="16" y="6" type="curve"/>
      <point x="19" y="-1"/>
      <point x="26" y="-2"/>
      <point x="32" y="-2" type="curve" smooth="yes"/>
      <point x="39" y="-3"/>
      <point x="46" y="-6"/>
      <point x="53" y="-4" type="curve" smooth="yes"/>
      <point x="59" y="-2" type="line"/>
      <point x="57" y="-24"/>
      <point x="59" y="-38"/>
      <point x="54" y="-54" type="curve"/>
      <point x="54" y="-55"/>
      <point x="53" y="-57"/>
      <point x="53" y="-58" type="curve" smooth="yes"/>
      <point x="48" y="-79"/>
      <point x="45" y="-97"/>
      <point x="51" y="-103" type="curve"/>
      <point x="99" y="-103" type="line"/>
      <point x="112" y="-103"/>
      <point x="122" y="-103"/>
      <point x="144" y="-114" type="curve"/>
      <point x="144" y="-101"/>
      <point x="145" y="-101"/>
      <point x="146" y="-97" type="curve" smooth="yes"/>
      <point x="147" y="-92"/>
      <point x="148" y="-86"/>
      <point x="149" y="-82" type="curve"/>
    </contour>
  </outline>
</glyph>
<glyph name="slash" format="1">
  <advance width="412"/>
  <unicode hex="002F"/>
  <outline>
    <contour>
      <point x="222" y="149" type="line"/>
      <point x="227" y="162"/>
      <point x="231" y="173"/>
      <point x="236" y="186" type="curve" smooth="yes"/>
      <point x="238" y="192"/>
      <point x="242" y="203"/>
      <point x="244" y="209" type="curve" smooth="yes"/>
      <point x="257" y="244"/>
      <point x="269" y="280"/>
      <point x="281" y="315" type="curve" smooth="yes"/>
      <point x="285" y="326"/>
      <point x="289" y="339"/>
      <point x="293" y="350" type="curve" smooth="yes"/>
      <point x="295" y="355"/>
      <point x="295" y="359"/>
      <point x="297" y="364" type="curve" smooth="yes"/>
      <point x="303" y="384"/>
      <point x="311" y="406"/>
      <point x="318" y="426" type="curve" smooth="yes"/>
      <point x="325" y="447"/>
      <point x="334" y="472"/>
      <point x="342" y="494" type="curve"/>
      <point x="357" y="536" type="line"/>
      <point x="360" y="545"/>
      <point x="362" y="553"/>
      <point x="365" y="561" type="curve" smooth="yes"/>
      <point x="369" y="572"/>
      <point x="373" y="586"/>
      <point x="376" y="596" type="curve" smooth="yes"/>
      <point x="391" y="644"/>
      <point x="398" y="668"/>
      <point x="402" y="682" type="curve"/>
      <point x="402" y="683"/>
      <point x="403" y="684"/>
      <point x="403" y="685" type="curve" smooth="yes"/>
      <point x="404" y="690"/>
      <point x="400" y="694"/>
      <point x="399" y="693" type="curve" smooth="yes"/>
      <point x="400" y="696"/>
      <point x="407" y="701"/>
      <point x="407" y="701" type="curve"/>
      <point x="379" y="715"/>
      <point x="349" y="714"/>
      <point x="319" y="713" type="curve" smooth="yes"/>
      <point x="299" y="712"/>
      <point x="279" y="711"/>
      <point x="248" y="717" type="curve"/>
      <point x="228" y="638"/>
      <point x="200" y="559"/>
      <point x="197" y="554" type="curve"/>
      <point x="192" y="540"/>
      <point x="188" y="527"/>
      <point x="184" y="513" type="curve"/>
      <point x="184" y="506"/>
      <point x="180" y="498"/>
      <point x="178" y="491" type="curve" smooth="yes"/>
      <point x="173" y="476"/>
      <point x="167" y="459"/>
      <point x="160" y="440" type="curve" smooth="yes"/>
      <point x="78" y="220"/>
      <point x="68" y="191"/>
      <point x="65" y="180" type="curve"/>
      <point x="51" y="145"/>
      <point x="40" y="113"/>
      <point x="32" y="88" type="curve"/>
      <point x="32" y="86" type="line"/>
      <point x="33" y="86" type="line"/>
      <point x="28" y="77"/>
      <point x="27" y="73"/>
      <point x="26" y="70" type="curve" smooth="yes"/>
      <point x="14" y="40"/>
      <point x="-1" y="-6"/>
      <point x="22" y="-6" type="curve" smooth="yes"/>
      <point x="68" y="-5"/>
      <point x="96" y="-5"/>
      <point x="114" y="-5" type="curve" smooth="yes"/>
      <point x="133" y="-5"/>
      <point x="141" y="-5"/>
      <point x="161" y="0" type="curve"/>
      <point x="164" y="3" type="line"/>
    </contour>
  </outline>
</glyph>
<glyph name="zero" format="1">
  <advance width="513"/>
  <unicode hex="0030"/>
  <outline>
    <contour>
      <point x="74" y="613" type="line"/>
      <point x="70" y="621" type="line"/>
      <point x="25" y="550"/>
      <point x="14" y="473"/>
      <point x="14" y="398" type="curve" smooth="yes"/>
      <point x="14" y="381"/>
      <point x="15" y="358"/>
      <point x="16" y="341" type="curve" smooth="yes"/>
      <point x="16" y="332"/>
      <point x="17" y="324"/>
      <point x="17" y="315" type="curve" smooth="yes"/>
      <point x="20" y="195"/>
      <point x="24" y="64"/>
      <point x="169" y="10" type="curve" smooth="yes"/>
      <point x="188" y="3"/>
      <point x="215" y="-2"/>
      <point x="243" y="-3" type="curve" smooth="yes"/>
      <point x="424" y="-10"/>
      <point x="501" y="219"/>
      <point x="503" y="373" type="curve" smooth="yes"/>
      <point x="504" y="408"/>
      <point x="502" y="455"/>
      <point x="495" y="494" type="curve" smooth="yes"/>
      <point x="473" y="608"/>
      <point x="394" y="720"/>
      <point x="247" y="715" type="curve" smooth="yes"/>
      <point x="173" y="712"/>
      <point x="121" y="678"/>
      <point x="81" y="634" type="curve"/>
      <point x="69" y="622" type="line"/>
    </contour>
    <contour>
      <point x="233" y="174" type="line"/>
      <point x="223" y="179"/>
      <point x="216" y="199"/>
      <point x="211" y="216" type="curve" smooth="yes"/>
      <point x="210" y="222"/>
      <point x="208" y="227"/>
      <point x="206" y="232" type="curve"/>
      <point x="206" y="231" type="line"/>
      <point x="196" y="271"/>
      <point x="193" y="308"/>
      <point x="193" y="347" type="curve" smooth="yes"/>
      <point x="193" y="376"/>
      <point x="195" y="414"/>
      <point x="198" y="448" type="curve"/>
      <point x="202" y="481"/>
      <point x="206" y="513"/>
      <point x="213" y="523" type="curve"/>
      <point x="218" y="533"/>
      <point x="229" y="542"/>
      <point x="240" y="544" type="curve"/>
      <point x="253" y="549"/>
      <point x="270" y="540"/>
      <point x="281" y="529" type="curve"/>
      <point x="299" y="498"/>
      <point x="307" y="429"/>
      <point x="307" y="371" type="curve" smooth="yes"/>
      <point x="307" y="352"/>
      <point x="307" y="328"/>
      <point x="306" y="312" type="curve"/>
      <point x="306" y="313" type="line"/>
      <point x="305" y="305"/>
      <point x="304" y="294"/>
      <point x="304" y="285" type="curve" smooth="yes"/>
      <point x="303" y="261"/>
      <point x="302" y="239"/>
      <point x="295" y="217" type="curve" smooth="yes"/>
      <point x="289" y="196"/>
      <point x="281" y="177"/>
      <point x="263" y="172" type="curve" smooth="yes"/>
      <point x="255" y="170"/>
      <point x="244" y="171"/>
      <point x="235" y="174" type="curve"/>
    </contour>
  </outline>
</glyph>
<glyph name="two" format="1">
  <advance width="498"/>
  <unicode hex="0032"/>
  <outline>
    <contour>
      <point x="456" y="-1" type="line"/>
      <point x="470" y="-1"/>
      <point x="475" y="-1"/>
      <point x="475" y="6" type="curve"/>
      <point x="473" y="15"/>
      <point x="473" y="23"/>
      <point x="473" y="31" type="curve"/>
      <point x="473" y="38" type="line"/>
      <point x="473" y="61" type="line"/>
      <point x="473" y="77" type="line"/>
      <point x="473" y="82"/>
      <point x="474" y="87"/>
      <point x="474" y="93" type="curve" smooth="yes"/>
      <point x="474" y="112"/>
      <point x="472" y="131"/>
      <point x="464" y="150" type="curve"/>
      <point x="430" y="150"/>
      <point x="386" y="149"/>
      <point x="355" y="148" type="curve" smooth="yes"/>
      <point x="327" y="147"/>
      <point x="299" y="147"/>
      <point x="270" y="147" type="curve" smooth="yes"/>
      <point x="249" y="147"/>
      <point x="227" y="147"/>
      <point x="204" y="148" type="curve"/>
      <point x="243" y="224"/>
      <point x="254" y="232"/>
      <point x="332" y="272" type="curve" smooth="yes"/>
      <point x="402" y="306"/>
      <point x="481" y="348"/>
      <point x="488" y="436" type="curve" smooth="yes"/>
      <point x="489" y="453"/>
      <point x="488" y="487"/>
      <point x="487" y="508" type="curve" smooth="yes"/>
      <point x="487" y="511"/>
      <point x="486" y="514"/>
      <point x="486" y="517" type="curve"/>
      <point x="486" y="526" type="line"/>
      <point x="479" y="597"/>
      <point x="445" y="663"/>
      <point x="375" y="699" type="curve"/>
      <point x="349" y="709"/>
      <point x="308" y="716"/>
      <point x="262" y="716" type="curve" smooth="yes"/>
      <point x="189" y="716"/>
      <point x="110" y="696"/>
      <point x="75" y="654" type="curve" smooth="yes"/>
      <point x="37" y="610"/>
      <point x="16" y="550"/>
      <point x="16" y="485" type="curve" smooth="yes"/>
      <point x="16" y="466"/>
      <point x="18" y="443"/>
      <point x="23" y="418" type="curve"/>
      <point x="51" y="411"/>
      <point x="67" y="411"/>
      <point x="84" y="411" type="curve" smooth="yes"/>
      <point x="119" y="411"/>
      <point x="157" y="413"/>
      <point x="201" y="419" type="curve"/>
      <point x="205" y="468"/>
      <point x="211" y="540"/>
      <point x="260" y="541" type="curve"/>
      <point x="259" y="541" type="line"/>
      <point x="284" y="538"/>
      <point x="299" y="507"/>
      <point x="299" y="474" type="curve" smooth="yes"/>
      <point x="299" y="447"/>
      <point x="289" y="420"/>
      <point x="269" y="407" type="curve"/>
      <point x="239" y="384"/>
      <point x="210" y="366"/>
      <point x="184" y="350" type="curve" smooth="yes"/>
      <point x="143" y="325"/>
      <point x="88" y="290"/>
      <point x="51" y="249" type="curve"/>
      <point x="19" y="196"/>
      <point x="19" y="138"/>
      <point x="18" y="79" type="curve" smooth="yes"/>
      <point x="18" y="54"/>
      <point x="16" y="21"/>
      <point x="14" y="-5" type="curve"/>
      <point x="24" y="-5"/>
      <point x="25" y="-10"/>
      <point x="76" y="-6" type="curve"/>
    </contour>
  </outline>
</glyph>
<glyph name="seven" format="1">
  <advance width="476"/>
  <unicode hex="0037"/>
  <outline>
    <contour>
      <point x="263" y="557" type="line"/>
      <point x="223" y="467"/>
      <point x="163" y="342"/>
      <point x="114" y="240" type="curve" smooth="yes"/>
      <point x="77" y="165"/>
      <point x="38" y="85"/>
      <point x="1" y="6" type="curve"/>
      <point x="25" y="-2"/>
      <point x="44" y="-3"/>
      <point x="64" y="-3" type="curve" smooth="yes"/>
      <point x="85" y="-3"/>
      <point x="108" y="-2"/>
      <point x="126" y="0" type="curve"/>
      <point x="125" y="0" type="line"/>
      <point x="142" y="1"/>
      <point x="167" y="2"/>
      <point x="179" y="2" type="curve"/>
      <point x="359" y="327"/>
      <point x="428" y="450"/>
      <point x="478" y="565" type="curve"/>
      <point x="478" y="585"/>
      <point x="478" y="601"/>
      <point x="477" y="618" type="curve" smooth="yes"/>
      <point x="476" y="634"/>
      <point x="476" y="649"/>
      <point x="476" y="666" type="curve" smooth="yes"/>
      <point x="476" y="678"/>
      <point x="476" y="694"/>
      <point x="477" y="708" type="curve"/>
      <point x="416" y="715"/>
      <point x="352" y="717"/>
      <point x="287" y="717" type="curve" smooth="yes"/>
      <point x="250" y="717"/>
      <point x="200" y="716"/>
      <point x="162" y="715" type="curve" smooth="yes"/>
      <point x="142" y="715"/>
      <point x="122" y="714"/>
      <point x="103" y="714" type="curve" smooth="yes"/>
      <point x="90" y="714"/>
      <point x="75" y="713"/>
      <point x="60" y="713" type="curve" smooth="yes"/>
      <point x="45" y="713"/>
      <point x="25" y="713"/>
      <point x="12" y="712" type="curve"/>
      <point x="12" y="691" type="line"/>
      <point x="12" y="685"/>
      <point x="11" y="679"/>
      <point x="11" y="673" type="curve" smooth="yes"/>
      <point x="11" y="641"/>
      <point x="11" y="606"/>
      <point x="6" y="565" type="curve"/>
    </contour>
  </outline>
</glyph>
<glyph name="nine" format="1">
  <advance width="513"/>
  <unicode hex="0039"/>
  <outline>
    <contour>
      <point x="489" y="471" type="line"/>
      <point x="488" y="538"/>
      <point x="486" y="605"/>
      <point x="452" y="656" type="curve" smooth="yes"/>
      <point x="417" y="711"/>
      <point x="350" y="712"/>
      <point x="286" y="713" type="curve"/>
      <point x="271" y="713" type="line"/>
      <point x="266" y="713"/>
      <point x="261" y="714"/>
      <point x="256" y="714" type="curve" smooth="yes"/>
      <point x="177" y="711"/>
      <point x="98" y="688"/>
      <point x="54" y="635" type="curve" smooth="yes"/>
      <point x="23" y="597"/>
      <point x="13" y="550"/>
      <point x="13" y="503" type="curve" smooth="yes"/>
      <point x="13" y="458"/>
      <point x="24" y="410"/>
      <point x="47" y="375" type="curve" smooth="yes"/>
      <point x="85" y="318"/>
      <point x="154" y="281"/>
      <point x="229" y="281" type="curve" smooth="yes"/>
      <point x="250" y="281"/>
      <point x="270" y="284"/>
      <point x="289" y="289" type="curve"/>
      <point x="291" y="241"/>
      <point x="283" y="187"/>
      <point x="248" y="182" type="curve"/>
      <point x="249" y="182" type="line"/>
      <point x="227" y="180"/>
      <point x="208" y="202"/>
      <point x="201" y="228" type="curve"/>
      <point x="182" y="231"/>
      <point x="162" y="232"/>
      <point x="143" y="232" type="curve" smooth="yes"/>
      <point x="129" y="232"/>
      <point x="111" y="231"/>
      <point x="97" y="230" type="curve" smooth="yes"/>
      <point x="90" y="230"/>
      <point x="82" y="229"/>
      <point x="75" y="229" type="curve" smooth="yes"/>
      <point x="59" y="228"/>
      <point x="29" y="227"/>
      <point x="15" y="227" type="curve"/>
      <point x="15" y="218" type="line"/>
      <point x="13" y="207"/>
      <point x="13" y="192"/>
      <point x="13" y="183" type="curve" smooth="yes"/>
      <point x="13" y="148"/>
      <point x="23" y="114"/>
      <point x="42" y="86" type="curve"/>
      <point x="85" y="30"/>
      <point x="180" y="-9"/>
      <point x="269" y="-9" type="curve" smooth="yes"/>
      <point x="338" y="-9"/>
      <point x="402" y="11"/>
      <point x="439" y="54" type="curve"/>
      <point x="470" y="97"/>
      <point x="485" y="144"/>
      <point x="492" y="191" type="curve" smooth="yes"/>
      <point x="494" y="206"/>
      <point x="495" y="221"/>
      <point x="495" y="238" type="curve" smooth="yes"/>
      <point x="495" y="253"/>
      <point x="494" y="269"/>
      <point x="493" y="285" type="curve" smooth="yes"/>
      <point x="492" y="300"/>
      <point x="491" y="311"/>
      <point x="491" y="323" type="curve"/>
    </contour>
    <contour>
      <point x="308" y="495" type="curve"/>
      <point x="304" y="469"/>
      <point x="302" y="465"/>
      <point x="299" y="459" type="curve"/>
      <point x="291" y="446"/>
      <point x="276" y="439"/>
      <point x="263" y="439" type="curve" smooth="yes"/>
      <point x="248" y="439"/>
      <point x="230" y="450"/>
      <point x="221" y="468" type="curve"/>
      <point x="219" y="477"/>
      <point x="217" y="490"/>
      <point x="216" y="504" type="curve"/>
      <point x="216" y="523"/>
      <point x="223" y="531"/>
      <point x="231" y="534" type="curve" smooth="yes"/>
      <point x="245" y="541"/>
      <point x="255" y="544"/>
      <point x="262" y="544" type="curve" smooth="yes"/>
      <point x="287" y="544"/>
      <point x="310" y="523"/>
    </contour>
  </outline>
</glyph>
<glyph name="semicolon" format="1">
  <advance width="205"/>
  <unicode hex="003B"/>
  <outline>
    <contour>
      <point x="172" y="331" type="line"/>
      <point x="173" y="341"/>
      <point x="176" y="378"/>
      <point x="178" y="406" type="curve" smooth="yes"/>
      <point x="179" y="418"/>
      <point x="179" y="429"/>
      <point x="180" y="438" type="curve" smooth="yes"/>
      <point x="181" y="449"/>
      <point x="177" y="459"/>
      <point x="177" y="459" type="curve"/>
      <point x="167" y="464"/>
      <point x="139" y="466"/>
      <point x="109" y="466" type="curve" smooth="yes"/>
      <point x="79" y="466"/>
      <point x="46" y="463"/>
      <point x="26" y="454" type="curve"/>
      <point x="26" y="444" type="line"/>
      <point x="26" y="441"/>
      <point x="25" y="437"/>
      <point x="25" y="432" type="curve"/>
      <point x="25" y="412" type="line"/>
      <point x="25" y="404"/>
      <point x="24" y="396"/>
      <point x="24" y="388" type="curve" smooth="yes"/>
      <point x="24" y="370"/>
      <point x="25" y="350"/>
      <point x="28" y="332" type="curve"/>
    </contour>
    <contour>
      <point x="170" y="-22" type="line"/>
      <point x="170" y="-17"/>
      <point x="171" y="-11"/>
      <point x="173" y="-6" type="curve" smooth="yes"/>
      <point x="173" y="-4"/>
      <point x="174" y="-1"/>
      <point x="174" y="-1" type="curve"/>
      <point x="174" y="0"/>
      <point x="175" y="3"/>
      <point x="175" y="4" type="curve"/>
      <point x="181" y="123" type="line"/>
      <point x="169" y="124"/>
      <point x="142" y="126"/>
      <point x="131" y="127" type="curve"/>
      <point x="132" y="127" type="line"/>
      <point x="116" y="129"/>
      <point x="99" y="130"/>
      <point x="83" y="130" type="curve" smooth="yes"/>
      <point x="67" y="130"/>
      <point x="50" y="129"/>
      <point x="30" y="122" type="curve"/>
      <point x="25" y="31"/>
      <point x="25" y="5"/>
      <point x="25" y="0" type="curve"/>
      <point x="42" y="-3"/>
      <point x="57" y="-4"/>
      <point x="73" y="-6" type="curve"/>
      <point x="71" y="-28"/>
      <point x="68" y="-38"/>
      <point x="63" y="-54" type="curve"/>
      <point x="63" y="-55"/>
      <point x="62" y="-57"/>
      <point x="62" y="-58" type="curve" smooth="yes"/>
      <point x="57" y="-79"/>
      <point x="54" y="-97"/>
      <point x="60" y="-103" type="curve"/>
      <point x="108" y="-103" type="line"/>
      <point x="121" y="-103"/>
      <point x="131" y="-103"/>
      <point x="153" y="-114" type="curve"/>
      <point x="153" y="-101"/>
      <point x="154" y="-101"/>
      <point x="155" y="-97" type="curve" smooth="yes"/>
      <point x="156" y="-92"/>
      <point x="157" y="-86"/>
      <point x="158" y="-82" type="curve"/>
    </contour>
  </outline>
</glyph>
<glyph name="equal" format="1">
  <advance width="466"/>
  <unicode hex="003D"/>
  <outline>
    <contour>
      <point x="41" y="321" type="line"/>
      <point x="43" y="321"/>
      <point x="67" y="320"/>
      <point x="81" y="320" type="curve" smooth="yes"/>
      <point x="115" y="319"/>
      <point x="184" y="319"/>
      <point x="233" y="318" type="curve" smooth="yes"/>
      <point x="324" y="316"/>
      <point x="430" y="315"/>
      <point x="440" y="315" type="curve"/>
      <point x="438" y="336"/>
      <point x="436" y="358"/>
      <point x="436" y="385" type="curve"/>
      <point x="436" y="400" type="line"/>
      <point x="436" y="405"/>
      <point x="437" y="410"/>
      <point x="437" y="415" type="curve"/>
      <point x="437" y="439" type="line"/>
      <point x="437" y="447"/>
      <point x="438" y="460"/>
      <point x="438" y="468" type="curve"/>
      <point x="29" y="468" type="line"/>
      <point x="29" y="457" type="line"/>
      <point x="29" y="451"/>
      <point x="28" y="435"/>
      <point x="28" y="427" type="curve" smooth="yes"/>
      <point x="27" y="393"/>
      <point x="26" y="338"/>
      <point x="26" y="321" type="curve"/>
    </contour>
    <contour>
      <point x="41" y="114" type="line"/>
      <point x="43" y="114"/>
      <point x="67" y="113"/>
      <point x="81" y="113" type="curve" smooth="yes"/>
      <point x="115" y="112"/>
      <point x="184" y="112"/>
      <point x="233" y="111" type="curve" smooth="yes"/>
      <point x="324" y="109"/>
      <point x="430" y="108"/>
      <point x="440" y="108" type="curve"/>
      <point x="438" y="129"/>
      <point x="436" y="151"/>
      <point x="436" y="178" type="curve"/>
      <point x="436" y="193" type="line"/>
      <point x="436" y="198"/>
      <point x="437" y="203"/>
      <point x="437" y="208" type="curve"/>
      <point x="437" y="232" type="line"/>
      <point x="437" y="240"/>
      <point x="438" y="253"/>
      <point x="438" y="261" type="curve"/>
      <point x="29" y="261" type="line"/>
      <point x="29" y="250" type="line"/>
      <point x="29" y="244"/>
      <point x="28" y="228"/>
      <point x="28" y="220" type="curve" smooth="yes"/>
      <point x="27" y="186"/>
      <point x="26" y="131"/>
      <point x="26" y="114" type="curve"/>
    </contour>
  </outline>
</glyph>
<glyph name="greater" format="1">
  <advance width="363"/>
  <unicode hex="003E"/>
  <outline>
    <contour>
      <point x="21" y="79" type="line"/>
      <point x="20" y="79" type="line"/>
      <point x="39" y="60" type="line"/>
      <point x="39" y="62" type="line"/>
      <point x="42" y="56"/>
      <point x="54" y="45"/>
      <point x="99" y="5" type="curve"/>
      <point x="129" y="36"/>
      <point x="170" y="75"/>
      <point x="202" y="104" type="curve" smooth="yes"/>
      <point x="209" y="110"/>
      <point x="215" y="117"/>
      <point x="222" y="123" type="curve" smooth="yes"/>
      <point x="271" y="168"/>
      <point x="321" y="213"/>
      <point x="364" y="270" type="curve"/>
      <point x="334" y="308"/>
      <point x="292" y="351"/>
      <point x="249" y="395" type="curve"/>
      <point x="233" y="412" type="line"/>
      <point x="212" y="433"/>
      <point x="192" y="452"/>
      <point x="173" y="472" type="curve" smooth="yes"/>
      <point x="172" y="473"/>
      <point x="169" y="477"/>
      <point x="168" y="478" type="curve"/>
      <point x="168" y="477" type="line"/>
      <point x="150" y="496"/>
      <point x="127" y="521"/>
      <point x="110" y="538" type="curve"/>
      <point x="80" y="521"/>
      <point x="65" y="507"/>
      <point x="53" y="495" type="curve" smooth="yes"/>
      <point x="40" y="481"/>
      <point x="27" y="467"/>
      <point x="15" y="459" type="curve"/>
      <point x="35" y="434"/>
      <point x="67" y="401"/>
      <point x="100" y="367" type="curve" smooth="yes"/>
      <point x="132" y="334"/>
      <point x="163" y="299"/>
      <point x="190" y="268" type="curve"/>
      <point x="172" y="251"/>
      <point x="151" y="230"/>
      <point x="129" y="209" type="curve" smooth="yes"/>
      <point x="123" y="203"/>
      <point x="116" y="197"/>
      <point x="111" y="192" type="curve"/>
      <point x="97" y="178" type="line"/>
      <point x="98" y="178" type="line"/>
      <point x="69" y="150"/>
      <point x="35" y="118"/>
      <point x="5" y="93" type="curve"/>
    </contour>
  </outline>
</glyph>
<glyph name="at" format="1">
  <advance width="564"/>
  <unicode hex="0040"/>
  <outline>
    <contour>
      <point x="399" y="469" type="line"/>
      <point x="400" y="468" type="line"/>
      <point x="382" y="480"/>
      <point x="358" y="484"/>
      <point x="333" y="484" type="curve" smooth="yes"/>
      <point x="276" y="484"/>
      <point x="217" y="456"/>
      <point x="194" y="429" type="curve" smooth="yes"/>
      <point x="167" y="396"/>
      <point x="150" y="357"/>
      <point x="149" y="315" type="curve" smooth="yes"/>
      <point x="148" y="278"/>
      <point x="151" y="227"/>
      <point x="181" y="193" type="curve" smooth="yes"/>
      <point x="204" y="168"/>
      <point x="237" y="155"/>
      <point x="278" y="155" type="curve" smooth="yes"/>
      <point x="309" y="155"/>
      <point x="334" y="160"/>
      <point x="356" y="173" type="curve"/>
      <point x="361" y="167"/>
      <point x="360" y="169"/>
      <point x="361" y="168" type="curve" smooth="yes"/>
      <point x="379" y="156"/>
      <point x="397" y="149"/>
      <point x="418" y="149" type="curve" smooth="yes"/>
      <point x="483" y="150"/>
      <point x="532" y="181"/>
      <point x="542" y="235" type="curve" smooth="yes"/>
      <point x="547" y="266"/>
      <point x="548" y="285"/>
      <point x="548" y="326" type="curve"/>
      <point x="548" y="380" type="line"/>
      <point x="548" y="452"/>
      <point x="544" y="546"/>
      <point x="480" y="606" type="curve" smooth="yes"/>
      <point x="449" y="634"/>
      <point x="406" y="651"/>
      <point x="365" y="657" type="curve" smooth="yes"/>
      <point x="339" y="661"/>
      <point x="308" y="664"/>
      <point x="280" y="664" type="curve" smooth="yes"/>
      <point x="264" y="664"/>
      <point x="241" y="664"/>
      <point x="226" y="661" type="curve"/>
      <point x="169" y="653"/>
      <point x="107" y="637"/>
      <point x="71" y="593" type="curve"/>
      <point x="28" y="535"/>
      <point x="19" y="468"/>
      <point x="18" y="406" type="curve"/>
      <point x="18" y="376" type="line"/>
      <point x="18" y="312"/>
      <point x="21" y="263"/>
      <point x="25" y="195" type="curve" smooth="yes"/>
      <point x="28" y="157"/>
      <point x="51" y="89"/>
      <point x="78" y="50" type="curve"/>
      <point x="111" y="7"/>
      <point x="163" y="-17"/>
      <point x="222" y="-25" type="curve"/>
      <point x="244" y="-27"/>
      <point x="267" y="-28"/>
      <point x="293" y="-28" type="curve" smooth="yes"/>
      <point x="330" y="-28"/>
      <point x="364" y="-27"/>
      <point x="395" y="-20" type="curve"/>
      <point x="438" y="-13"/>
      <point x="508" y="17"/>
      <point x="546" y="42" type="curve"/>
      <point x="503" y="136" type="line"/>
      <point x="448" y="108"/>
      <point x="366" y="78"/>
      <point x="320" y="75" type="curve"/>
      <point x="309" y="75" type="line"/>
      <point x="301" y="75" type="line"/>
      <point x="298" y="75"/>
      <point x="295" y="74"/>
      <point x="292" y="74" type="curve" smooth="yes"/>
      <point x="265" y="74"/>
      <point x="225" y="81"/>
      <point x="200" y="93" type="curve"/>
      <point x="201" y="92" type="line"/>
      <point x="173" y="111"/>
      <point x="159" y="149"/>
      <point x="151" y="202" type="curve" smooth="yes"/>
      <point x="144" y="243"/>
      <point x="141" y="287"/>
      <point x="141" y="327" type="curve" smooth="yes"/>
      <point x="141" y="342"/>
      <point x="141" y="357"/>
      <point x="142" y="372" type="curve" smooth="yes"/>
      <point x="145" y="429"/>
      <point x="148" y="498"/>
      <point x="182" y="535" type="curve"/>
      <point x="182" y="534" type="line"/>
      <point x="208" y="560"/>
      <point x="240" y="569"/>
      <point x="270" y="569" type="curve" smooth="yes"/>
      <point x="302" y="569"/>
      <point x="336" y="563"/>
      <point x="363" y="550" type="curve"/>
      <point x="363" y="551" type="line"/>
      <point x="408" y="525"/>
      <point x="433" y="497"/>
      <point x="433" y="411" type="curve"/>
      <point x="433" y="371" type="line"/>
      <point x="434" y="352"/>
      <point x="431" y="318"/>
      <point x="431" y="295" type="curve" smooth="yes"/>
      <point x="431" y="244"/>
      <point x="419" y="257"/>
      <point x="420" y="263" type="curve"/>
      <point x="418" y="282"/>
      <point x="418" y="311"/>
      <point x="418" y="341" type="curve" smooth="yes"/>
      <point x="418" y="361"/>
      <point x="418" y="382"/>
      <point x="419" y="399" type="curve" smooth="yes"/>
      <point x="419" y="402"/>
      <point x="420" y="405"/>
      <point x="420" y="408" type="curve"/>
      <point x="420" y="416" type="line"/>
      <point x="420" y="428" type="line"/>
      <point x="421" y="443"/>
      <point x="415" y="455"/>
      <point x="405" y="467" type="curve"/>
    </contour>
    <contour>
      <point x="264" y="286" type="curve"/>
      <point x="264" y="293" type="line"/>
      <point x="264" y="315"/>
      <point x="264" y="337"/>
      <point x="276" y="356" type="curve"/>
      <point x="284" y="371"/>
      <point x="300" y="376"/>
      <point x="314" y="377" type="curve"/>
      <point x="308" y="361"/>
      <point x="304" y="329"/>
      <point x="304" y="320" type="curve" smooth="yes"/>
      <point x="304" y="293"/>
      <point x="301" y="269"/>
      <point x="286" y="263" type="curve" smooth="yes"/>
      <point x="275" y="258"/>
      <point x="264" y="269"/>
    </contour>
  </outline>
</glyph>
<glyph name="F" format="1">
  <advance width="494"/>
  <unicode hex="0046"/>
  <outline>
    <contour>
      <point x="371" y="263" type="curve"/>
      <point x="370" y="276"/>
      <point x="369" y="292"/>
      <point x="369" y="310" type="curve"/>
      <point x="369" y="329" type="line"/>
      <point x="369" y="335"/>
      <point x="370" y="342"/>
      <point x="370" y="348" type="curve" smooth="yes"/>
      <point x="370" y="356"/>
      <point x="371" y="364"/>
      <point x="371" y="372" type="curve"/>
      <point x="371" y="392" type="line"/>
      <point x="371" y="409"/>
      <point x="370" y="425"/>
      <point x="366" y="434" type="curve"/>
      <point x="338" y="430"/>
      <point x="310" y="429"/>
      <point x="285" y="429" type="curve" smooth="yes"/>
      <point x="267" y="429"/>
      <point x="254" y="430"/>
      <point x="237" y="432" type="curve"/>
      <point x="233" y="438"/>
      <point x="227" y="491"/>
      <point x="234" y="508" type="curve" smooth="yes"/>
      <point x="237" y="515" type="line"/>
      <point x="281" y="519"/>
      <point x="327" y="520"/>
      <point x="377" y="523" type="curve" smooth="yes"/>
      <point x="383" y="523"/>
      <point x="389" y="524"/>
      <point x="395" y="524" type="curve" smooth="yes"/>
      <point x="405" y="525"/>
      <point x="421" y="525"/>
      <point x="432" y="526" type="curve" smooth="yes"/>
      <point x="457" y="527"/>
      <point x="487" y="529"/>
      <point x="505" y="530" type="curve"/>
      <point x="506" y="544"/>
      <point x="507" y="570"/>
      <point x="507" y="593" type="curve" smooth="yes"/>
      <point x="506" y="650"/>
      <point x="505" y="658"/>
      <point x="505" y="665" type="curve"/>
      <point x="505" y="684" type="line"/>
      <point x="452" y="697"/>
      <point x="381" y="702"/>
      <point x="309" y="702" type="curve" smooth="yes"/>
      <point x="198" y="702"/>
      <point x="74" y="690"/>
      <point x="28" y="683" type="curve"/>
      <point x="28" y="517"/>
      <point x="28" y="401"/>
      <point x="27" y="296" type="curve"/>
      <point x="27" y="165" type="line"/>
      <point x="27" y="116"/>
      <point x="26" y="61"/>
      <point x="26" y="2" type="curve"/>
      <point x="37" y="-6"/>
      <point x="71" y="-8"/>
      <point x="109" y="-8" type="curve" smooth="yes"/>
      <point x="150" y="-8"/>
      <point x="197" y="-7"/>
      <point x="231" y="-3" type="curve"/>
      <point x="231" y="32" type="line"/>
      <point x="238" y="244" type="line"/>
      <point x="260" y="248"/>
      <point x="271" y="247"/>
      <point x="290" y="249" type="curve" smooth="yes"/>
      <point x="311" y="251"/>
      <point x="336" y="253"/>
      <point x="355" y="256" type="curve" smooth="yes"/>
      <point x="364" y="257"/>
      <point x="371" y="259"/>
    </contour>
  </outline>
</glyph>
<glyph name="K" format="1">
  <advance width="459"/>
  <unicode hex="004B"/>
  <outline>
    <contour>
      <point x="307" y="359" type="line"/>
      <point x="327" y="403"/>
      <point x="355" y="457"/>
      <point x="380" y="497" type="curve" smooth="yes"/>
      <point x="382" y="500"/>
      <point x="384" y="504"/>
      <point x="386" y="507" type="curve" smooth="yes"/>
      <point x="423" y="571"/>
      <point x="460" y="634"/>
      <point x="478" y="698" type="curve"/>
      <point x="446" y="703"/>
      <point x="407" y="704"/>
      <point x="382" y="703" type="curve" smooth="yes"/>
      <point x="373" y="703"/>
      <point x="316" y="704"/>
      <point x="316" y="704" type="curve"/>
      <point x="287" y="664"/>
      <point x="267" y="627"/>
      <point x="249" y="592" type="curve"/>
      <point x="233" y="559"/>
      <point x="215" y="528"/>
      <point x="195" y="496" type="curve"/>
      <point x="195" y="516" type="line"/>
      <point x="195" y="618"/>
      <point x="195" y="664"/>
      <point x="194" y="702" type="curve"/>
      <point x="176" y="702"/>
      <point x="142" y="702"/>
      <point x="123" y="703" type="curve" smooth="yes"/>
      <point x="97" y="704"/>
      <point x="55" y="705"/>
      <point x="30" y="704" type="curve"/>
      <point x="30" y="624"/>
      <point x="29" y="517"/>
      <point x="27" y="437" type="curve" smooth="yes"/>
      <point x="25" y="358"/>
      <point x="24" y="279"/>
      <point x="24" y="200" type="curve" smooth="yes"/>
      <point x="24" y="135"/>
      <point x="25" y="68"/>
      <point x="28" y="3" type="curve"/>
      <point x="54" y="-3"/>
      <point x="90" y="-7"/>
      <point x="120" y="-7" type="curve" smooth="yes"/>
      <point x="149" y="-7"/>
      <point x="179" y="-4"/>
      <point x="204" y="3" type="curve"/>
      <point x="204" y="29"/>
      <point x="203" y="71"/>
      <point x="202" y="102" type="curve" smooth="yes"/>
      <point x="201" y="140"/>
      <point x="200" y="180"/>
      <point x="200" y="229" type="curve"/>
      <point x="208" y="202"/>
      <point x="200" y="230"/>
      <point x="207" y="204" type="curve" smooth="yes"/>
      <point x="208" y="201"/>
      <point x="213" y="180"/>
      <point x="219" y="167" type="curve"/>
      <point x="245" y="108"/>
      <point x="273" y="45"/>
      <point x="314" y="-3" type="curve"/>
      <point x="328" y="-3"/>
      <point x="344" y="-3"/>
      <point x="355" y="-4" type="curve" smooth="yes"/>
      <point x="372" y="-5"/>
      <point x="391" y="-6"/>
      <point x="408" y="-6" type="curve" smooth="yes"/>
      <point x="428" y="-6"/>
      <point x="450" y="-5"/>
      <point x="479" y="2" type="curve"/>
    </contour>
  </outline>
</glyph>
<glyph name="L" format="1">
  <advance width="461"/>
  <unicode hex="004C"/>
  <outline>
    <contour>
      <point x="472" y="91" type="curve"/>
      <point x="471" y="102"/>
      <point x="472" y="117"/>
      <point x="473" y="130" type="curve"/>
      <point x="473" y="129" type="line"/>
      <point x="474" y="136"/>
      <point x="474" y="148"/>
      <point x="474" y="159" type="curve"/>
      <point x="464" y="158"/>
      <point x="449" y="157"/>
      <point x="428" y="157" type="curve" smooth="yes"/>
      <point x="405" y="157"/>
      <point x="377" y="158"/>
      <point x="349" y="160" type="curve" smooth="yes"/>
      <point x="331" y="161"/>
      <point x="313" y="161"/>
      <point x="296" y="162" type="curve" smooth="yes"/>
      <point x="264" y="164"/>
      <point x="234" y="165"/>
      <point x="215" y="165" type="curve"/>
      <point x="215" y="230" type="line"/>
      <point x="215" y="288"/>
      <point x="215" y="347"/>
      <point x="214" y="407" type="curve" smooth="yes"/>
      <point x="213" y="467"/>
      <point x="212" y="528"/>
      <point x="212" y="587" type="curve" smooth="yes"/>
      <point x="212" y="625"/>
      <point x="213" y="666"/>
      <point x="214" y="702" type="curve"/>
      <point x="190" y="712"/>
      <point x="149" y="717"/>
      <point x="113" y="717" type="curve" smooth="yes"/>
      <point x="79" y="717"/>
      <point x="42" y="712"/>
      <point x="24" y="705" type="curve"/>
      <point x="24" y="686"/>
      <point x="25" y="661"/>
      <point x="25" y="640" type="curve" smooth="yes"/>
      <point x="25" y="620"/>
      <point x="25" y="596"/>
      <point x="26" y="579" type="curve"/>
      <point x="26" y="542" type="line"/>
      <point x="27" y="472"/>
      <point x="28" y="411"/>
      <point x="28" y="349" type="curve" smooth="yes"/>
      <point x="28" y="256"/>
      <point x="27" y="158"/>
      <point x="21" y="17" type="curve"/>
      <point x="21" y="-6" type="line"/>
      <point x="89" y="-7"/>
      <point x="158" y="-7"/>
      <point x="204" y="-7" type="curve" smooth="yes"/>
      <point x="302" y="-7"/>
      <point x="356" y="-6"/>
      <point x="387" y="-5" type="curve" smooth="yes"/>
      <point x="408" y="-4"/>
      <point x="420" y="-4"/>
      <point x="429" y="-5" type="curve"/>
      <point x="436" y="-5" type="line"/>
      <point x="465" y="-5"/>
      <point x="474" y="-5"/>
      <point x="474" y="37" type="curve" smooth="yes"/>
      <point x="474" y="45"/>
      <point x="474" y="60"/>
      <point x="473" y="72" type="curve" smooth="yes"/>
      <point x="473" y="78"/>
      <point x="472" y="84"/>
    </contour>
  </outline>
</glyph>
<glyph name="P" format="1">
  <advance width="497"/>
  <unicode hex="0050"/>
  <outline>
    <contour>
      <point x="499" y="491" type="line"/>
      <point x="490" y="662"/>
      <point x="334" y="719"/>
      <point x="183" y="719" type="curve" smooth="yes"/>
      <point x="129" y="719"/>
      <point x="71" y="711"/>
      <point x="22" y="697" type="curve"/>
      <point x="25" y="623"/>
      <point x="25" y="541"/>
      <point x="25" y="460" type="curve"/>
      <point x="25" y="339" type="line"/>
      <point x="25" y="219"/>
      <point x="25" y="99"/>
      <point x="29" y="2" type="curve"/>
      <point x="54" y="-1"/>
      <point x="90" y="-3"/>
      <point x="121" y="-3" type="curve" smooth="yes"/>
      <point x="158" y="-3"/>
      <point x="195" y="-1"/>
      <point x="215" y="5" type="curve" smooth="yes"/>
      <point x="217" y="5"/>
      <point x="224" y="6"/>
      <point x="226" y="6" type="curve"/>
      <point x="226" y="209" type="line"/>
      <point x="226" y="229"/>
      <point x="227" y="243"/>
      <point x="226" y="255" type="curve"/>
      <point x="233" y="254"/>
      <point x="239" y="255"/>
      <point x="246" y="255" type="curve" smooth="yes"/>
      <point x="369" y="255"/>
      <point x="483" y="346"/>
      <point x="498" y="463" type="curve" smooth="yes"/>
      <point x="499" y="471"/>
      <point x="499" y="480"/>
      <point x="499" y="490" type="curve"/>
    </contour>
    <contour>
      <point x="309" y="526" type="line"/>
      <point x="318" y="513"/>
      <point x="325" y="498"/>
      <point x="325" y="476" type="curve" smooth="yes"/>
      <point x="325" y="462"/>
      <point x="321" y="447"/>
      <point x="315" y="437" type="curve"/>
      <point x="295" y="407"/>
      <point x="253" y="412"/>
      <point x="221" y="411" type="curve"/>
      <point x="207" y="411" type="line"/>
      <point x="199" y="433"/>
      <point x="199" y="465"/>
      <point x="199" y="495" type="curve"/>
      <point x="199" y="504" type="line"/>
      <point x="199" y="522"/>
      <point x="199" y="542"/>
      <point x="198" y="558" type="curve"/>
      <point x="234" y="556"/>
      <point x="271" y="561"/>
      <point x="301" y="535" type="curve"/>
    </contour>
  </outline>
</glyph>
<glyph name="Q" format="1">
  <advance width="495"/>
  <unicode hex="0051"/>
  <outline>
    <contour>
      <point x="471" y="164" type="line"/>
      <point x="476" y="185"/>
      <point x="477" y="209"/>
      <point x="478" y="231" type="curve" smooth="yes"/>
      <point x="478" y="242"/>
      <point x="479" y="253"/>
      <point x="480" y="264" type="curve" smooth="yes"/>
      <point x="483" y="304"/>
      <point x="483" y="327"/>
      <point x="483" y="368" type="curve" smooth="yes"/>
      <point x="483" y="449"/>
      <point x="478" y="530"/>
      <point x="457" y="594" type="curve"/>
      <point x="407" y="714"/>
      <point x="355" y="719"/>
      <point x="253" y="719" type="curve" smooth="yes"/>
      <point x="143" y="719"/>
      <point x="57" y="677"/>
      <point x="37" y="619" type="curve"/>
      <point x="18" y="550"/>
      <point x="15" y="468"/>
      <point x="15" y="391" type="curve"/>
      <point x="15" y="252" type="line"/>
      <point x="15" y="174"/>
      <point x="21" y="104"/>
      <point x="80" y="50" type="curve" smooth="yes"/>
      <point x="119" y="13"/>
      <point x="157" y="-5"/>
      <point x="230" y="-11" type="curve" smooth="yes"/>
      <point x="268" y="-14"/>
      <point x="313" y="-4"/>
      <point x="337" y="10" type="curve"/>
      <point x="348" y="-1"/>
      <point x="366" y="-13"/>
      <point x="377" y="-13" type="curve" smooth="yes"/>
      <point x="398" y="-13"/>
      <point x="418" y="0"/>
      <point x="431" y="8" type="curve"/>
      <point x="448" y="21"/>
      <point x="462" y="30"/>
      <point x="462" y="48" type="curve" smooth="yes"/>
      <point x="462" y="55"/>
      <point x="454" y="64"/>
      <point x="444" y="76" type="curve" smooth="yes"/>
      <point x="443" y="77"/>
      <point x="442" y="78"/>
      <point x="441" y="80" type="curve"/>
      <point x="454" y="107"/>
      <point x="463" y="128"/>
      <point x="466" y="138" type="curve" smooth="yes"/>
      <point x="470" y="149"/>
      <point x="470" y="156"/>
      <point x="471" y="162" type="curve"/>
    </contour>
    <contour>
      <point x="332" y="205" type="move"/>
    </contour>
    <contour>
      <point x="294" y="237" type="curve"/>
      <point x="274" y="237"/>
      <point x="265" y="230"/>
      <point x="258" y="223" type="curve"/>
      <point x="244" y="210"/>
      <point x="238" y="206"/>
      <point x="235" y="205" type="curve" smooth="yes"/>
      <point x="234" y="204"/>
      <point x="234" y="205"/>
      <point x="234" y="205" type="curve"/>
      <point x="222" y="198"/>
      <point x="211" y="191"/>
      <point x="211" y="179" type="curve" smooth="yes"/>
      <point x="211" y="167"/>
      <point x="220" y="153"/>
      <point x="229" y="142" type="curve" smooth="yes"/>
      <point x="234" y="137"/>
      <point x="242" y="129"/>
      <point x="245" y="125" type="curve"/>
      <point x="251" y="120" type="line"/>
      <point x="218" y="120"/>
      <point x="189" y="135"/>
      <point x="175" y="173" type="curve"/>
      <point x="175" y="172" type="line"/>
      <point x="169" y="194"/>
      <point x="167" y="231"/>
      <point x="167" y="265" type="curve" smooth="yes"/>
      <point x="167" y="275"/>
      <point x="168" y="285"/>
      <point x="168" y="294" type="curve"/>
      <point x="168" y="317" type="line"/>
      <point x="168" y="343" type="line"/>
      <point x="168" y="399"/>
      <point x="170" y="432"/>
      <point x="175" y="488" type="curve"/>
      <point x="179" y="552"/>
      <point x="187" y="560"/>
      <point x="250" y="560" type="curve" smooth="yes"/>
      <point x="302" y="560"/>
      <point x="317" y="529"/>
      <point x="321" y="483" type="curve" smooth="yes"/>
      <point x="326" y="435"/>
      <point x="328" y="407"/>
      <point x="328" y="361" type="curve"/>
      <point x="328" y="286" type="line"/>
      <point x="327" y="247" type="line"/>
      <point x="327" y="236"/>
      <point x="327" y="228"/>
      <point x="326" y="217" type="curve"/>
      <point x="325" y="223"/>
      <point x="316" y="237"/>
    </contour>
  </outline>
</glyph>
<glyph name="R" format="1">
  <advance width="518"/>
  <unicode hex="0052"/>
  <outline>
    <contour>
      <point x="533" y="-2" type="line"/>
      <point x="509" y="63"/>
      <point x="469" y="124"/>
      <point x="428" y="186" type="curve"/>
      <point x="424" y="190"/>
      <point x="420" y="197"/>
      <point x="417" y="202" type="curve" smooth="yes"/>
      <point x="396" y="233"/>
      <point x="373" y="268"/>
      <point x="349" y="310" type="curve"/>
      <point x="338" y="310" type="line"/>
      <point x="338" y="300" type="line"/>
      <point x="343" y="301" type="line"/>
      <point x="413" y="305"/>
      <point x="460" y="344"/>
      <point x="486" y="391" type="curve" smooth="yes"/>
      <point x="506" y="427"/>
      <point x="518" y="464"/>
      <point x="518" y="498" type="curve" smooth="yes"/>
      <point x="518" y="603"/>
      <point x="415" y="703"/>
      <point x="298" y="718" type="curve" smooth="yes"/>
      <point x="275" y="721"/>
      <point x="247" y="722"/>
      <point x="223" y="722" type="curve" smooth="yes"/>
      <point x="161" y="722"/>
      <point x="97" y="713"/>
      <point x="44" y="706" type="curve" smooth="yes"/>
      <point x="36" y="705"/>
      <point x="24" y="703"/>
      <point x="17" y="702" type="curve"/>
      <point x="25" y="654"/>
      <point x="29" y="367"/>
      <point x="29" y="176" type="curve" smooth="yes"/>
      <point x="29" y="72"/>
      <point x="31" y="-5"/>
      <point x="40" y="-5" type="curve"/>
      <point x="73" y="-5" type="line"/>
      <point x="93" y="-5" type="line"/>
      <point x="101" y="-5"/>
      <point x="109" y="-6"/>
      <point x="117" y="-6" type="curve" smooth="yes"/>
      <point x="157" y="-6"/>
      <point x="199" y="-4"/>
      <point x="229" y="10" type="curve"/>
      <point x="229" y="16"/>
      <point x="229" y="27"/>
      <point x="228" y="34" type="curve"/>
      <point x="228" y="33" type="line"/>
      <point x="225" y="75"/>
      <point x="221" y="139"/>
      <point x="221" y="193" type="curve"/>
      <point x="221" y="219" type="line"/>
      <point x="269" y="150"/>
      <point x="313" y="52"/>
      <point x="337" y="-3" type="curve"/>
      <point x="340" y="-3"/>
      <point x="349" y="-4"/>
      <point x="354" y="-4" type="curve" smooth="yes"/>
      <point x="368" y="-5"/>
      <point x="385" y="-6"/>
      <point x="396" y="-6" type="curve" smooth="yes"/>
      <point x="419" y="-6"/>
      <point x="442" y="-5"/>
      <point x="463" y="-4" type="curve" smooth="yes"/>
      <point x="484" y="-3"/>
      <point x="501" y="-2"/>
      <point x="517" y="-2" type="curve"/>
    </contour>
    <contour>
      <point x="237" y="564" type="line"/>
      <point x="253" y="564"/>
      <point x="274" y="564"/>
      <point x="294" y="552" type="curve" smooth="yes"/>
      <point x="309" y="543"/>
      <point x="314" y="521"/>
      <point x="314" y="499" type="curve" smooth="yes"/>
      <point x="314" y="471"/>
      <point x="304" y="446"/>
      <point x="284" y="441" type="curve"/>
      <point x="271" y="439"/>
      <point x="253" y="438"/>
      <point x="241" y="438" type="curve" smooth="yes"/>
      <point x="224" y="438"/>
      <point x="216" y="438"/>
      <point x="199" y="440" type="curve"/>
      <point x="196" y="452"/>
      <point x="196" y="480"/>
      <point x="196" y="506" type="curve" smooth="yes"/>
      <point x="196" y="526"/>
      <point x="195" y="542"/>
      <point x="194" y="557" type="curve"/>
    </contour>
  </outline>
</glyph>
<glyph name="U" format="1">
  <advance width="505"/>
  <unicode hex="0055"/>
  <outline>
    <contour>
      <point x="476" y="674" type="line"/>
      <point x="462" y="682"/>
      <point x="440" y="684"/>
      <point x="416" y="684" type="curve" smooth="yes"/>
      <point x="403" y="685"/>
      <point x="344" y="678"/>
      <point x="329" y="678" type="curve" smooth="yes"/>
      <point x="321" y="677"/>
      <point x="308" y="675"/>
      <point x="308" y="675" type="curve"/>
      <point x="307" y="633"/>
      <point x="306" y="587"/>
      <point x="306" y="543" type="curve" smooth="yes"/>
      <point x="306" y="522"/>
      <point x="305" y="501"/>
      <point x="305" y="479" type="curve" smooth="yes"/>
      <point x="304" y="384"/>
      <point x="303" y="282"/>
      <point x="299" y="188" type="curve"/>
      <point x="299" y="189" type="line"/>
      <point x="292" y="161"/>
      <point x="270" y="143"/>
      <point x="250" y="143" type="curve" smooth="yes"/>
      <point x="232" y="143"/>
      <point x="214" y="157"/>
      <point x="206" y="184" type="curve"/>
      <point x="206" y="183" type="line"/>
      <point x="198" y="291"/>
      <point x="193" y="398"/>
      <point x="193" y="504" type="curve" smooth="yes"/>
      <point x="193" y="561"/>
      <point x="195" y="620"/>
      <point x="197" y="676" type="curve"/>
      <point x="170" y="684"/>
      <point x="139" y="687"/>
      <point x="111" y="687" type="curve" smooth="yes"/>
      <point x="68" y="686"/>
      <point x="59" y="685"/>
      <point x="51" y="685" type="curve"/>
      <point x="26" y="685" type="line"/>
      <point x="27" y="654"/>
      <point x="27" y="618"/>
      <point x="27" y="588" type="curve" smooth="yes"/>
      <point x="27" y="540"/>
      <point x="26" y="484"/>
      <point x="25" y="431" type="curve" smooth="yes"/>
      <point x="25" y="414"/>
      <point x="24" y="382"/>
      <point x="24" y="366" type="curve" smooth="yes"/>
      <point x="23" y="293"/>
      <point x="22" y="219"/>
      <point x="22" y="147" type="curve"/>
      <point x="27" y="32"/>
      <point x="149" y="-21"/>
      <point x="262" y="-21" type="curve" smooth="yes"/>
      <point x="274" y="-21"/>
      <point x="286" y="-20"/>
      <point x="295" y="-19" type="curve"/>
      <point x="294" y="-19" type="line"/>
      <point x="397" y="-9"/>
      <point x="461" y="61"/>
      <point x="472" y="150" type="curve"/>
      <point x="484" y="258"/>
      <point x="489" y="367"/>
      <point x="489" y="476" type="curve" smooth="yes"/>
      <point x="489" y="541"/>
      <point x="487" y="610"/>
      <point x="484" y="674" type="curve"/>
    </contour>
  </outline>
</glyph>
<glyph name="V" format="1">
  <advance width="440"/>
  <unicode hex="0056"/>
  <outline>
    <contour>
      <point x="448" y="689" type="line"/>
      <point x="427" y="693"/>
      <point x="400" y="693"/>
      <point x="377" y="693" type="curve" smooth="yes"/>
      <point x="352" y="693"/>
      <point x="327" y="693"/>
      <point x="288" y="701" type="curve"/>
      <point x="274" y="655"/>
      <point x="229" y="367"/>
      <point x="211" y="290" type="curve"/>
      <point x="185" y="432"/>
      <point x="181" y="581"/>
      <point x="172" y="694" type="curve"/>
      <point x="155" y="697"/>
      <point x="126" y="701"/>
      <point x="100" y="701" type="curve" smooth="yes"/>
      <point x="58" y="701"/>
      <point x="14" y="695"/>
      <point x="1" y="681" type="curve"/>
      <point x="20" y="449"/>
      <point x="57" y="220"/>
      <point x="118" y="4" type="curve"/>
      <point x="150" y="-7"/>
      <point x="186" y="-8"/>
      <point x="216" y="-8" type="curve" smooth="yes"/>
      <point x="230" y="-8"/>
      <point x="244" y="-7"/>
      <point x="253" y="-6" type="curve" smooth="yes"/>
      <point x="256" y="-6"/>
      <point x="260" y="-5"/>
      <point x="263" y="-5" type="curve" smooth="yes"/>
      <point x="271" y="-4"/>
      <point x="284" y="-4"/>
      <point x="293" y="-4" type="curve"/>
      <point x="357" y="229"/>
      <point x="415" y="445"/>
      <point x="461" y="689" type="curve"/>
    </contour>
  </outline>
</glyph>
<glyph name="X" format="1">
  <advance width="436"/>
  <unicode hex="0058"/>
  <outline>
    <contour>
      <point x="454" y="704" type="line"/>
      <point x="350" y="704"/>
      <point x="307" y="702"/>
      <point x="272" y="700" type="curve"/>
      <point x="228" y="545"/>
      <point x="223" y="524"/>
      <point x="217" y="506" type="curve"/>
      <point x="210" y="518"/>
      <point x="170" y="672"/>
      <point x="164" y="697" type="curve"/>
      <point x="75" y="698"/>
      <point x="25" y="695"/>
      <point x="-18" y="692" type="curve"/>
      <point x="31" y="582"/>
      <point x="73" y="464"/>
      <point x="98" y="347" type="curve"/>
      <point x="98" y="334"/>
      <point x="4" y="37"/>
      <point x="-6" y="8" type="curve"/>
      <point x="54" y="-10"/>
      <point x="104" y="-2"/>
      <point x="158" y="-2" type="curve"/>
      <point x="168" y="13"/>
      <point x="216" y="178"/>
      <point x="221" y="194" type="curve"/>
      <point x="252" y="76"/>
      <point x="260" y="37"/>
      <point x="275" y="4" type="curve"/>
      <point x="332" y="-12"/>
      <point x="388" y="1"/>
      <point x="441" y="-5" type="curve"/>
      <point x="413" y="108"/>
      <point x="369" y="226"/>
      <point x="346" y="341" type="curve"/>
    </contour>
  </outline>
</glyph>
<glyph name="Y" format="1">
  <advance width="435"/>
  <unicode hex="0059"/>
  <outline>
    <contour>
      <point x="460" y="697" type="curve"/>
      <point x="405" y="706"/>
      <point x="346" y="700"/>
      <point x="293" y="690" type="curve"/>
      <point x="285" y="675"/>
      <point x="235" y="517"/>
      <point x="227" y="501" type="curve"/>
      <point x="205" y="557"/>
      <point x="177" y="640"/>
      <point x="164" y="691" type="curve"/>
      <point x="115" y="717"/>
      <point x="56" y="694"/>
      <point x="0" y="697" type="curve"/>
      <point x="29" y="577"/>
      <point x="96" y="468"/>
      <point x="127" y="348" type="curve"/>
      <point x="83" y="233"/>
      <point x="29" y="104"/>
      <point x="-6" y="-4" type="curve"/>
      <point x="61" y="-13"/>
      <point x="103" y="2"/>
      <point x="169" y="-7" type="curve"/>
      <point x="251" y="241"/>
      <point x="393" y="448"/>
    </contour>
  </outline>
</glyph>
<glyph name="Z" format="1">
  <advance width="474"/>
  <unicode hex="005A"/>
  <outline>
    <contour>
      <point x="466" y="532" type="curve"/>
      <point x="466" y="570"/>
      <point x="468" y="612"/>
      <point x="468" y="649" type="curve" smooth="yes"/>
      <point x="468" y="662"/>
      <point x="468" y="676"/>
      <point x="465" y="699" type="curve"/>
      <point x="305" y="699"/>
      <point x="158" y="710"/>
      <point x="-2" y="694" type="curve"/>
      <point x="0" y="687"/>
      <point x="6" y="648"/>
      <point x="6" y="615" type="curve" smooth="yes"/>
      <point x="6" y="589"/>
      <point x="6" y="564"/>
      <point x="18" y="543" type="curve"/>
      <point x="69" y="543"/>
      <point x="192" y="540"/>
      <point x="252" y="532" type="curve"/>
      <point x="255" y="534"/>
      <point x="249" y="526"/>
      <point x="245" y="520" type="curve" smooth="yes"/>
      <point x="162" y="409"/>
      <point x="64" y="275"/>
      <point x="10" y="159" type="curve"/>
      <point x="14" y="113"/>
      <point x="5" y="18"/>
      <point x="21" y="-7" type="curve"/>
      <point x="85" y="-3"/>
      <point x="162" y="-1"/>
      <point x="224" y="-1" type="curve" smooth="yes"/>
      <point x="300" y="-1"/>
      <point x="388" y="-4"/>
      <point x="458" y="-8" type="curve"/>
      <point x="462" y="44"/>
      <point x="469" y="108"/>
      <point x="459" y="165" type="curve"/>
      <point x="378" y="165"/>
      <point x="270" y="166"/>
      <point x="212" y="158" type="curve"/>
      <point x="291" y="277"/>
      <point x="396" y="416"/>
    </contour>
  </outline>
</glyph>
<glyph name="bracketleft" format="1">
  <advance width="321"/>
  <unicode hex="005B"/>
  <outline>
    <contour>
      <point x="309" y="-4" type="line"/>
      <point x="310" y="9"/>
      <point x="310" y="26"/>
      <point x="310" y="39" type="curve" smooth="yes"/>
      <point x="310" y="70"/>
      <point x="308" y="105"/>
      <point x="306" y="135" type="curve"/>
      <point x="300" y="136"/>
      <point x="288" y="137"/>
      <point x="279" y="138" type="curve" smooth="yes"/>
      <point x="272" y="138"/>
      <point x="263" y="139"/>
      <point x="258" y="139" type="curve" smooth="yes"/>
      <point x="199" y="137" type="line"/>
      <point x="199" y="178"/>
      <point x="197" y="241"/>
      <point x="195" y="289" type="curve" smooth="yes"/>
      <point x="193" y="344"/>
      <point x="191" y="402"/>
      <point x="191" y="458" type="curve" smooth="yes"/>
      <point x="191" y="499"/>
      <point x="191" y="543"/>
      <point x="195" y="581" type="curve"/>
      <point x="210" y="580"/>
      <point x="220" y="581"/>
      <point x="233" y="582" type="curve"/>
      <point x="238" y="582" type="line"/>
      <point x="247" y="583"/>
      <point x="257" y="583"/>
      <point x="268" y="583" type="curve" smooth="yes"/>
      <point x="278" y="583"/>
      <point x="289" y="583"/>
      <point x="300" y="582" type="curve"/>
      <point x="312" y="607"/>
      <point x="312" y="640"/>
      <point x="312" y="675" type="curve"/>
      <point x="312" y="684" type="line"/>
      <point x="312" y="713" type="line"/>
      <point x="255" y="707"/>
      <point x="236" y="709"/>
      <point x="185" y="711" type="curve" smooth="yes"/>
      <point x="179" y="711"/>
      <point x="167" y="712"/>
      <point x="161" y="712" type="curve" smooth="yes"/>
      <point x="117" y="715"/>
      <point x="87" y="716"/>
      <point x="38" y="708" type="curve"/>
      <point x="30" y="589"/>
      <point x="28" y="462"/>
      <point x="28" y="338" type="curve"/>
      <point x="28" y="-8" type="line"/>
    </contour>
  </outline>
</glyph>
<glyph name="backslash" format="1">
  <advance width="412"/>
  <unicode hex="005C"/>
  <outline>
    <contour>
      <point x="248" y="3" type="line"/>
      <point x="267" y="-5"/>
      <point x="278" y="-5"/>
      <point x="298" y="-5" type="curve" smooth="yes"/>
      <point x="316" y="-5"/>
      <point x="343" y="-5"/>
      <point x="389" y="-6" type="curve" smooth="yes"/>
      <point x="412" y="-6"/>
      <point x="397" y="40"/>
      <point x="385" y="70" type="curve" smooth="yes"/>
      <point x="389" y="62"/>
      <point x="384" y="76"/>
      <point x="382" y="81" type="curve" smooth="yes"/>
      <point x="381" y="83"/>
      <point x="378" y="89"/>
      <point x="377" y="92" type="curve"/>
      <point x="378" y="91" type="line"/>
      <point x="370" y="117"/>
      <point x="359" y="147"/>
      <point x="346" y="180" type="curve"/>
      <point x="343" y="192"/>
      <point x="333" y="222"/>
      <point x="252" y="440" type="curve"/>
      <point x="244" y="459"/>
      <point x="238" y="476"/>
      <point x="234" y="491" type="curve" smooth="yes"/>
      <point x="227" y="513"/>
      <point x="222" y="533"/>
      <point x="214" y="555" type="curve"/>
      <point x="211" y="560"/>
      <point x="184" y="636"/>
      <point x="164" y="717" type="curve"/>
      <point x="133" y="711"/>
      <point x="113" y="712"/>
      <point x="93" y="713" type="curve" smooth="yes"/>
      <point x="63" y="714"/>
      <point x="33" y="715"/>
      <point x="5" y="701" type="curve"/>
      <point x="5" y="701"/>
      <point x="7" y="694"/>
      <point x="8" y="690" type="curve" smooth="yes"/>
      <point x="11" y="678"/>
      <point x="19" y="650"/>
      <point x="27" y="625" type="curve"/>
      <point x="27" y="626" type="line"/>
      <point x="36" y="596" type="line"/>
      <point x="39" y="585"/>
      <point x="42" y="573"/>
      <point x="46" y="561" type="curve" smooth="yes"/>
      <point x="78" y="471"/>
      <point x="86" y="448"/>
      <point x="93" y="426" type="curve" smooth="yes"/>
      <point x="100" y="406"/>
      <point x="108" y="382"/>
      <point x="114" y="362" type="curve" smooth="yes"/>
      <point x="116" y="357"/>
      <point x="116" y="354"/>
      <point x="118" y="350" type="curve" smooth="yes"/>
      <point x="134" y="305"/>
      <point x="151" y="254"/>
      <point x="168" y="209" type="curve" smooth="yes"/>
      <point x="175" y="189"/>
      <point x="182" y="169"/>
      <point x="190" y="149" type="curve"/>
    </contour>
  </outline>
</glyph>
<glyph name="underscore" format="1">
  <advance width="650"/>
  <unicode hex="005F"/>
  <outline>
    <contour>
      <point x="26" y="-37" type="line"/>
      <point x="26" y="-54"/>
      <point x="26" y="-99"/>
      <point x="27" y="-124" type="curve" smooth="yes"/>
      <point x="27" y="-132"/>
      <point x="28" y="-139"/>
      <point x="28" y="-143" type="curve"/>
      <point x="28" y="-153" type="line"/>
      <point x="114" y="-153" type="line"/>
      <point x="257" y="-154"/>
      <point x="586" y="-155"/>
      <point x="622" y="-155" type="curve"/>
      <point x="622" y="-146"/>
      <point x="621" y="-134"/>
      <point x="621" y="-127" type="curve"/>
      <point x="621" y="-113" type="line"/>
      <point x="620" y="-90"/>
      <point x="621" y="-76"/>
      <point x="627" y="-32" type="curve"/>
      <point x="623" y="-32"/>
      <point x="594" y="-33"/>
      <point x="561" y="-33" type="curve" smooth="yes"/>
      <point x="508" y="-34"/>
      <point x="400" y="-34"/>
      <point x="325" y="-35" type="curve"/>
      <point x="293" y="-35" type="line"/>
      <point x="167" y="-36"/>
      <point x="51" y="-37"/>
      <point x="41" y="-37" type="curve"/>
    </contour>
  </outline>
</glyph>
<glyph name="a" format="1">
  <advance width="476"/>
  <unicode hex="0061"/>
  <outline>
    <contour>
      <point x="440" y="503" type="line"/>
      <point x="416" y="504"/>
      <point x="395" y="505"/>
      <point x="377" y="506" type="curve" smooth="yes"/>
      <point x="382" y="506"/>
      <point x="281" y="515"/>
      <point x="278" y="510" type="curve" smooth="yes"/>
      <point x="274" y="503"/>
      <point x="279" y="494"/>
      <point x="279" y="485" type="curve"/>
      <point x="270" y="494"/>
      <point x="228" y="502"/>
      <point x="187" y="502" type="curve"/>
      <point x="84" y="499"/>
      <point x="4" y="401"/>
      <point x="4" y="266" type="curve" smooth="yes"/>
      <point x="4" y="157"/>
      <point x="52" y="-7"/>
      <point x="166" y="-7" type="curve" smooth="yes"/>
      <point x="204" y="-7"/>
      <point x="246" y="7"/>
      <point x="279" y="28" type="curve"/>
      <point x="279" y="27"/>
      <point x="279" y="29"/>
      <point x="279" y="21" type="curve" smooth="yes"/>
      <point x="279" y="9"/>
      <point x="285" y="-1"/>
      <point x="302" y="-6" type="curve"/>
      <point x="429" y="-6" type="line"/>
      <point x="454" y="-1"/>
      <point x="454" y="14"/>
      <point x="454" y="30" type="curve"/>
      <point x="454" y="40" type="line"/>
      <point x="456" y="81"/>
      <point x="457" y="121"/>
      <point x="457" y="161" type="curve" smooth="yes"/>
      <point x="457" y="181"/>
      <point x="456" y="201"/>
      <point x="456" y="221" type="curve"/>
      <point x="456" y="281" type="line"/>
      <point x="455" y="316"/>
      <point x="455" y="351"/>
      <point x="455" y="386" type="curve" smooth="yes"/>
      <point x="455" y="412"/>
      <point x="455" y="438"/>
      <point x="456" y="464" type="curve"/>
      <point x="456" y="479"/>
      <point x="454" y="491"/>
      <point x="453" y="503" type="curve"/>
    </contour>
    <contour>
      <point x="163" y="298" type="curve"/>
      <point x="170" y="329"/>
      <point x="196" y="358"/>
      <point x="241" y="358" type="curve" smooth="yes"/>
      <point x="278" y="358"/>
      <point x="278" y="349"/>
      <point x="278" y="273" type="curve"/>
      <point x="278" y="247" type="line"/>
      <point x="278" y="182"/>
      <point x="278" y="143"/>
      <point x="231" y="143" type="curve" smooth="yes"/>
      <point x="184" y="143"/>
      <point x="157" y="189"/>
      <point x="157" y="246" type="curve" smooth="yes"/>
      <point x="157" y="262"/>
      <point x="158" y="281"/>
    </contour>
  </outline>
</glyph>
<glyph name="c" format="1">
  <advance width="442"/>
  <unicode hex="0063"/>
  <outline>
    <contour>
      <point x="424" y="197" type="line"/>
      <point x="415" y="199"/>
      <point x="401" y="200"/>
      <point x="386" y="200" type="curve" smooth="yes"/>
      <point x="379" y="200"/>
      <point x="371" y="199"/>
      <point x="364" y="199" type="curve"/>
      <point x="342" y="199" type="line"/>
      <point x="325" y="198"/>
      <point x="303" y="198"/>
      <point x="280" y="201" type="curve"/>
      <point x="276" y="181"/>
      <point x="268" y="153"/>
      <point x="261" y="145" type="curve"/>
      <point x="252" y="140"/>
      <point x="237" y="135"/>
      <point x="224" y="135" type="curve" smooth="yes"/>
      <point x="196" y="135"/>
      <point x="167" y="149"/>
      <point x="170" y="186" type="curve" smooth="yes"/>
      <point x="171" y="201"/>
      <point x="172" y="227"/>
      <point x="172" y="242" type="curve" smooth="yes"/>
      <point x="172" y="263"/>
      <point x="173" y="294"/>
      <point x="176" y="315" type="curve" smooth="yes"/>
      <point x="178" y="325"/>
      <point x="183" y="335"/>
      <point x="187" y="339" type="curve" smooth="yes"/>
      <point x="193" y="346"/>
      <point x="200" y="350"/>
      <point x="209" y="353" type="curve"/>
      <point x="208" y="353" type="line"/>
      <point x="248" y="363"/>
      <point x="275" y="335"/>
      <point x="282" y="291" type="curve"/>
      <point x="288" y="290"/>
      <point x="297" y="289"/>
      <point x="304" y="288" type="curve" smooth="yes"/>
      <point x="329" y="285"/>
      <point x="359" y="281"/>
      <point x="386" y="281" type="curve" smooth="yes"/>
      <point x="399" y="281"/>
      <point x="417" y="283"/>
      <point x="438" y="287" type="curve"/>
      <point x="438" y="291"/>
      <point x="437" y="298"/>
      <point x="437" y="302" type="curve"/>
      <point x="437" y="313" type="line"/>
      <point x="435" y="386"/>
      <point x="430" y="444"/>
      <point x="393" y="473" type="curve"/>
      <point x="365" y="499"/>
      <point x="320" y="512"/>
      <point x="275" y="516" type="curve"/>
      <point x="264" y="518"/>
      <point x="244" y="517"/>
      <point x="233" y="516" type="curve" smooth="yes"/>
      <point x="225" y="516"/>
      <point x="202" y="516"/>
      <point x="197" y="517" type="curve"/>
      <point x="126" y="517"/>
      <point x="51" y="499"/>
      <point x="31" y="456" type="curve"/>
      <point x="31" y="455"/>
      <point x="31" y="455"/>
      <point x="32" y="456" type="curve" smooth="yes"/>
      <point x="31" y="454"/>
      <point x="27" y="445"/>
      <point x="26" y="443" type="curve" smooth="yes"/>
      <point x="21" y="430"/>
      <point x="15" y="408"/>
      <point x="14" y="396" type="curve"/>
      <point x="10" y="374"/>
      <point x="8" y="346"/>
      <point x="8" y="322" type="curve"/>
      <point x="11" y="297"/>
      <point x="11" y="267"/>
      <point x="11" y="238" type="curve"/>
      <point x="11" y="207" type="line"/>
      <point x="11" y="143"/>
      <point x="20" y="75"/>
      <point x="65" y="31" type="curve"/>
      <point x="88" y="10"/>
      <point x="120" y="-7"/>
      <point x="158" y="-14" type="curve"/>
      <point x="173" y="-14"/>
      <point x="191" y="-15"/>
      <point x="207" y="-16" type="curve" smooth="yes"/>
      <point x="224" y="-17"/>
      <point x="243" y="-18"/>
      <point x="260" y="-18" type="curve" smooth="yes"/>
      <point x="318" y="-18"/>
      <point x="376" y="-9"/>
      <point x="405" y="32" type="curve"/>
      <point x="425" y="55"/>
      <point x="431" y="126"/>
      <point x="436" y="197" type="curve"/>
    </contour>
  </outline>
</glyph>
<glyph name="f" format="1">
  <advance width="379"/>
  <unicode hex="0066"/>
  <outline>
    <contour>
      <point x="231" y="2" type="line"/>
      <point x="231" y="351" type="line"/>
      <point x="262" y="350"/>
      <point x="282" y="349"/>
      <point x="323" y="346" type="curve" smooth="yes"/>
      <point x="325" y="346"/>
      <point x="328" y="345"/>
      <point x="331" y="345" type="curve" smooth="yes"/>
      <point x="345" y="344"/>
      <point x="369" y="343"/>
      <point x="382" y="342" type="curve"/>
      <point x="382" y="351" type="line"/>
      <point x="382" y="353"/>
      <point x="383" y="354"/>
      <point x="383" y="356" type="curve" smooth="yes"/>
      <point x="387" y="392"/>
      <point x="387" y="401"/>
      <point x="387" y="427" type="curve"/>
      <point x="387" y="448" type="line"/>
      <point x="387" y="460"/>
      <point x="387" y="464"/>
      <point x="389" y="478" type="curve"/>
      <point x="234" y="478" type="line"/>
      <point x="229" y="507"/>
      <point x="232" y="532"/>
      <point x="252" y="536" type="curve"/>
      <point x="251" y="536" type="line"/>
      <point x="256" y="536"/>
      <point x="259" y="537"/>
      <point x="262" y="538" type="curve"/>
      <point x="261" y="538" type="line"/>
      <point x="265" y="539"/>
      <point x="272" y="539"/>
      <point x="276" y="540" type="curve" smooth="yes"/>
      <point x="311" y="545"/>
      <point x="354" y="550"/>
      <point x="389" y="547" type="curve"/>
      <point x="389" y="550"/>
      <point x="390" y="556"/>
      <point x="390" y="559" type="curve" smooth="yes"/>
      <point x="393" y="580"/>
      <point x="396" y="609"/>
      <point x="396" y="634" type="curve" smooth="yes"/>
      <point x="396" y="652"/>
      <point x="395" y="669"/>
      <point x="387" y="692" type="curve"/>
      <point x="374" y="693"/>
      <point x="347" y="694"/>
      <point x="333" y="694" type="curve" smooth="yes"/>
      <point x="281" y="694"/>
      <point x="225" y="689"/>
      <point x="181" y="674" type="curve"/>
      <point x="95" y="641"/>
      <point x="65" y="545"/>
      <point x="68" y="481" type="curve"/>
      <point x="54" y="482"/>
      <point x="45" y="481"/>
      <point x="29" y="481" type="curve"/>
      <point x="-4" y="481" type="line"/>
      <point x="-1" y="349" type="line"/>
      <point x="20" y="350"/>
      <point x="50" y="350"/>
      <point x="70" y="350" type="curve"/>
      <point x="70" y="334" type="line"/>
      <point x="70" y="322"/>
      <point x="69" y="306"/>
      <point x="69" y="289" type="curve"/>
      <point x="69" y="219" type="line"/>
      <point x="69" y="192"/>
      <point x="68" y="163"/>
      <point x="68" y="136" type="curve" smooth="yes"/>
      <point x="68" y="78"/>
      <point x="69" y="21"/>
      <point x="73" y="-3" type="curve"/>
      <point x="84" y="-4"/>
      <point x="95" y="-5"/>
      <point x="110" y="-5" type="curve" smooth="yes"/>
      <point x="122" y="-5"/>
      <point x="137" y="-4"/>
      <point x="148" y="-3" type="curve" smooth="yes"/>
      <point x="150" y="-3"/>
      <point x="151" y="-2"/>
      <point x="153" y="-2" type="curve" smooth="yes"/>
      <point x="163" y="-1"/>
      <point x="173" y="0"/>
      <point x="186" y="0" type="curve" smooth="yes"/>
      <point x="196" y="0"/>
      <point x="209" y="-1"/>
      <point x="225" y="-3" type="curve"/>
    </contour>
  </outline>
</glyph>
<glyph name="g" format="1">
  <advance width="467"/>
  <unicode hex="0067"/>
  <outline>
    <contour>
      <point x="150" y="228" type="curve"/>
      <point x="150" y="245" type="line"/>
      <point x="150" y="255"/>
      <point x="150" y="265"/>
      <point x="152" y="275" type="curve" smooth="yes"/>
      <point x="157" y="307"/>
      <point x="171" y="334"/>
      <point x="189" y="354" type="curve"/>
      <point x="189" y="353" type="line"/>
      <point x="199" y="363"/>
      <point x="215" y="369"/>
      <point x="228" y="369" type="curve" smooth="yes"/>
      <point x="245" y="369"/>
      <point x="262" y="360"/>
      <point x="271" y="338" type="curve"/>
      <point x="271" y="339" type="line"/>
      <point x="281" y="296"/>
      <point x="283" y="224"/>
      <point x="283" y="179" type="curve"/>
      <point x="283" y="180" type="line"/>
      <point x="280" y="157"/>
      <point x="276" y="127"/>
      <point x="264" y="123" type="curve" smooth="yes"/>
      <point x="253" y="119"/>
      <point x="243" y="118"/>
      <point x="234" y="118" type="curve" smooth="yes"/>
      <point x="214" y="118"/>
      <point x="192" y="125"/>
      <point x="177" y="144" type="curve" smooth="yes"/>
      <point x="159" y="166"/>
      <point x="150" y="194"/>
    </contour>
    <contour>
      <point x="431" y="-133" type="curve"/>
      <point x="443" y="-112"/>
      <point x="443" y="-93"/>
      <point x="443" y="-72" type="curve"/>
      <point x="443" y="-67" type="line"/>
      <point x="443" y="-43" type="line"/>
      <point x="447" y="49"/>
      <point x="448" y="140"/>
      <point x="448" y="227" type="curve" smooth="yes"/>
      <point x="448" y="321"/>
      <point x="447" y="417"/>
      <point x="444" y="504" type="curve"/>
      <point x="413" y="504" type="line"/>
      <point x="403" y="504"/>
      <point x="394" y="505"/>
      <point x="387" y="505" type="curve"/>
      <point x="370" y="505" type="line"/>
      <point x="364" y="505"/>
      <point x="358" y="506"/>
      <point x="353" y="506" type="curve" smooth="yes"/>
      <point x="332" y="506"/>
      <point x="308" y="505"/>
      <point x="282" y="502" type="curve"/>
      <point x="278" y="496"/>
      <point x="277" y="488"/>
      <point x="277" y="480" type="curve"/>
      <point x="253" y="498"/>
      <point x="220" y="502"/>
      <point x="188" y="502" type="curve"/>
      <point x="10" y="486"/>
      <point x="7" y="303"/>
      <point x="7" y="178" type="curve"/>
      <point x="10" y="138"/>
      <point x="16" y="99"/>
      <point x="37" y="59" type="curve"/>
      <point x="36" y="59" type="line"/>
      <point x="61" y="7"/>
      <point x="124" y="-7"/>
      <point x="182" y="-7" type="curve"/>
      <point x="190" y="-6"/>
      <point x="197" y="-6"/>
      <point x="205" y="-6" type="curve" smooth="yes"/>
      <point x="228" y="-5"/>
      <point x="258" y="-3"/>
      <point x="278" y="3" type="curve"/>
      <point x="278" y="-2"/>
      <point x="278" y="-8"/>
      <point x="279" y="-12" type="curve"/>
      <point x="279" y="-19"/>
      <point x="279" y="-36"/>
      <point x="278" y="-40" type="curve" smooth="yes"/>
      <point x="278" y="-42"/>
      <point x="277" y="-45"/>
      <point x="277" y="-46" type="curve"/>
      <point x="277" y="-49" type="line"/>
      <point x="270" y="-77"/>
      <point x="250" y="-95"/>
      <point x="233" y="-95" type="curve" smooth="yes"/>
      <point x="210" y="-95"/>
      <point x="188" y="-74"/>
      <point x="188" y="-38" type="curve"/>
      <point x="165" y="-35"/>
      <point x="128" y="-30"/>
      <point x="99" y="-30" type="curve" smooth="yes"/>
      <point x="74" y="-30"/>
      <point x="49" y="-33"/>
      <point x="30" y="-41" type="curve"/>
      <point x="27" y="-62"/>
      <point x="33" y="-103"/>
      <point x="44" y="-122" type="curve"/>
      <point x="79" y="-172"/>
      <point x="136" y="-205"/>
      <point x="205" y="-205" type="curve" smooth="yes"/>
      <point x="214" y="-205"/>
      <point x="225" y="-206"/>
      <point x="236" y="-206" type="curve"/>
      <point x="260" y="-206" type="line"/>
      <point x="278" y="-207"/>
      <point x="302" y="-207"/>
      <point x="311" y="-205" type="curve"/>
      <point x="349" y="-202"/>
      <point x="394" y="-190"/>
    </contour>
  </outline>
</glyph>
<glyph name="h" format="1">
  <advance width="448"/>
  <unicode hex="0068"/>
  <outline>
    <contour>
      <point x="182" y="469" type="line"/>
      <point x="182" y="523" type="line"/>
      <point x="182" y="551"/>
      <point x="183" y="583"/>
      <point x="183" y="614" type="curve" smooth="yes"/>
      <point x="183" y="663"/>
      <point x="182" y="710"/>
      <point x="181" y="724" type="curve"/>
      <point x="179" y="736"/>
      <point x="146" y="733"/>
      <point x="121" y="730" type="curve" smooth="yes"/>
      <point x="114" y="729"/>
      <point x="107" y="728"/>
      <point x="104" y="728" type="curve" smooth="yes"/>
      <point x="88" y="726"/>
      <point x="79" y="726"/>
      <point x="71" y="726" type="curve" smooth="yes"/>
      <point x="62" y="726"/>
      <point x="53" y="726"/>
      <point x="21" y="730" type="curve"/>
      <point x="19" y="667"/>
      <point x="19" y="572"/>
      <point x="19" y="476" type="curve" smooth="yes"/>
      <point x="19" y="401"/>
      <point x="19" y="267"/>
      <point x="20" y="187" type="curve" smooth="yes"/>
      <point x="20" y="145"/>
      <point x="21" y="106"/>
      <point x="21" y="71" type="curve"/>
      <point x="21" y="-9" type="line"/>
      <point x="43" y="-7"/>
      <point x="54" y="-7"/>
      <point x="66" y="-7" type="curve" smooth="yes"/>
      <point x="76" y="-7"/>
      <point x="86" y="-7"/>
      <point x="95" y="-8" type="curve" smooth="yes"/>
      <point x="118" y="-9"/>
      <point x="136" y="-9"/>
      <point x="175" y="1" type="curve"/>
      <point x="178" y="27"/>
      <point x="179" y="55"/>
      <point x="179" y="81" type="curve" smooth="yes"/>
      <point x="179" y="106"/>
      <point x="178" y="131"/>
      <point x="177" y="156" type="curve" smooth="yes"/>
      <point x="176" y="180"/>
      <point x="175" y="204"/>
      <point x="175" y="229" type="curve" smooth="yes"/>
      <point x="175" y="244"/>
      <point x="175" y="260"/>
      <point x="176" y="275" type="curve" smooth="yes"/>
      <point x="178" y="319"/>
      <point x="203" y="331"/>
      <point x="223" y="331" type="curve" smooth="yes"/>
      <point x="233" y="331"/>
      <point x="241" y="329"/>
      <point x="246" y="326" type="curve"/>
      <point x="252" y="321"/>
      <point x="267" y="316"/>
      <point x="270" y="250" type="curve"/>
      <point x="271" y="215"/>
      <point x="272" y="190"/>
      <point x="272" y="159" type="curve"/>
      <point x="272" y="109" type="line"/>
      <point x="272" y="68"/>
      <point x="272" y="23"/>
      <point x="274" y="-7" type="curve"/>
      <point x="321" y="-7" type="line"/>
      <point x="346" y="-8"/>
      <point x="388" y="-7"/>
      <point x="429" y="-1" type="curve"/>
      <point x="428" y="20"/>
      <point x="427" y="48"/>
      <point x="427" y="75" type="curve" smooth="yes"/>
      <point x="427" y="107"/>
      <point x="428" y="142"/>
      <point x="429" y="178" type="curve" smooth="yes"/>
      <point x="430" y="220"/>
      <point x="431" y="263"/>
      <point x="431" y="303" type="curve" smooth="yes"/>
      <point x="431" y="383"/>
      <point x="425" y="448"/>
      <point x="403" y="468" type="curve" smooth="yes"/>
      <point x="377" y="491"/>
      <point x="340" y="500"/>
      <point x="301" y="500" type="curve" smooth="yes"/>
      <point x="259" y="500"/>
      <point x="214" y="486"/>
      <point x="183" y="465" type="curve"/>
      <point x="182" y="465"/>
      <point x="183" y="464"/>
      <point x="182" y="464" type="curve"/>
    </contour>
  </outline>
</glyph>
<glyph name="k" format="1">
  <advance width="435"/>
  <unicode hex="006B"/>
  <outline>
    <contour>
      <point x="189" y="730" type="line"/>
      <point x="184" y="730"/>
      <point x="171" y="731"/>
      <point x="165" y="731" type="curve" smooth="yes"/>
      <point x="154" y="732"/>
      <point x="139" y="733"/>
      <point x="131" y="733" type="curve" smooth="yes"/>
      <point x="123" y="733"/>
      <point x="114" y="732"/>
      <point x="105" y="732" type="curve"/>
      <point x="80" y="732" type="line"/>
      <point x="64" y="731"/>
      <point x="36" y="731"/>
      <point x="23" y="731" type="curve"/>
      <point x="23" y="657"/>
      <point x="22" y="538"/>
      <point x="21" y="461" type="curve" smooth="yes"/>
      <point x="20" y="385"/>
      <point x="19" y="309"/>
      <point x="19" y="232" type="curve" smooth="yes"/>
      <point x="19" y="155"/>
      <point x="20" y="75"/>
      <point x="23" y="-3" type="curve"/>
      <point x="41" y="-6"/>
      <point x="57" y="-7"/>
      <point x="67" y="-7" type="curve" smooth="yes"/>
      <point x="82" y="-7"/>
      <point x="102" y="-6"/>
      <point x="117" y="-5" type="curve" smooth="yes"/>
      <point x="131" y="-5"/>
      <point x="172" y="-5"/>
      <point x="184" y="-6" type="curve"/>
      <point x="190" y="24"/>
      <point x="191" y="57"/>
      <point x="191" y="89" type="curve" smooth="yes"/>
      <point x="191" y="100"/>
      <point x="190" y="111"/>
      <point x="190" y="121" type="curve"/>
      <point x="190" y="150" type="line"/>
      <point x="190" y="166" type="line"/>
      <point x="181" y="163" type="line"/>
      <point x="191" y="147"/>
      <point x="203" y="123"/>
      <point x="214" y="101" type="curve"/>
      <point x="215" y="97"/>
      <point x="219" y="91"/>
      <point x="225" y="80" type="curve" smooth="yes"/>
      <point x="229" y="72"/>
      <point x="233" y="64"/>
      <point x="238" y="55" type="curve" smooth="yes"/>
      <point x="248" y="36"/>
      <point x="260" y="12"/>
      <point x="270" y="-4" type="curve"/>
      <point x="287" y="-8"/>
      <point x="310" y="-9"/>
      <point x="336" y="-9" type="curve" smooth="yes"/>
      <point x="357" y="-9"/>
      <point x="379" y="-8"/>
      <point x="399" y="-7" type="curve" smooth="yes"/>
      <point x="416" y="-6"/>
      <point x="447" y="-5"/>
      <point x="459" y="-5" type="curve"/>
      <point x="416" y="81"/>
      <point x="370" y="156"/>
      <point x="323" y="229" type="curve" smooth="yes"/>
      <point x="316" y="239"/>
      <point x="309" y="250"/>
      <point x="302" y="262" type="curve" smooth="yes"/>
      <point x="295" y="273"/>
      <point x="288" y="281"/>
      <point x="282" y="292" type="curve"/>
      <point x="298" y="314"/>
      <point x="314" y="334"/>
      <point x="331" y="356" type="curve" smooth="yes"/>
      <point x="369" y="406"/>
      <point x="417" y="468"/>
      <point x="451" y="521" type="curve"/>
      <point x="423" y="523"/>
      <point x="400" y="522"/>
      <point x="382" y="521" type="curve"/>
      <point x="377" y="521" type="line"/>
      <point x="360" y="520"/>
      <point x="343" y="519"/>
      <point x="327" y="519" type="curve" smooth="yes"/>
      <point x="310" y="519"/>
      <point x="289" y="522"/>
      <point x="269" y="529" type="curve"/>
      <point x="246" y="502"/>
      <point x="233" y="480"/>
      <point x="220" y="458" type="curve"/>
      <point x="220" y="459" type="line"/>
      <point x="216" y="453"/>
      <point x="213" y="445"/>
      <point x="210" y="440" type="curve" smooth="yes"/>
      <point x="201" y="424"/>
      <point x="201" y="419"/>
      <point x="186" y="402" type="curve"/>
      <point x="186" y="405"/>
      <point x="187" y="409"/>
      <point x="187" y="414" type="curve" smooth="yes"/>
      <point x="187" y="428"/>
      <point x="187" y="444"/>
      <point x="188" y="460" type="curve" smooth="yes"/>
      <point x="188" y="468"/>
      <point x="189" y="476"/>
      <point x="189" y="484" type="curve"/>
      <point x="189" y="507" type="line"/>
    </contour>
  </outline>
</glyph>
<glyph name="l" format="1">
  <advance width="206"/>
  <unicode hex="006C"/>
  <outline>
    <contour>
      <point x="25" y="732" type="line"/>
      <point x="18" y="663"/>
      <point x="16" y="601"/>
      <point x="16" y="543" type="curve" smooth="yes"/>
      <point x="16" y="478"/>
      <point x="18" y="412"/>
      <point x="20" y="347" type="curve" smooth="yes"/>
      <point x="22" y="287"/>
      <point x="24" y="227"/>
      <point x="24" y="167" type="curve" smooth="yes"/>
      <point x="24" y="111"/>
      <point x="21" y="44"/>
      <point x="17" y="-11" type="curve"/>
      <point x="40" y="-4"/>
      <point x="64" y="-4"/>
      <point x="83" y="-5" type="curve" smooth="yes"/>
      <point x="95" y="-6"/>
      <point x="113" y="-6"/>
      <point x="126" y="-6" type="curve" smooth="yes"/>
      <point x="156" y="-6"/>
      <point x="181" y="-5"/>
      <point x="189" y="6" type="curve"/>
      <point x="186" y="55"/>
      <point x="185" y="126"/>
      <point x="185" y="206" type="curve" smooth="yes"/>
      <point x="185" y="275"/>
      <point x="186" y="351"/>
      <point x="187" y="424" type="curve" smooth="yes"/>
      <point x="187" y="457"/>
      <point x="188" y="490"/>
      <point x="188" y="522" type="curve"/>
      <point x="188" y="551" type="line"/>
      <point x="189" y="619"/>
      <point x="190" y="685"/>
      <point x="190" y="729" type="curve"/>
    </contour>
  </outline>
</glyph>
<glyph name="w" format="1">
  <advance width="683"/>
  <unicode hex="0077"/>
  <outline>
    <contour>
      <point x="152" y="502" type="line"/>
      <point x="96" y="509"/>
      <point x="52" y="497"/>
      <point x="-7" y="508" type="curve"/>
      <point x="39" y="337"/>
      <point x="74" y="157"/>
      <point x="101" y="-8" type="curve"/>
      <point x="258" y="-10"/>
      <point x="288" y="-9"/>
      <point x="317" y="-4" type="curve"/>
      <point x="329" y="48"/>
      <point x="332" y="98"/>
      <point x="342" y="147" type="curve"/>
      <point x="352" y="92"/>
      <point x="356" y="41"/>
      <point x="367" y="-8" type="curve"/>
      <point x="382" y="-8"/>
      <point x="411" y="-8"/>
      <point x="428" y="-9" type="curve" smooth="yes"/>
      <point x="515" y="-10"/>
      <point x="542" y="-9"/>
      <point x="571" y="-4" type="curve"/>
      <point x="614" y="158"/>
      <point x="642" y="348"/>
      <point x="698" y="502" type="curve"/>
      <point x="685" y="503"/>
      <point x="658" y="505"/>
      <point x="647" y="505" type="curve" smooth="yes"/>
      <point x="607" y="505"/>
      <point x="573" y="501"/>
      <point x="539" y="501" type="curve"/>
      <point x="514" y="432"/>
      <point x="492" y="278"/>
      <point x="470" y="202" type="curve"/>
      <point x="450" y="278"/>
      <point x="439" y="417"/>
      <point x="420" y="501" type="curve"/>
      <point x="390" y="507"/>
      <point x="373" y="507"/>
      <point x="360" y="506" type="curve" smooth="yes"/>
      <point x="333" y="506"/>
      <point x="307" y="504"/>
      <point x="281" y="506" type="curve"/>
      <point x="265" y="404"/>
      <point x="243" y="301"/>
      <point x="216" y="201" type="curve"/>
      <point x="210" y="210"/>
      <point x="171" y="471"/>
      <point x="165" y="502" type="curve"/>
    </contour>
  </outline>
</glyph>
<glyph name="y" format="1">
  <advance width="449"/>
  <unicode hex="0079"/>
  <outline>
    <contour>
      <point x="152" y="502" type="line"/>
      <point x="121" y="506"/>
      <point x="75" y="503"/>
      <point x="40" y="503" type="curve" smooth="yes"/>
      <point x="27" y="503"/>
      <point x="15" y="503"/>
      <point x="-15" y="508" type="curve"/>
      <point x="-10" y="486"/>
      <point x="-5" y="464"/>
      <point x="3" y="444" type="curve"/>
      <point x="3" y="445" type="line"/>
      <point x="37" y="320"/>
      <point x="80" y="154"/>
      <point x="104" y="23" type="curve"/>
      <point x="109" y="-27"/>
      <point x="85" y="-41"/>
      <point x="52" y="-41" type="curve" smooth="yes"/>
      <point x="42" y="-41"/>
      <point x="32" y="-41"/>
      <point x="21" y="-40" type="curve" smooth="yes"/>
      <point x="10" y="-39"/>
      <point x="-9" y="-39"/>
      <point x="-26" y="-39" type="curve"/>
      <point x="-30" y="-58"/>
      <point x="-32" y="-79"/>
      <point x="-32" y="-99" type="curve" smooth="yes"/>
      <point x="-32" y="-126"/>
      <point x="-28" y="-156"/>
      <point x="-20" y="-181" type="curve"/>
      <point x="4" y="-183"/>
      <point x="15" y="-183"/>
      <point x="27" y="-183" type="curve" smooth="yes"/>
      <point x="330" y="-183"/>
      <point x="350" y="86"/>
      <point x="403" y="277" type="curve" smooth="yes"/>
      <point x="421" y="350"/>
      <point x="436" y="423"/>
      <point x="457" y="504" type="curve"/>
      <point x="437" y="505"/>
      <point x="402" y="506"/>
      <point x="384" y="506" type="curve" smooth="yes"/>
      <point x="348" y="506"/>
      <point x="315" y="504"/>
      <point x="282" y="504" type="curve"/>
      <point x="261" y="513"/>
      <point x="243" y="216"/>
      <point x="227" y="188" type="curve"/>
      <point x="212" y="240"/>
      <point x="201" y="312"/>
      <point x="187" y="386" type="curve" smooth="yes"/>
      <point x="181" y="426"/>
      <point x="175" y="466"/>
      <point x="165" y="502" type="curve"/>
    </contour>
  </outline>
</glyph>
<glyph name="braceleft" format="1">
  <advance width="318"/>
  <unicode hex="007B"/>
  <outline>
    <contour>
      <point x="307" y="-4" type="line"/>
      <point x="308" y="7"/>
      <point x="308" y="21"/>
      <point x="308" y="37" type="curve"/>
      <point x="308" y="107" type="line"/>
      <point x="252" y="112"/>
      <point x="248" y="170"/>
      <point x="251" y="213" type="curve" smooth="yes"/>
      <point x="254" y="266"/>
      <point x="244" y="313"/>
      <point x="200" y="341" type="curve"/>
      <point x="246" y="362"/>
      <point x="252" y="400"/>
      <point x="252" y="444" type="curve"/>
      <point x="252" y="464"/>
      <point x="251" y="470"/>
      <point x="251" y="476" type="curve" smooth="yes"/>
      <point x="250" y="497"/>
      <point x="250" y="523"/>
      <point x="253" y="544" type="curve"/>
      <point x="258" y="568"/>
      <point x="285" y="577"/>
      <point x="305" y="584" type="curve"/>
      <point x="305" y="592" type="line"/>
      <point x="306" y="603"/>
      <point x="307" y="617"/>
      <point x="307" y="630" type="curve" smooth="yes"/>
      <point x="307" y="643"/>
      <point x="306" y="661"/>
      <point x="303" y="682" type="curve"/>
      <point x="301" y="682"/>
      <point x="293" y="683"/>
      <point x="290" y="683" type="curve" smooth="yes"/>
      <point x="279" y="684"/>
      <point x="261" y="685"/>
      <point x="253" y="685" type="curve" smooth="yes"/>
      <point x="236" y="685"/>
      <point x="219" y="684"/>
      <point x="202" y="682" type="curve" smooth="yes"/>
      <point x="198" y="682"/>
      <point x="194" y="681"/>
      <point x="189" y="681" type="curve"/>
      <point x="132" y="672"/>
      <point x="100" y="616"/>
      <point x="111" y="561" type="curve"/>
      <point x="111" y="562" type="line"/>
      <point x="112" y="551"/>
      <point x="113" y="536"/>
      <point x="113" y="525" type="curve" smooth="yes"/>
      <point x="113" y="457"/>
      <point x="89" y="391"/>
      <point x="1" y="400" type="curve"/>
      <point x="-3" y="378"/>
      <point x="-6" y="354"/>
      <point x="-6" y="333" type="curve" smooth="yes"/>
      <point x="-6" y="321"/>
      <point x="-5" y="307"/>
      <point x="-2" y="295" type="curve"/>
      <point x="4" y="289"/>
      <point x="11" y="289"/>
      <point x="21" y="289" type="curve" smooth="yes"/>
      <point x="93" y="293"/>
      <point x="112" y="222"/>
      <point x="112" y="157" type="curve" smooth="yes"/>
      <point x="112" y="140"/>
      <point x="110" y="123"/>
      <point x="108" y="108" type="curve"/>
      <point x="105" y="52"/>
      <point x="162" y="-6"/>
      <point x="262" y="-6" type="curve" smooth="yes"/>
      <point x="271" y="-6"/>
      <point x="284" y="-5"/>
      <point x="293" y="-4" type="curve"/>
    </contour>
  </outline>
</glyph>
<glyph name="asciitilde" format="1">
  <advance width="570"/>
  <unicode hex="007E"/>
  <outline>
    <contour>
      <point x="185" y="130" type="line"/>
      <point x="180" y="154"/>
      <point x="177" y="167"/>
      <point x="183" y="184" type="curve" smooth="yes"/>
      <point x="187" y="194"/>
      <point x="191" y="202"/>
      <point x="198" y="206" type="curve"/>
      <point x="197" y="206" type="line"/>
      <point x="211" y="213"/>
      <point x="225" y="217"/>
      <point x="235" y="217" type="curve" smooth="yes"/>
      <point x="252" y="218"/>
      <point x="263" y="206"/>
      <point x="274" y="190" type="curve"/>
      <point x="273" y="191" type="line"/>
      <point x="293" y="144"/>
      <point x="343" y="121"/>
      <point x="395" y="121" type="curve" smooth="yes"/>
      <point x="416" y="121"/>
      <point x="434" y="124"/>
      <point x="450" y="130" type="curve" smooth="yes"/>
      <point x="475" y="139"/>
      <point x="494" y="152"/>
      <point x="508" y="169" type="curve"/>
      <point x="542" y="217"/>
      <point x="574" y="291"/>
      <point x="563" y="346" type="curve"/>
      <point x="546" y="345"/>
      <point x="537" y="344"/>
      <point x="531" y="344" type="curve"/>
      <point x="514" y="344" type="line"/>
      <point x="508" y="344"/>
      <point x="502" y="343"/>
      <point x="496" y="343" type="curve" smooth="yes"/>
      <point x="472" y="342"/>
      <point x="440" y="342"/>
      <point x="419" y="340" type="curve"/>
      <point x="413" y="315"/>
      <point x="390" y="259"/>
      <point x="363" y="259" type="curve" smooth="yes"/>
      <point x="358" y="259"/>
      <point x="351" y="263"/>
      <point x="342" y="271" type="curve"/>
      <point x="334" y="280"/>
      <point x="325" y="289"/>
      <point x="318" y="299" type="curve" smooth="yes"/>
      <point x="309" y="311"/>
      <point x="300" y="321"/>
      <point x="281" y="335" type="curve" smooth="yes"/>
      <point x="259" y="350"/>
      <point x="232" y="356"/>
      <point x="203" y="356" type="curve" smooth="yes"/>
      <point x="157" y="356"/>
      <point x="112" y="338"/>
      <point x="83" y="309" type="curve"/>
      <point x="46" y="267"/>
      <point x="10" y="171"/>
      <point x="0" y="131" type="curve"/>
      <point x="23" y="132"/>
      <point x="61" y="132"/>
      <point x="81" y="132" type="curve" smooth="yes"/>
      <point x="115" y="132"/>
      <point x="150" y="132"/>
      <point x="166" y="128" type="curve"/>
    </contour>
  </outline>
</glyph>
<glyph name="currency" format="1">
  <advance width="607"/>
  <unicode hex="00A4"/>
  <outline>
    <contour>
      <point x="119" y="676" type="line"/>
      <point x="4" y="578" type="line"/>
      <point x="20" y="555"/>
      <point x="29" y="546"/>
      <point x="39" y="538" type="curve"/>
      <point x="45" y="531"/>
      <point x="60" y="514"/>
      <point x="78" y="490" type="curve"/>
      <point x="67" y="451"/>
      <point x="63" y="390"/>
      <point x="63" y="336" type="curve" smooth="yes"/>
      <point x="63" y="284"/>
      <point x="63" y="243"/>
      <point x="77" y="201" type="curve"/>
      <point x="79" y="200"/>
      <point x="58" y="176"/>
      <point x="56" y="174" type="curve" smooth="yes"/>
      <point x="45" y="161"/>
      <point x="26" y="137"/>
      <point x="2" y="109" type="curve"/>
      <point x="13" y="105"/>
      <point x="33" y="89"/>
      <point x="51" y="72" type="curve"/>
      <point x="79" y="48"/>
      <point x="111" y="19"/>
      <point x="142" y="21" type="curve"/>
      <point x="163" y="50"/>
      <point x="182" y="75"/>
      <point x="195" y="92" type="curve" smooth="yes"/>
      <point x="200" y="99"/>
      <point x="203" y="104"/>
      <point x="208" y="110" type="curve"/>
      <point x="233" y="105"/>
      <point x="258" y="104"/>
      <point x="286" y="104" type="curve" smooth="yes"/>
      <point x="317" y="104"/>
      <point x="347" y="106"/>
      <point x="376" y="111" type="curve"/>
      <point x="393" y="91"/>
      <point x="405" y="80"/>
      <point x="419" y="68" type="curve" smooth="yes"/>
      <point x="429" y="58"/>
      <point x="444" y="45"/>
      <point x="466" y="21" type="curve"/>
      <point x="492" y="16"/>
      <point x="521" y="41"/>
      <point x="544" y="62" type="curve"/>
      <point x="551" y="67"/>
      <point x="554" y="70"/>
      <point x="556" y="72" type="curve"/>
      <point x="555" y="72" type="line"/>
      <point x="565" y="81"/>
      <point x="574" y="89"/>
      <point x="580" y="91" type="curve"/>
      <point x="604" y="111" type="line"/>
      <point x="579" y="123"/>
      <point x="544" y="163"/>
      <point x="514" y="201" type="curve"/>
      <point x="539" y="248"/>
      <point x="544" y="298"/>
      <point x="544" y="345" type="curve"/>
      <point x="544" y="391"/>
      <point x="544" y="410"/>
      <point x="541" y="427" type="curve" smooth="yes"/>
      <point x="537" y="446"/>
      <point x="531" y="464"/>
      <point x="520" y="484" type="curve"/>
      <point x="530" y="497"/>
      <point x="542" y="508"/>
      <point x="552" y="520" type="curve" smooth="yes"/>
      <point x="567" y="537"/>
      <point x="581" y="553"/>
      <point x="594" y="568" type="curve"/>
      <point x="594" y="567" type="line"/>
      <point x="596" y="569"/>
      <point x="602" y="576"/>
      <point x="604" y="578" type="curve"/>
      <point x="484" y="679" type="line"/>
      <point x="474" y="668" type="line"/>
      <point x="458" y="651"/>
      <point x="439" y="630"/>
      <point x="424" y="613" type="curve" smooth="yes"/>
      <point x="417" y="604"/>
      <point x="410" y="596"/>
      <point x="403" y="588" type="curve" smooth="yes"/>
      <point x="396" y="581"/>
      <point x="390" y="574"/>
      <point x="383" y="566" type="curve"/>
      <point x="357" y="570"/>
      <point x="328" y="572"/>
      <point x="300" y="572" type="curve" smooth="yes"/>
      <point x="269" y="572"/>
      <point x="243" y="572"/>
      <point x="225" y="564" type="curve"/>
      <point x="189" y="605"/>
      <point x="155" y="643"/>
      <point x="126" y="675" type="curve"/>
    </contour>
    <contour>
      <point x="238" y="457" type="line"/>
      <point x="239" y="447" type="line"/>
      <point x="261" y="451"/>
      <point x="283" y="454"/>
      <point x="304" y="454" type="curve" smooth="yes"/>
      <point x="326" y="454"/>
      <point x="349" y="451"/>
      <point x="374" y="443" type="curve" smooth="yes"/>
      <point x="400" y="434"/>
      <point x="410" y="400"/>
      <point x="410" y="377" type="curve" smooth="yes"/>
      <point x="410" y="368"/>
      <point x="409" y="358"/>
      <point x="408" y="348" type="curve"/>
      <point x="406" y="341"/>
      <point x="405" y="333"/>
      <point x="405" y="325" type="curve" smooth="yes"/>
      <point x="404" y="316"/>
      <point x="402" y="304"/>
      <point x="400" y="292" type="curve" smooth="yes"/>
      <point x="395" y="258"/>
      <point x="390" y="248"/>
      <point x="357" y="226" type="curve"/>
      <point x="307" y="206"/>
      <point x="247" y="221"/>
      <point x="243" y="222" type="curve"/>
      <point x="218" y="229"/>
      <point x="201" y="254"/>
      <point x="201" y="285" type="curve" smooth="yes"/>
      <point x="199" y="349" type="line"/>
      <point x="199" y="363"/>
      <point x="200" y="380"/>
      <point x="203" y="396" type="curve" smooth="yes"/>
      <point x="208" y="423"/>
      <point x="220" y="440"/>
      <point x="241" y="447" type="curve"/>
    </contour>
  </outline>
</glyph>
<glyph name="yen" format="1">
  <advance width="530"/>
  <unicode hex="00A5"/>
  <outline>
    <contour>
      <point x="482" y="246" type="line"/>
      <point x="479" y="264"/>
      <point x="479" y="279"/>
      <point x="479" y="294" type="curve"/>
      <point x="479" y="306" type="line"/>
      <point x="479" y="349" type="line"/>
      <point x="459" y="348"/>
      <point x="437" y="348"/>
      <point x="416" y="347" type="curve" smooth="yes"/>
      <point x="407" y="347"/>
      <point x="388" y="348"/>
      <point x="379" y="350" type="curve"/>
      <point x="441" y="462"/>
      <point x="490" y="577"/>
      <point x="529" y="692" type="curve"/>
      <point x="510" y="696"/>
      <point x="493" y="696"/>
      <point x="474" y="696" type="curve" smooth="yes"/>
      <point x="437" y="696"/>
      <point x="392" y="693"/>
      <point x="367" y="690" type="curve"/>
      <point x="357" y="686"/>
      <point x="355" y="684"/>
      <point x="355" y="684" type="curve"/>
      <point x="336" y="638"/>
      <point x="311" y="579"/>
      <point x="292" y="541" type="curve"/>
      <point x="280" y="570"/>
      <point x="270" y="606"/>
      <point x="259" y="641" type="curve" smooth="yes"/>
      <point x="254" y="659"/>
      <point x="250" y="672"/>
      <point x="245" y="684" type="curve"/>
      <point x="241" y="696" type="line"/>
      <point x="232" y="696"/>
      <point x="225" y="697"/>
      <point x="219" y="698" type="curve" smooth="yes"/>
      <point x="211" y="699"/>
      <point x="204" y="699"/>
      <point x="199" y="699" type="curve" smooth="yes"/>
      <point x="187" y="699"/>
      <point x="170" y="698"/>
      <point x="158" y="697" type="curve" smooth="yes"/>
      <point x="141" y="696"/>
      <point x="128" y="696"/>
      <point x="114" y="696" type="curve" smooth="yes"/>
      <point x="106" y="696"/>
      <point x="98" y="696"/>
      <point x="68" y="699" type="curve"/>
      <point x="80" y="634"/>
      <point x="110" y="554"/>
      <point x="135" y="494" type="curve" smooth="yes"/>
      <point x="153" y="452"/>
      <point x="172" y="404"/>
      <point x="189" y="347" type="curve"/>
      <point x="180" y="345"/>
      <point x="157" y="345"/>
      <point x="135" y="345" type="curve" smooth="yes"/>
      <point x="97" y="345"/>
      <point x="58" y="345"/>
      <point x="16" y="340" type="curve"/>
      <point x="14" y="329"/>
      <point x="12" y="312"/>
      <point x="12" y="304" type="curve" smooth="yes"/>
      <point x="11" y="291"/>
      <point x="10" y="270"/>
      <point x="14" y="249" type="curve"/>
      <point x="39" y="242"/>
      <point x="64" y="239"/>
      <point x="87" y="239" type="curve"/>
      <point x="103" y="239" type="line"/>
      <point x="108" y="239"/>
      <point x="113" y="240"/>
      <point x="119" y="240" type="curve" smooth="yes"/>
      <point x="135" y="241"/>
      <point x="137" y="241"/>
      <point x="150" y="240" type="curve"/>
      <point x="150" y="238"/>
      <point x="146" y="232"/>
      <point x="145" y="228" type="curve" smooth="yes"/>
      <point x="144" y="227"/>
      <point x="144" y="226"/>
      <point x="144" y="225" type="curve" smooth="yes"/>
      <point x="138" y="207" type="line"/>
      <point x="126" y="206"/>
      <point x="113" y="205"/>
      <point x="101" y="205" type="curve" smooth="yes"/>
      <point x="98" y="205"/>
      <point x="94" y="204"/>
      <point x="91" y="204" type="curve" smooth="yes"/>
      <point x="73" y="203"/>
      <point x="54" y="202"/>
      <point x="19" y="205" type="curve"/>
      <point x="12" y="185"/>
      <point x="12" y="161"/>
      <point x="12" y="138" type="curve"/>
      <point x="13" y="100" type="line"/>
      <point x="46" y="98"/>
      <point x="51" y="99"/>
      <point x="68" y="99" type="curve"/>
      <point x="89" y="99"/>
      <point x="86" y="99"/>
      <point x="95" y="98" type="curve"/>
      <point x="94" y="95"/>
      <point x="88" y="80"/>
      <point x="83" y="68" type="curve" smooth="yes"/>
      <point x="72" y="43"/>
      <point x="63" y="17"/>
      <point x="60" y="-3" type="curve"/>
      <point x="73" y="-4"/>
      <point x="89" y="-5"/>
      <point x="99" y="-5" type="curve" smooth="yes"/>
      <point x="113" y="-5"/>
      <point x="127" y="-4"/>
      <point x="137" y="-3" type="curve"/>
      <point x="145" y="-3" type="line"/>
      <point x="151" y="-3"/>
      <point x="158" y="-2"/>
      <point x="164" y="-2" type="curve"/>
      <point x="181" y="-2" type="line"/>
      <point x="190" y="-2"/>
      <point x="207" y="-4"/>
      <point x="229" y="-8" type="curve"/>
      <point x="242" y="19"/>
      <point x="246" y="29"/>
      <point x="250" y="40" type="curve" smooth="yes"/>
      <point x="258" y="64"/>
      <point x="260" y="77"/>
      <point x="275" y="102" type="curve"/>
      <point x="332" y="104"/>
      <point x="423" y="107"/>
      <point x="482" y="106" type="curve"/>
      <point x="479" y="118"/>
      <point x="478" y="132"/>
      <point x="478" y="146" type="curve"/>
      <point x="478" y="163" type="line"/>
      <point x="478" y="169"/>
      <point x="479" y="174"/>
      <point x="479" y="180" type="curve"/>
      <point x="479" y="207" type="line"/>
      <point x="460" y="208"/>
      <point x="425" y="209"/>
      <point x="403" y="209" type="curve"/>
      <point x="380" y="209" type="line"/>
      <point x="372" y="209"/>
      <point x="364" y="208"/>
      <point x="356" y="208" type="curve" smooth="yes"/>
      <point x="348" y="208"/>
      <point x="340" y="207"/>
      <point x="332" y="207" type="curve"/>
      <point x="319" y="207" type="line"/>
      <point x="325" y="216"/>
      <point x="323" y="216"/>
      <point x="325" y="221" type="curve" smooth="yes"/>
      <point x="326" y="223"/>
      <point x="328" y="228"/>
      <point x="329" y="230" type="curve" smooth="yes"/>
      <point x="331" y="234"/>
      <point x="335" y="242"/>
      <point x="335" y="243" type="curve"/>
      <point x="351" y="243"/>
      <point x="368" y="243"/>
      <point x="384" y="244" type="curve" smooth="yes"/>
      <point x="404" y="245"/>
      <point x="420" y="246"/>
      <point x="436" y="246" type="curve" smooth="yes"/>
      <point x="445" y="246"/>
      <point x="455" y="245"/>
      <point x="464" y="244" type="curve"/>
    </contour>
  </outline>
</glyph>
<glyph name="dieresis" format="1">
  <advance width="349"/>
  <unicode hex="00A8"/>
  <outline>
    <contour>
      <point x="151" y="516" type="line"/>
      <point x="152" y="525"/>
      <point x="154" y="556"/>
      <point x="156" y="579" type="curve" smooth="yes"/>
      <point x="157" y="591"/>
      <point x="157" y="601"/>
      <point x="158" y="609" type="curve" smooth="yes"/>
      <point x="159" y="615"/>
      <point x="159" y="623"/>
      <point x="159" y="625" type="curve"/>
      <point x="144" y="632"/>
      <point x="119" y="635"/>
      <point x="96" y="635" type="curve" smooth="yes"/>
      <point x="70" y="635"/>
      <point x="38" y="631"/>
      <point x="20" y="625" type="curve"/>
      <point x="20" y="615" type="line"/>
      <point x="20" y="612"/>
      <point x="19" y="609"/>
      <point x="19" y="604" type="curve"/>
      <point x="19" y="587" type="line"/>
      <point x="19" y="580"/>
      <point x="18" y="573"/>
      <point x="18" y="566" type="curve" smooth="yes"/>
      <point x="18" y="550"/>
      <point x="19" y="532"/>
      <point x="22" y="517" type="curve"/>
    </contour>
    <contour>
      <point x="325" y="516" type="line"/>
      <point x="326" y="525"/>
      <point x="328" y="556"/>
      <point x="330" y="579" type="curve" smooth="yes"/>
      <point x="331" y="591"/>
      <point x="331" y="601"/>
      <point x="332" y="609" type="curve" smooth="yes"/>
      <point x="333" y="615"/>
      <point x="333" y="623"/>
      <point x="333" y="625" type="curve"/>
      <point x="318" y="632"/>
      <point x="293" y="635"/>
      <point x="270" y="635" type="curve" smooth="yes"/>
      <point x="244" y="635"/>
      <point x="212" y="631"/>
      <point x="194" y="625" type="curve"/>
      <point x="194" y="615" type="line"/>
      <point x="194" y="612"/>
      <point x="193" y="609"/>
      <point x="193" y="604" type="curve"/>
      <point x="193" y="587" type="line"/>
      <point x="193" y="580"/>
      <point x="192" y="573"/>
      <point x="192" y="566" type="curve" smooth="yes"/>
      <point x="192" y="550"/>
      <point x="193" y="532"/>
      <point x="196" y="517" type="curve"/>
    </contour>
  </outline>
</glyph>
<glyph name="copyright" format="1">
  <advance width="553"/>
  <unicode hex="00A9"/>
  <outline>
    <contour>
      <point x="270" y="428" type="curve" smooth="yes"/>
      <point x="275" y="426"/>
      <point x="277" y="410"/>
      <point x="279" y="397" type="curve" smooth="yes"/>
      <point x="280" y="386" type="line" smooth="yes"/>
      <point x="280" y="384"/>
      <point x="281" y="379"/>
      <point x="281" y="377" type="curve"/>
      <point x="300" y="373"/>
      <point x="315" y="371"/>
      <point x="331" y="371" type="curve" smooth="yes"/>
      <point x="339" y="371"/>
      <point x="352" y="372"/>
      <point x="366" y="375" type="curve"/>
      <point x="370" y="387"/>
      <point x="369" y="399"/>
      <point x="369" y="408" type="curve" smooth="yes"/>
      <point x="369" y="462"/>
      <point x="319" y="502"/>
      <point x="260" y="502" type="curve" smooth="yes"/>
      <point x="248" y="502"/>
      <point x="236" y="501"/>
      <point x="225" y="497" type="curve" smooth="yes"/>
      <point x="212" y="492"/>
      <point x="205" y="490"/>
      <point x="196" y="482" type="curve" smooth="yes"/>
      <point x="190" y="476"/>
      <point x="182" y="462"/>
      <point x="177" y="451" type="curve" smooth="yes"/>
      <point x="174" y="444"/>
      <point x="171" y="433"/>
      <point x="171" y="423" type="curve" smooth="yes"/>
      <point x="171" y="408"/>
      <point x="170" y="393"/>
      <point x="170" y="379" type="curve" smooth="yes"/>
      <point x="170" y="348" type="line" smooth="yes"/>
      <point x="170" y="313"/>
      <point x="171" y="284"/>
      <point x="173" y="262" type="curve" smooth="yes"/>
      <point x="177" y="218"/>
      <point x="235" y="204"/>
      <point x="276" y="207" type="curve" smooth="yes"/>
      <point x="337" y="211"/>
      <point x="374" y="271"/>
      <point x="366" y="326" type="curve"/>
      <point x="349" y="331"/>
      <point x="328" y="332"/>
      <point x="315" y="331" type="curve"/>
      <point x="283" y="331" type="line"/>
      <point x="276" y="278"/>
      <point x="273" y="281"/>
      <point x="270" y="280" type="curve"/>
      <point x="262" y="280"/>
      <point x="260" y="298"/>
      <point x="259" y="311" type="curve" smooth="yes"/>
      <point x="258" y="320"/>
      <point x="258" y="332"/>
      <point x="258" y="344" type="curve" smooth="yes"/>
      <point x="258" y="371"/>
      <point x="259" y="400"/>
      <point x="260" y="413" type="curve"/>
      <point x="260" y="427"/>
      <point x="265" y="430"/>
    </contour>
    <contour>
      <point x="521" y="249" type="line"/>
      <point x="526" y="287"/>
      <point x="535" y="370"/>
      <point x="535" y="399" type="curve" smooth="yes"/>
      <point x="535" y="462"/>
      <point x="521" y="518"/>
      <point x="470" y="554" type="curve"/>
      <point x="426" y="581"/>
      <point x="395" y="592"/>
      <point x="364" y="598" type="curve" smooth="yes"/>
      <point x="342" y="602"/>
      <point x="310" y="605"/>
      <point x="286" y="605" type="curve" smooth="yes"/>
      <point x="272" y="605"/>
      <point x="254" y="604"/>
      <point x="241" y="603" type="curve" smooth="yes"/>
      <point x="233" y="603"/>
      <point x="224" y="602"/>
      <point x="216" y="602" type="curve" smooth="yes"/>
      <point x="196" y="601" type="line"/>
      <point x="145" y="593"/>
      <point x="94" y="570"/>
      <point x="65" y="535" type="curve" smooth="yes"/>
      <point x="42" y="508"/>
      <point x="28" y="475"/>
      <point x="25" y="446" type="curve"/>
      <point x="23" y="416"/>
      <point x="21" y="387"/>
      <point x="21" y="358" type="curve" smooth="yes"/>
      <point x="21" y="321"/>
      <point x="24" y="281"/>
      <point x="30" y="246" type="curve" smooth="yes"/>
      <point x="38" y="195"/>
      <point x="79" y="150"/>
      <point x="139" y="123" type="curve"/>
      <point x="176" y="111"/>
      <point x="216" y="108"/>
      <point x="256" y="108" type="curve" smooth="yes"/>
      <point x="328" y="108"/>
      <point x="417" y="116"/>
      <point x="469" y="164" type="curve"/>
      <point x="496" y="191"/>
      <point x="514" y="219"/>
      <point x="521" y="248" type="curve"/>
    </contour>
    <contour>
      <point x="424" y="485" type="curve" smooth="yes"/>
      <point x="439" y="468"/>
      <point x="440" y="445"/>
      <point x="441" y="421" type="curve"/>
      <point x="437" y="298" type="line"/>
      <point x="432" y="251"/>
      <point x="405" y="199"/>
      <point x="360" y="190" type="curve" smooth="yes"/>
      <point x="331" y="184"/>
      <point x="303" y="177"/>
      <point x="272" y="176" type="curve" smooth="yes"/>
      <point x="257" y="176"/>
      <point x="228" y="176"/>
      <point x="215" y="179" type="curve"/>
      <point x="167" y="183"/>
      <point x="120" y="215"/>
      <point x="120" y="263" type="curve" smooth="yes"/>
      <point x="120" y="301"/>
      <point x="114" y="340"/>
      <point x="114" y="378" type="curve" smooth="yes"/>
      <point x="114" y="399"/>
      <point x="115" y="422"/>
      <point x="118" y="442" type="curve" smooth="yes"/>
      <point x="123" y="478"/>
      <point x="152" y="523"/>
      <point x="198" y="528" type="curve" smooth="yes"/>
      <point x="221" y="531"/>
      <point x="248" y="532"/>
      <point x="272" y="532" type="curve" smooth="yes"/>
      <point x="296" y="532"/>
      <point x="322" y="531"/>
      <point x="346" y="528" type="curve"/>
      <point x="378" y="522"/>
      <point x="407" y="506"/>
    </contour>
  </outline>
</glyph>
<glyph name="ordfeminine" format="1">
  <advance width="276"/>
  <unicode hex="00AA"/>
  <outline>
    <contour>
      <point x="239" y="728" type="line"/>
      <point x="170" y="731" type="line"/>
      <point x="155" y="731"/>
      <point x="147" y="731"/>
      <point x="148" y="720" type="curve"/>
      <point x="136" y="722"/>
      <point x="127" y="728"/>
      <point x="110" y="728" type="curve" smooth="yes"/>
      <point x="53" y="728"/>
      <point x="10" y="676"/>
      <point x="10" y="605" type="curve" smooth="yes"/>
      <point x="10" y="547"/>
      <point x="35" y="463"/>
      <point x="99" y="463" type="curve" smooth="yes"/>
      <point x="117" y="463"/>
      <point x="134" y="468"/>
      <point x="150" y="476" type="curve"/>
      <point x="152" y="469"/>
      <point x="158" y="466"/>
      <point x="167" y="464" type="curve"/>
      <point x="234" y="464" type="line"/>
      <point x="254" y="466"/>
      <point x="254" y="474"/>
      <point x="254" y="484" type="curve" smooth="yes"/>
      <point x="254" y="490" type="line" smooth="yes"/>
      <point x="256" y="513"/>
      <point x="257" y="542"/>
      <point x="257" y="565" type="curve" smooth="yes"/>
      <point x="257" y="572"/>
      <point x="256" y="579"/>
      <point x="256" y="586" type="curve" smooth="yes"/>
      <point x="256" y="608" type="line" smooth="yes"/>
      <point x="254" y="717"/>
      <point x="258" y="722"/>
      <point x="258" y="728" type="curve"/>
    </contour>
    <contour>
      <point x="95" y="623" type="curve" smooth="yes"/>
      <point x="100" y="644"/>
      <point x="114" y="659"/>
      <point x="138" y="659" type="curve" smooth="yes"/>
      <point x="159" y="659"/>
      <point x="159" y="654"/>
      <point x="159" y="596" type="curve" smooth="yes"/>
      <point x="159" y="558"/>
      <point x="159" y="534"/>
      <point x="133" y="534" type="curve" smooth="yes"/>
      <point x="109" y="534"/>
      <point x="92" y="561"/>
      <point x="92" y="595" type="curve" smooth="yes"/>
      <point x="92" y="605"/>
      <point x="94" y="619"/>
    </contour>
  </outline>
</glyph>
<glyph name="guillemotleft" format="1">
  <advance width="583"/>
  <unicode hex="00AB"/>
  <outline>
    <contour>
      <point x="358" y="85" type="line"/>
      <point x="266" y="170" type="line"/>
      <point x="226" y="210"/>
      <point x="199" y="236"/>
      <point x="172" y="260" type="curve"/>
      <point x="224" y="324"/>
      <point x="300" y="392"/>
      <point x="348" y="451" type="curve"/>
      <point x="336" y="459"/>
      <point x="323" y="473"/>
      <point x="309" y="488" type="curve"/>
      <point x="297" y="499"/>
      <point x="286" y="511"/>
      <point x="253" y="530" type="curve"/>
      <point x="71" y="343"/>
      <point x="29" y="300"/>
      <point x="-1" y="262" type="curve"/>
      <point x="45" y="198"/>
      <point x="99" y="150"/>
      <point x="152" y="102" type="curve" smooth="yes"/>
      <point x="195" y="63"/>
      <point x="229" y="32"/>
      <point x="262" y="-1" type="curve"/>
      <point x="343" y="71" type="line"/>
    </contour>
    <contour>
      <point x="579" y="85" type="line"/>
      <point x="447" y="210"/>
      <point x="420" y="236"/>
      <point x="393" y="260" type="curve"/>
      <point x="445" y="324"/>
      <point x="521" y="392"/>
      <point x="569" y="451" type="curve"/>
      <point x="557" y="459"/>
      <point x="544" y="473"/>
      <point x="530" y="488" type="curve"/>
      <point x="518" y="499"/>
      <point x="507" y="511"/>
      <point x="474" y="530" type="curve"/>
      <point x="292" y="343"/>
      <point x="250" y="300"/>
      <point x="220" y="262" type="curve"/>
      <point x="271" y="187"/>
      <point x="338" y="139"/>
      <point x="397" y="80" type="curve" smooth="yes"/>
      <point x="424" y="56"/>
      <point x="455" y="27"/>
      <point x="483" y="-1" type="curve"/>
    </contour>
  </outline>
</glyph>
<glyph name="uni00AD" format="1">
  <advance width="369"/>
  <unicode hex="00AD"/>
  <outline>
    <contour>
      <point x="21" y="309" type="line"/>
      <point x="21" y="283" type="line"/>
      <point x="21" y="274"/>
      <point x="22" y="266"/>
      <point x="22" y="259" type="curve"/>
      <point x="22" y="244" type="line"/>
      <point x="41" y="244" type="line"/>
      <point x="116" y="244" type="line"/>
      <point x="174" y="244"/>
      <point x="251" y="243"/>
      <point x="296" y="243" type="curve"/>
      <point x="346" y="243" type="line"/>
      <point x="346" y="247"/>
      <point x="345" y="256"/>
      <point x="345" y="260" type="curve"/>
      <point x="345" y="268" type="line"/>
      <point x="344" y="280"/>
      <point x="345" y="288"/>
      <point x="349" y="311" type="curve"/>
      <point x="345" y="311"/>
      <point x="243" y="311"/>
      <point x="179" y="310" type="curve" smooth="yes"/>
      <point x="124" y="310"/>
      <point x="70" y="309"/>
      <point x="47" y="309" type="curve"/>
      <point x="36" y="309" type="line"/>
    </contour>
  </outline>
</glyph>
<glyph name="registered" format="1">
  <advance width="553"/>
  <unicode hex="00AE"/>
  <outline>
    <contour>
      <point x="526" y="289" type="curve"/>
      <point x="530" y="325"/>
      <point x="535" y="361"/>
      <point x="535" y="397" type="curve" smooth="yes"/>
      <point x="535" y="512"/>
      <point x="469" y="578"/>
      <point x="364" y="598" type="curve" smooth="yes"/>
      <point x="342" y="602"/>
      <point x="310" y="605"/>
      <point x="286" y="605" type="curve" smooth="yes"/>
      <point x="196" y="601" type="line"/>
      <point x="145" y="593"/>
      <point x="94" y="570"/>
      <point x="65" y="535" type="curve" smooth="yes"/>
      <point x="42" y="508"/>
      <point x="28" y="475"/>
      <point x="25" y="446" type="curve"/>
      <point x="23" y="416"/>
      <point x="21" y="387"/>
      <point x="21" y="358" type="curve" smooth="yes"/>
      <point x="21" y="321"/>
      <point x="24" y="281"/>
      <point x="30" y="246" type="curve" smooth="yes"/>
      <point x="38" y="195"/>
      <point x="79" y="150"/>
      <point x="139" y="123" type="curve"/>
      <point x="176" y="111"/>
      <point x="216" y="108"/>
      <point x="256" y="108" type="curve" smooth="yes"/>
      <point x="265" y="108"/>
      <point x="276" y="109"/>
      <point x="285" y="110" type="curve"/>
      <point x="350" y="113"/>
      <point x="424" y="119"/>
      <point x="469" y="164" type="curve"/>
      <point x="468" y="164" type="line"/>
      <point x="513" y="209"/>
      <point x="514" y="230"/>
    </contour>
    <contour>
      <point x="416" y="479" type="curve" smooth="yes"/>
      <point x="427" y="458"/>
      <point x="427" y="442"/>
      <point x="433" y="338" type="curve" smooth="yes"/>
      <point x="436" y="293"/>
      <point x="452" y="196"/>
      <point x="346" y="190" type="curve" smooth="yes"/>
      <point x="308" y="188"/>
      <point x="259" y="190"/>
      <point x="235" y="190" type="curve" smooth="yes"/>
      <point x="222" y="190"/>
      <point x="205" y="191"/>
      <point x="191" y="193" type="curve" smooth="yes"/>
      <point x="123" y="208"/>
      <point x="132" y="259"/>
      <point x="126" y="323" type="curve" smooth="yes"/>
      <point x="125" y="347"/>
      <point x="124" y="384"/>
      <point x="125" y="408" type="curve"/>
      <point x="119" y="541"/>
      <point x="200" y="523"/>
      <point x="269" y="523" type="curve" smooth="yes"/>
      <point x="291" y="523"/>
      <point x="320" y="521"/>
      <point x="344" y="518" type="curve"/>
      <point x="374" y="512"/>
      <point x="405" y="500"/>
    </contour>
    <contour>
      <point x="393" y="211" type="line"/>
      <point x="380" y="247"/>
      <point x="360" y="276"/>
      <point x="340" y="305" type="curve" smooth="yes"/>
      <point x="317" y="334" type="line"/>
      <point x="370" y="343"/>
      <point x="387" y="377"/>
      <point x="387" y="416" type="curve" smooth="yes"/>
      <point x="387" y="462"/>
      <point x="346" y="504"/>
      <point x="290" y="509" type="curve" smooth="yes"/>
      <point x="244" y="512"/>
      <point x="205" y="502"/>
      <point x="166" y="502" type="curve"/>
      <point x="168" y="482"/>
      <point x="171" y="380"/>
      <point x="171" y="304" type="curve" smooth="yes"/>
      <point x="171" y="251"/>
      <point x="177" y="209"/>
      <point x="184" y="209" type="curve" smooth="yes"/>
      <point x="188" y="209"/>
      <point x="239" y="209"/>
      <point x="270" y="217" type="curve"/>
      <point x="270" y="224"/>
      <point x="269" y="238"/>
      <point x="268" y="247" type="curve" smooth="yes"/>
      <point x="267" y="256"/>
      <point x="266" y="267"/>
      <point x="266" y="278" type="curve"/>
      <point x="274" y="263"/>
      <point x="282" y="244"/>
      <point x="288" y="230" type="curve" smooth="yes"/>
      <point x="290" y="225"/>
      <point x="300" y="211"/>
      <point x="300" y="211" type="curve"/>
      <point x="334" y="208"/>
      <point x="343" y="209"/>
      <point x="353" y="210" type="curve" smooth="yes"/>
      <point x="362" y="211"/>
      <point x="369" y="211"/>
      <point x="377" y="211" type="curve" smooth="yes"/>
    </contour>
    <contour>
      <point x="284" y="437" type="curve"/>
      <point x="283" y="437" type="line"/>
      <point x="294" y="426"/>
      <point x="293" y="401"/>
      <point x="279" y="396" type="curve"/>
      <point x="280" y="396" type="line"/>
      <point x="273" y="394"/>
      <point x="265" y="394"/>
      <point x="257" y="394" type="curve"/>
      <point x="256" y="401"/>
      <point x="256" y="409"/>
      <point x="256" y="416" type="curve" smooth="yes"/>
      <point x="256" y="440" type="line"/>
      <point x="266" y="442"/>
      <point x="277" y="441"/>
    </contour>
  </outline>
</glyph>
<glyph name="degree" format="1">
  <advance width="298"/>
  <unicode hex="00B0"/>
  <outline>
    <contour>
      <point x="75" y="405" type="line"/>
      <point x="95" y="399"/>
      <point x="117" y="396"/>
      <point x="141" y="396" type="curve" smooth="yes"/>
      <point x="158" y="396"/>
      <point x="179" y="398"/>
      <point x="195" y="401" type="curve" smooth="yes"/>
      <point x="262" y="408"/>
      <point x="288" y="470"/>
      <point x="288" y="530" type="curve"/>
      <point x="288" y="549"/>
      <point x="288" y="564"/>
      <point x="286" y="575" type="curve" smooth="yes"/>
      <point x="284" y="593"/>
      <point x="276" y="609"/>
      <point x="256" y="625" type="curve"/>
      <point x="251" y="631"/>
      <point x="240" y="637"/>
      <point x="226" y="642" type="curve"/>
      <point x="221" y="644" type="line"/>
      <point x="193" y="654"/>
      <point x="177" y="655"/>
      <point x="160" y="655" type="curve" smooth="yes"/>
      <point x="150" y="655"/>
      <point x="132" y="655"/>
      <point x="105" y="653" type="curve"/>
      <point x="62" y="645"/>
      <point x="29" y="623"/>
      <point x="17" y="589" type="curve"/>
      <point x="12" y="572"/>
      <point x="11" y="554"/>
      <point x="11" y="535" type="curve" smooth="yes"/>
      <point x="11" y="516"/>
      <point x="12" y="495"/>
      <point x="14" y="479" type="curve" smooth="yes"/>
      <point x="15" y="472"/>
      <point x="16" y="463"/>
      <point x="21" y="449" type="curve" smooth="yes"/>
      <point x="27" y="434"/>
      <point x="45" y="420"/>
      <point x="73" y="406" type="curve"/>
    </contour>
    <contour>
      <point x="116" y="583" type="curve"/>
      <point x="128" y="593"/>
      <point x="180" y="593"/>
      <point x="192" y="582" type="curve"/>
      <point x="206" y="576"/>
      <point x="203" y="547"/>
      <point x="200" y="532" type="curve" smooth="yes"/>
      <point x="200" y="530"/>
      <point x="199" y="528"/>
      <point x="199" y="527" type="curve" smooth="yes"/>
      <point x="198" y="518"/>
      <point x="197" y="510"/>
      <point x="196" y="501" type="curve" smooth="yes"/>
      <point x="194" y="489"/>
      <point x="190" y="467"/>
      <point x="175" y="467" type="curve"/>
      <point x="153" y="464"/>
      <point x="131" y="464"/>
      <point x="117" y="465" type="curve"/>
      <point x="107" y="467"/>
      <point x="101" y="479"/>
      <point x="101" y="497" type="curve"/>
      <point x="101" y="524" type="line"/>
      <point x="101" y="534"/>
      <point x="101" y="547"/>
      <point x="102" y="557" type="curve" smooth="yes"/>
      <point x="104" y="569"/>
      <point x="111" y="581"/>
    </contour>
  </outline>
</glyph>
<glyph name="plusminus" format="1">
  <advance width="501"/>
  <unicode hex="00B1"/>
  <outline>
    <contour>
      <point x="151" y="248" type="line"/>
      <point x="160" y="252"/>
      <point x="198" y="250"/>
      <point x="217" y="251" type="curve"/>
      <point x="240" y="250"/>
      <point x="267" y="249"/>
      <point x="288" y="249" type="curve" smooth="yes"/>
      <point x="315" y="249"/>
      <point x="334" y="247"/>
      <point x="335" y="250" type="curve" smooth="yes"/>
      <point x="338" y="258"/>
      <point x="335" y="282"/>
      <point x="337" y="300" type="curve" smooth="yes"/>
      <point x="341" y="378" type="line"/>
      <point x="346" y="381"/>
      <point x="369" y="382"/>
      <point x="397" y="382" type="curve" smooth="yes"/>
      <point x="424" y="382"/>
      <point x="446" y="382"/>
      <point x="460" y="389" type="curve"/>
      <point x="463" y="417"/>
      <point x="463" y="442"/>
      <point x="463" y="468" type="curve" smooth="yes"/>
      <point x="463" y="488"/>
      <point x="463" y="512"/>
      <point x="464" y="537" type="curve"/>
      <point x="435" y="542"/>
      <point x="407" y="542"/>
      <point x="380" y="542" type="curve" smooth="yes"/>
      <point x="360" y="542"/>
      <point x="358" y="542"/>
      <point x="344" y="543" type="curve"/>
      <point x="341" y="665" type="line"/>
      <point x="310" y="669"/>
      <point x="178" y="665"/>
      <point x="161" y="666" type="curve"/>
      <point x="157" y="541" type="line"/>
      <point x="150" y="539"/>
      <point x="40" y="534"/>
      <point x="30" y="536" type="curve"/>
      <point x="30" y="531"/>
      <point x="30" y="515"/>
      <point x="31" y="506" type="curve"/>
      <point x="31" y="507" type="line"/>
      <point x="33" y="475"/>
      <point x="36" y="414"/>
      <point x="34" y="393" type="curve"/>
      <point x="50" y="383"/>
      <point x="124" y="377"/>
      <point x="151" y="376" type="curve"/>
      <point x="150" y="372"/>
      <point x="150" y="367"/>
      <point x="150" y="361" type="curve"/>
      <point x="150" y="311" type="line"/>
    </contour>
    <contour>
      <point x="28" y="6" type="line"/>
      <point x="38" y="6"/>
      <point x="145" y="4"/>
      <point x="252" y="2" type="curve" smooth="yes"/>
      <point x="359" y="0"/>
      <point x="481" y="-1"/>
      <point x="492" y="-1" type="curve"/>
      <point x="488" y="27"/>
      <point x="487" y="51"/>
      <point x="487" y="73" type="curve"/>
      <point x="487" y="93" type="line"/>
      <point x="487" y="99"/>
      <point x="488" y="110"/>
      <point x="488" y="115" type="curve" smooth="yes"/>
      <point x="489" y="134"/>
      <point x="489" y="157"/>
      <point x="489" y="176" type="curve"/>
      <point x="16" y="176" type="line"/>
      <point x="16" y="165" type="line"/>
      <point x="16" y="159"/>
      <point x="15" y="141"/>
      <point x="15" y="132" type="curve" smooth="yes"/>
      <point x="14" y="91"/>
      <point x="13" y="27"/>
      <point x="13" y="6" type="curve"/>
    </contour>
  </outline>
</glyph>
<glyph name="twosuperior" format="1">
  <advance width="264"/>
  <unicode hex="00B2"/>
  <outline>
    <contour>
      <point x="241" y="331" type="line"/>
      <point x="243" y="368"/>
      <point x="242" y="390"/>
      <point x="237" y="403" type="curve"/>
      <point x="169" y="403" type="line"/>
      <point x="137" y="403"/>
      <point x="132" y="402"/>
      <point x="123" y="402" type="curve"/>
      <point x="143" y="468"/>
      <point x="243" y="458"/>
      <point x="250" y="531" type="curve"/>
      <point x="250" y="544"/>
      <point x="249" y="559"/>
      <point x="248" y="572" type="curve" smooth="yes"/>
      <point x="245" y="604"/>
      <point x="227" y="637"/>
      <point x="195" y="653" type="curve" smooth="yes"/>
      <point x="183" y="658"/>
      <point x="162" y="661"/>
      <point x="141" y="661" type="curve" smooth="yes"/>
      <point x="106" y="661"/>
      <point x="65" y="649"/>
      <point x="47" y="632" type="curve"/>
      <point x="30" y="611"/>
      <point x="18" y="581"/>
      <point x="18" y="554" type="curve" smooth="yes"/>
      <point x="18" y="545"/>
      <point x="19" y="533"/>
      <point x="22" y="520" type="curve"/>
      <point x="35" y="519"/>
      <point x="51" y="518"/>
      <point x="64" y="518" type="curve" smooth="yes"/>
      <point x="82" y="518"/>
      <point x="100" y="519"/>
      <point x="118" y="521" type="curve"/>
      <point x="118" y="541"/>
      <point x="122" y="571"/>
      <point x="136" y="576" type="curve"/>
      <point x="146" y="576"/>
      <point x="146" y="561"/>
      <point x="146" y="549" type="curve" smooth="yes"/>
      <point x="146" y="536"/>
      <point x="142" y="523"/>
      <point x="133" y="517" type="curve"/>
      <point x="124" y="509"/>
      <point x="112" y="502"/>
      <point x="100" y="495" type="curve" smooth="yes"/>
      <point x="75" y="480"/>
      <point x="52" y="466"/>
      <point x="31" y="444" type="curve"/>
      <point x="19" y="425"/>
      <point x="18" y="398"/>
      <point x="18" y="371" type="curve" smooth="yes"/>
      <point x="18" y="356"/>
      <point x="18" y="342"/>
      <point x="17" y="330" type="curve"/>
    </contour>
  </outline>
</glyph>
<glyph name="acute" format="1">
  <advance width="255"/>
  <unicode hex="00B4"/>
  <outline>
    <contour>
      <point x="174" y="705" type="line"/>
      <point x="136" y="674"/>
      <point x="94" y="632"/>
      <point x="57" y="594" type="curve" smooth="yes"/>
      <point x="39" y="575"/>
      <point x="11" y="546"/>
      <point x="-10" y="528" type="curve"/>
      <point x="10" y="522"/>
      <point x="56" y="518"/>
      <point x="92" y="518" type="curve" smooth="yes"/>
      <point x="112" y="518"/>
      <point x="133" y="518"/>
      <point x="154" y="521" type="curve"/>
      <point x="164" y="541"/>
      <point x="196" y="569"/>
      <point x="221" y="590" type="curve" smooth="yes"/>
      <point x="237" y="604"/>
      <point x="252" y="617"/>
      <point x="255" y="620" type="curve"/>
    </contour>
  </outline>
</glyph>
<glyph name="paragraph" format="1">
  <advance width="672"/>
  <unicode hex="00B6"/>
  <outline>
    <contour>
      <point x="395" y="733" type="line"/>
      <point x="218" y="732" type="line"/>
      <point x="206" y="731"/>
      <point x="194" y="731"/>
      <point x="182" y="731" type="curve" smooth="yes"/>
      <point x="140" y="730"/>
      <point x="97" y="727"/>
      <point x="71" y="716" type="curve" smooth="yes"/>
      <point x="41" y="702"/>
      <point x="20" y="678"/>
      <point x="13" y="646" type="curve"/>
      <point x="7" y="604"/>
      <point x="4" y="566"/>
      <point x="4" y="527" type="curve" smooth="yes"/>
      <point x="4" y="489"/>
      <point x="7" y="452"/>
      <point x="15" y="416" type="curve"/>
      <point x="54" y="344"/>
      <point x="83" y="311"/>
      <point x="158" y="311" type="curve" smooth="yes"/>
      <point x="169" y="311"/>
      <point x="183" y="311"/>
      <point x="193" y="312" type="curve"/>
      <point x="194" y="244"/>
      <point x="195" y="177"/>
      <point x="195" y="104" type="curve" smooth="yes"/>
      <point x="195" y="-14"/>
      <point x="193" y="-129"/>
      <point x="185" y="-215" type="curve"/>
      <point x="208" y="-208"/>
      <point x="232" y="-208"/>
      <point x="251" y="-209" type="curve" smooth="yes"/>
      <point x="263" y="-210"/>
      <point x="281" y="-210"/>
      <point x="294" y="-210" type="curve" smooth="yes"/>
      <point x="324" y="-210"/>
      <point x="349" y="-209"/>
      <point x="357" y="-198" type="curve"/>
      <point x="354" y="-154"/>
      <point x="353" y="-80"/>
      <point x="353" y="10" type="curve" smooth="yes"/>
      <point x="353" y="180"/>
      <point x="357" y="422"/>
      <point x="360" y="581" type="curve"/>
      <point x="370" y="581"/>
      <point x="375" y="580"/>
      <point x="384" y="580" type="curve"/>
      <point x="407" y="580" type="line"/>
      <point x="404" y="477"/>
      <point x="404" y="365"/>
      <point x="404" y="248" type="curve" smooth="yes"/>
      <point x="404" y="82"/>
      <point x="402" y="-94"/>
      <point x="393" y="-215" type="curve"/>
      <point x="416" y="-208"/>
      <point x="440" y="-208"/>
      <point x="459" y="-209" type="curve" smooth="yes"/>
      <point x="471" y="-210"/>
      <point x="489" y="-210"/>
      <point x="502" y="-210" type="curve" smooth="yes"/>
      <point x="532" y="-210"/>
      <point x="557" y="-209"/>
      <point x="565" y="-198" type="curve"/>
      <point x="563" y="-161"/>
      <point x="562" y="-101"/>
      <point x="562" y="-28" type="curve" smooth="yes"/>
      <point x="562" y="112"/>
      <point x="565" y="316"/>
      <point x="568" y="473" type="curve" smooth="yes"/>
      <point x="568" y="492"/>
      <point x="569" y="511"/>
      <point x="569" y="529" type="curve" smooth="yes"/>
      <point x="569" y="547"/>
      <point x="569" y="562"/>
      <point x="570" y="579" type="curve"/>
      <point x="575" y="579"/>
      <point x="579" y="578"/>
      <point x="583" y="578" type="curve" smooth="yes"/>
      <point x="593" y="577"/>
      <point x="606" y="576"/>
      <point x="615" y="576" type="curve" smooth="yes"/>
      <point x="642" y="576"/>
      <point x="662" y="581"/>
      <point x="670" y="592" type="curve"/>
      <point x="670" y="617"/>
      <point x="669" y="655"/>
      <point x="668" y="686" type="curve" smooth="yes"/>
      <point x="667" y="706"/>
      <point x="667" y="727"/>
      <point x="667" y="733" type="curve"/>
      <point x="557" y="735" type="line"/>
    </contour>
  </outline>
</glyph>
<glyph name="periodcentered" format="1">
  <advance width="164"/>
  <unicode hex="00B7"/>
  <outline>
    <contour>
      <point x="21" y="398" type="line"/>
      <point x="20" y="369"/>
      <point x="21" y="340"/>
      <point x="22" y="320" type="curve" smooth="yes"/>
      <point x="22" y="315"/>
      <point x="23" y="309"/>
      <point x="23" y="304" type="curve" smooth="yes"/>
      <point x="24" y="287"/>
      <point x="25" y="265"/>
      <point x="25" y="249" type="curve"/>
      <point x="30" y="249"/>
      <point x="40" y="250"/>
      <point x="45" y="250" type="curve" smooth="yes"/>
      <point x="64" y="251"/>
      <point x="77" y="251"/>
      <point x="84" y="250" type="curve"/>
      <point x="113" y="249"/>
      <point x="133" y="248"/>
      <point x="144" y="266" type="curve"/>
      <point x="144" y="290"/>
      <point x="143" y="324"/>
      <point x="142" y="352" type="curve" smooth="yes"/>
      <point x="141" y="370"/>
      <point x="141" y="390"/>
      <point x="141" y="397" type="curve"/>
    </contour>
  </outline>
</glyph>
<glyph name="cedilla" format="1">
  <advance width="190"/>
  <unicode hex="00B8"/>
  <outline>
    <contour>
      <point x="53" y="1" type="line"/>
      <point x="46" y="-19"/>
      <point x="40" y="-36"/>
      <point x="37" y="-46" type="curve" smooth="yes"/>
      <point x="32" y="-62"/>
      <point x="21" y="-96"/>
      <point x="-2" y="-159" type="curve"/>
      <point x="10" y="-153"/>
      <point x="29" y="-153"/>
      <point x="50" y="-153" type="curve"/>
      <point x="141" y="-153" type="line"/>
      <point x="141" y="-151"/>
      <point x="141" y="-146"/>
      <point x="143" y="-142" type="curve" smooth="yes"/>
      <point x="145" y="-135"/>
      <point x="147" y="-128"/>
      <point x="151" y="-117" type="curve" smooth="yes"/>
      <point x="155" y="-106"/>
      <point x="159" y="-93"/>
      <point x="164" y="-80" type="curve" smooth="yes"/>
      <point x="175" y="-49"/>
      <point x="187" y="-12"/>
      <point x="190" y="-1" type="curve"/>
    </contour>
  </outline>
</glyph>
<glyph name="ordmasculine" format="1">
  <advance width="254"/>
  <unicode hex="00BA"/>
  <outline>
    <contour>
      <point x="11" y="512" type="curve"/>
      <point x="14" y="449"/>
      <point x="8" y="371"/>
      <point x="82" y="336" type="curve"/>
      <point x="225" y="294"/>
      <point x="256" y="453"/>
      <point x="240" y="552" type="curve" smooth="yes"/>
      <point x="231" y="604"/>
      <point x="192" y="655"/>
      <point x="122" y="652" type="curve" smooth="yes"/>
      <point x="43" y="650"/>
      <point x="11" y="579"/>
    </contour>
    <contour>
      <point x="113" y="432" type="curve"/>
      <point x="110" y="449"/>
      <point x="107" y="467"/>
      <point x="107" y="485" type="curve" smooth="yes"/>
      <point x="107" y="498"/>
      <point x="108" y="513"/>
      <point x="110" y="530" type="curve" smooth="yes"/>
      <point x="111" y="546"/>
      <point x="114" y="561"/>
      <point x="117" y="565" type="curve" smooth="yes"/>
      <point x="123" y="573"/>
      <point x="126" y="570"/>
      <point x="131" y="565" type="curve" smooth="yes"/>
      <point x="139" y="555"/>
      <point x="141" y="527"/>
      <point x="141" y="500" type="curve" smooth="yes"/>
      <point x="141" y="490"/>
      <point x="141" y="481"/>
      <point x="140" y="472" type="curve"/>
      <point x="139" y="451"/>
      <point x="129" y="381"/>
    </contour>
  </outline>
</glyph>
<glyph name="onequarter" format="1">
  <advance width="595"/>
  <unicode hex="00BC"/>
  <outline>
    <contour>
      <point x="229" y="3" type="line"/>
      <point x="291" y="165"/>
      <point x="353" y="348"/>
      <point x="411" y="522" type="curve" smooth="yes"/>
      <point x="472" y="704" type="line"/>
      <point x="460" y="715"/>
      <point x="428" y="715"/>
      <point x="406" y="714" type="curve" smooth="yes"/>
      <point x="400" y="714" type="line" smooth="yes"/>
      <point x="387" y="713"/>
      <point x="375" y="712"/>
      <point x="353" y="720" type="curve"/>
      <point x="310" y="560"/>
      <point x="259" y="417"/>
      <point x="206" y="273" type="curve" smooth="yes"/>
      <point x="197" y="247"/>
      <point x="187" y="221"/>
      <point x="177" y="194" type="curve" smooth="yes"/>
      <point x="153" y="129"/>
      <point x="126" y="52"/>
      <point x="105" y="-13" type="curve"/>
      <point x="136" y="-2"/>
      <point x="152" y="-3"/>
      <point x="168" y="-4" type="curve" smooth="yes"/>
      <point x="187" y="-5"/>
      <point x="213" y="-4"/>
      <point x="227" y="-1" type="curve"/>
      <point x="227" y="4" type="line"/>
    </contour>
    <contour>
      <point x="176" y="309" type="curve" smooth="yes"/>
      <point x="176" y="320"/>
      <point x="176" y="333"/>
      <point x="176" y="344" type="curve" smooth="yes"/>
      <point x="176" y="382"/>
      <point x="178" y="420"/>
      <point x="179" y="458" type="curve" smooth="yes"/>
      <point x="180" y="496"/>
      <point x="182" y="533"/>
      <point x="182" y="572" type="curve" smooth="yes"/>
      <point x="182" y="599"/>
      <point x="181" y="630"/>
      <point x="179" y="658" type="curve"/>
      <point x="157" y="660"/>
      <point x="137" y="661"/>
      <point x="119" y="661" type="curve" smooth="yes"/>
      <point x="107" y="661"/>
      <point x="88" y="660"/>
      <point x="76" y="660" type="curve" smooth="yes"/>
      <point x="70" y="660" type="line"/>
      <point x="64" y="655"/>
      <point x="7" y="567"/>
      <point x="5" y="546" type="curve"/>
      <point x="5" y="538"/>
      <point x="67" y="524"/>
      <point x="73" y="524" type="curve" smooth="yes"/>
      <point x="80" y="524"/>
      <point x="85" y="528"/>
      <point x="88" y="532" type="curve"/>
      <point x="88" y="501"/>
      <point x="86" y="480"/>
      <point x="86" y="449" type="curve"/>
      <point x="83" y="417"/>
      <point x="81" y="384"/>
      <point x="81" y="352" type="curve" smooth="yes"/>
      <point x="81" y="303" type="line"/>
      <point x="98" y="299"/>
      <point x="122" y="297"/>
      <point x="138" y="297" type="curve" smooth="yes"/>
      <point x="154" y="297"/>
      <point x="176" y="299"/>
    </contour>
    <contour>
      <point x="548" y="185" type="line"/>
      <point x="548" y="225"/>
      <point x="550" y="318"/>
      <point x="551" y="349" type="curve" smooth="yes"/>
      <point x="551" y="352"/>
      <point x="551" y="357"/>
      <point x="551" y="359" type="curve"/>
      <point x="543" y="361"/>
      <point x="538" y="361"/>
      <point x="529" y="361" type="curve" smooth="yes"/>
      <point x="503" y="361"/>
      <point x="484" y="360"/>
      <point x="459" y="360" type="curve"/>
      <point x="394" y="264"/>
      <point x="379" y="231"/>
      <point x="346" y="174" type="curve"/>
      <point x="346" y="151"/>
      <point x="345" y="124"/>
      <point x="351" y="103" type="curve"/>
      <point x="355" y="97"/>
      <point x="386" y="97"/>
      <point x="415" y="97" type="curve" smooth="yes"/>
      <point x="438" y="97"/>
      <point x="459" y="99"/>
      <point x="459" y="99" type="curve"/>
      <point x="458" y="76"/>
      <point x="452" y="6"/>
      <point x="457" y="0" type="curve"/>
      <point x="491" y="0" type="line" smooth="yes"/>
      <point x="521" y="0"/>
      <point x="535" y="0"/>
      <point x="541" y="6" type="curve"/>
      <point x="543" y="10"/>
      <point x="546" y="61"/>
      <point x="548" y="85" type="curve" smooth="yes"/>
      <point x="549" y="91"/>
      <point x="546" y="92"/>
      <point x="546" y="92" type="curve"/>
      <point x="575" y="92"/>
      <point x="556" y="91"/>
      <point x="580" y="91" type="curve"/>
      <point x="582" y="172" type="line"/>
      <point x="566" y="172"/>
      <point x="556" y="174"/>
      <point x="548" y="173" type="curve"/>
    </contour>
    <contour>
      <point x="471" y="171" type="line"/>
      <point x="451" y="171"/>
      <point x="424" y="172"/>
      <point x="424" y="172" type="curve"/>
      <point x="431" y="171"/>
      <point x="463" y="247"/>
      <point x="474" y="268" type="curve"/>
    </contour>
  </outline>
</glyph>
<glyph name="onehalf" format="1">
  <advance width="602"/>
  <unicode hex="00BD"/>
  <outline>
    <contour>
      <point x="229" y="3" type="line"/>
      <point x="291" y="165"/>
      <point x="353" y="348"/>
      <point x="411" y="522" type="curve" smooth="yes"/>
      <point x="472" y="704" type="line"/>
      <point x="460" y="715"/>
      <point x="428" y="715"/>
      <point x="406" y="714" type="curve" smooth="yes"/>
      <point x="400" y="714" type="line" smooth="yes"/>
      <point x="387" y="713"/>
      <point x="375" y="712"/>
      <point x="353" y="720" type="curve"/>
      <point x="310" y="560"/>
      <point x="259" y="417"/>
      <point x="206" y="273" type="curve" smooth="yes"/>
      <point x="197" y="247"/>
      <point x="187" y="221"/>
      <point x="177" y="194" type="curve" smooth="yes"/>
      <point x="153" y="129"/>
      <point x="126" y="52"/>
      <point x="105" y="-13" type="curve"/>
      <point x="136" y="-2"/>
      <point x="152" y="-3"/>
      <point x="168" y="-4" type="curve" smooth="yes"/>
      <point x="187" y="-5"/>
      <point x="213" y="-4"/>
      <point x="227" y="-1" type="curve"/>
      <point x="227" y="4" type="line"/>
    </contour>
    <contour>
      <point x="176" y="309" type="curve" smooth="yes"/>
      <point x="176" y="320"/>
      <point x="176" y="333"/>
      <point x="176" y="344" type="curve" smooth="yes"/>
      <point x="176" y="382"/>
      <point x="178" y="420"/>
      <point x="179" y="458" type="curve" smooth="yes"/>
      <point x="180" y="496"/>
      <point x="182" y="533"/>
      <point x="182" y="572" type="curve" smooth="yes"/>
      <point x="182" y="599"/>
      <point x="181" y="630"/>
      <point x="179" y="658" type="curve"/>
      <point x="157" y="660"/>
      <point x="137" y="661"/>
      <point x="119" y="661" type="curve" smooth="yes"/>
      <point x="107" y="661"/>
      <point x="88" y="660"/>
      <point x="76" y="660" type="curve" smooth="yes"/>
      <point x="70" y="660" type="line"/>
      <point x="64" y="655"/>
      <point x="7" y="567"/>
      <point x="5" y="546" type="curve"/>
      <point x="5" y="538"/>
      <point x="67" y="524"/>
      <point x="73" y="524" type="curve" smooth="yes"/>
      <point x="80" y="524"/>
      <point x="85" y="528"/>
      <point x="88" y="532" type="curve"/>
      <point x="88" y="501"/>
      <point x="86" y="480"/>
      <point x="86" y="449" type="curve"/>
      <point x="83" y="417"/>
      <point x="81" y="384"/>
      <point x="81" y="352" type="curve" smooth="yes"/>
      <point x="81" y="303" type="line"/>
      <point x="98" y="299"/>
      <point x="122" y="297"/>
      <point x="138" y="297" type="curve" smooth="yes"/>
      <point x="154" y="297"/>
      <point x="176" y="299"/>
    </contour>
    <contour>
      <point x="576" y="-5" type="line"/>
      <point x="583" y="-5"/>
      <point x="586" y="-5"/>
      <point x="586" y="-2" type="curve" smooth="yes"/>
      <point x="585" y="3"/>
      <point x="585" y="7"/>
      <point x="585" y="11" type="curve" smooth="yes"/>
      <point x="585" y="15" type="line"/>
      <point x="585" y="27" type="line"/>
      <point x="585" y="35" type="line" smooth="yes"/>
      <point x="585" y="38"/>
      <point x="585" y="41"/>
      <point x="585" y="44" type="curve" smooth="yes"/>
      <point x="585" y="54"/>
      <point x="584" y="63"/>
      <point x="580" y="73" type="curve"/>
      <point x="562" y="73"/>
      <point x="539" y="73"/>
      <point x="523" y="72" type="curve" smooth="yes"/>
      <point x="509" y="72"/>
      <point x="494" y="72"/>
      <point x="479" y="72" type="curve" smooth="yes"/>
      <point x="468" y="72"/>
      <point x="456" y="72"/>
      <point x="444" y="72" type="curve"/>
      <point x="465" y="112"/>
      <point x="471" y="116"/>
      <point x="511" y="137" type="curve" smooth="yes"/>
      <point x="548" y="155"/>
      <point x="589" y="177"/>
      <point x="592" y="222" type="curve" smooth="yes"/>
      <point x="593" y="231"/>
      <point x="592" y="249"/>
      <point x="592" y="260" type="curve" smooth="yes"/>
      <point x="592" y="261"/>
      <point x="591" y="263"/>
      <point x="591" y="265" type="curve" smooth="yes"/>
      <point x="591" y="269" type="line" smooth="yes"/>
      <point x="588" y="306"/>
      <point x="570" y="341"/>
      <point x="534" y="359" type="curve" smooth="yes"/>
      <point x="520" y="365"/>
      <point x="499" y="368"/>
      <point x="475" y="368" type="curve" smooth="yes"/>
      <point x="437" y="368"/>
      <point x="396" y="358"/>
      <point x="377" y="336" type="curve" smooth="yes"/>
      <point x="357" y="313"/>
      <point x="347" y="282"/>
      <point x="347" y="248" type="curve" smooth="yes"/>
      <point x="347" y="238"/>
      <point x="348" y="226"/>
      <point x="350" y="213" type="curve"/>
      <point x="365" y="209"/>
      <point x="373" y="209"/>
      <point x="382" y="209" type="curve" smooth="yes"/>
      <point x="400" y="209"/>
      <point x="420" y="210"/>
      <point x="443" y="214" type="curve"/>
      <point x="445" y="239"/>
      <point x="448" y="277"/>
      <point x="474" y="277" type="curve"/>
      <point x="473" y="277" type="line"/>
      <point x="486" y="276"/>
      <point x="494" y="259"/>
      <point x="494" y="242" type="curve" smooth="yes"/>
      <point x="494" y="228"/>
      <point x="489" y="214"/>
      <point x="478" y="207" type="curve"/>
      <point x="463" y="195"/>
      <point x="448" y="186"/>
      <point x="434" y="178" type="curve" smooth="yes"/>
      <point x="413" y="165"/>
      <point x="384" y="146"/>
      <point x="365" y="125" type="curve"/>
      <point x="348" y="97"/>
      <point x="348" y="67"/>
      <point x="348" y="36" type="curve" smooth="yes"/>
      <point x="348" y="23"/>
      <point x="347" y="6"/>
      <point x="345" y="-7" type="curve"/>
      <point x="351" y="-7"/>
      <point x="351" y="-10"/>
      <point x="378" y="-8" type="curve"/>
    </contour>
  </outline>
</glyph>
<glyph name="threequarters" format="1">
  <advance width="626"/>
  <unicode hex="00BE"/>
  <outline>
    <contour>
      <point x="262" y="3" type="line"/>
      <point x="505" y="704" type="line"/>
      <point x="493" y="715"/>
      <point x="461" y="715"/>
      <point x="439" y="714" type="curve" smooth="yes"/>
      <point x="433" y="714" type="line" smooth="yes"/>
      <point x="420" y="713"/>
      <point x="408" y="712"/>
      <point x="386" y="720" type="curve"/>
      <point x="343" y="560"/>
      <point x="292" y="417"/>
      <point x="239" y="273" type="curve" smooth="yes"/>
      <point x="230" y="247"/>
      <point x="220" y="221"/>
      <point x="210" y="194" type="curve" smooth="yes"/>
      <point x="186" y="129"/>
      <point x="159" y="52"/>
      <point x="138" y="-13" type="curve"/>
      <point x="169" y="-2"/>
      <point x="185" y="-3"/>
      <point x="201" y="-4" type="curve" smooth="yes"/>
      <point x="220" y="-5"/>
      <point x="246" y="-4"/>
      <point x="260" y="-1" type="curve"/>
      <point x="260" y="4" type="line"/>
    </contour>
    <contour>
      <point x="585" y="185" type="line" smooth="yes"/>
      <point x="585" y="225"/>
      <point x="587" y="318"/>
      <point x="588" y="349" type="curve" smooth="yes"/>
      <point x="588" y="352"/>
      <point x="588" y="357"/>
      <point x="588" y="359" type="curve"/>
      <point x="580" y="361"/>
      <point x="575" y="361"/>
      <point x="566" y="361" type="curve" smooth="yes"/>
      <point x="540" y="361"/>
      <point x="521" y="360"/>
      <point x="496" y="360" type="curve"/>
      <point x="431" y="264"/>
      <point x="416" y="231"/>
      <point x="383" y="174" type="curve"/>
      <point x="383" y="151"/>
      <point x="382" y="124"/>
      <point x="388" y="103" type="curve"/>
      <point x="392" y="97"/>
      <point x="423" y="97"/>
      <point x="452" y="97" type="curve" smooth="yes"/>
      <point x="475" y="97"/>
      <point x="496" y="99"/>
      <point x="496" y="99" type="curve"/>
      <point x="495" y="76"/>
      <point x="489" y="6"/>
      <point x="494" y="0" type="curve"/>
      <point x="528" y="0" type="line" smooth="yes"/>
      <point x="558" y="0"/>
      <point x="572" y="0"/>
      <point x="578" y="6" type="curve"/>
      <point x="580" y="10"/>
      <point x="583" y="61"/>
      <point x="585" y="85" type="curve" smooth="yes"/>
      <point x="586" y="91"/>
      <point x="583" y="92"/>
      <point x="583" y="92" type="curve"/>
      <point x="612" y="92"/>
      <point x="593" y="91"/>
      <point x="617" y="91" type="curve"/>
      <point x="619" y="172" type="line"/>
      <point x="603" y="172"/>
      <point x="593" y="174"/>
      <point x="585" y="173" type="curve"/>
    </contour>
    <contour>
      <point x="508" y="171" type="line"/>
      <point x="488" y="171"/>
      <point x="461" y="172"/>
      <point x="461" y="172" type="curve"/>
      <point x="468" y="171"/>
      <point x="500" y="247"/>
      <point x="511" y="268" type="curve"/>
    </contour>
    <contour>
      <point x="36" y="321" type="curve"/>
      <point x="37" y="319"/>
      <point x="45" y="312"/>
      <point x="63" y="307" type="curve"/>
      <point x="62" y="307" type="line"/>
      <point x="64" y="306"/>
      <point x="65" y="306"/>
      <point x="66" y="305" type="curve"/>
      <point x="68" y="305"/>
      <point x="70" y="305"/>
      <point x="71" y="304" type="curve" smooth="yes"/>
      <point x="77" y="302"/>
      <point x="84" y="301"/>
      <point x="92" y="300" type="curve" smooth="yes"/>
      <point x="102" y="298"/>
      <point x="115" y="297"/>
      <point x="129" y="297" type="curve" smooth="yes"/>
      <point x="146" y="297"/>
      <point x="164" y="299"/>
      <point x="179" y="303" type="curve"/>
      <point x="205" y="312"/>
      <point x="224" y="330"/>
      <point x="234" y="352" type="curve" smooth="yes"/>
      <point x="241" y="368"/>
      <point x="242" y="383"/>
      <point x="243" y="398" type="curve" smooth="yes"/>
      <point x="243" y="402"/>
      <point x="243" y="407"/>
      <point x="243" y="411" type="curve" smooth="yes"/>
      <point x="244" y="444"/>
      <point x="244" y="479"/>
      <point x="244" y="513" type="curve" smooth="yes"/>
      <point x="244" y="531"/>
      <point x="244" y="560"/>
      <point x="244" y="580" type="curve" smooth="yes"/>
      <point x="244" y="590"/>
      <point x="241" y="609"/>
      <point x="236" y="618" type="curve" smooth="yes"/>
      <point x="218" y="645"/>
      <point x="174" y="663"/>
      <point x="131" y="663" type="curve" smooth="yes"/>
      <point x="80" y="663"/>
      <point x="28" y="642"/>
      <point x="14" y="596" type="curve"/>
      <point x="14" y="597" type="line"/>
      <point x="11" y="587"/>
      <point x="12" y="578"/>
      <point x="12" y="567" type="curve" smooth="yes"/>
      <point x="12" y="556"/>
      <point x="12" y="551"/>
      <point x="12" y="546" type="curve"/>
      <point x="45" y="545" type="line" smooth="yes"/>
      <point x="62" y="545"/>
      <point x="82" y="545"/>
      <point x="94" y="547" type="curve"/>
      <point x="100" y="563"/>
      <point x="119" y="576"/>
      <point x="134" y="576" type="curve" smooth="yes"/>
      <point x="144" y="576"/>
      <point x="151" y="569"/>
      <point x="152" y="552" type="curve" smooth="yes"/>
      <point x="154" y="524"/>
      <point x="134" y="523"/>
      <point x="115" y="523" type="curve" smooth="yes"/>
      <point x="103" y="523"/>
      <point x="92" y="523"/>
      <point x="81" y="518" type="curve"/>
      <point x="83" y="502"/>
      <point x="80" y="486"/>
      <point x="80" y="471" type="curve" smooth="yes"/>
      <point x="80" y="462"/>
      <point x="82" y="452"/>
      <point x="86" y="443" type="curve"/>
      <point x="97" y="445"/>
      <point x="107" y="447"/>
      <point x="114" y="447" type="curve" smooth="yes"/>
      <point x="122" y="447"/>
      <point x="135" y="443"/>
      <point x="144" y="438" type="curve"/>
      <point x="148" y="433"/>
      <point x="153" y="423"/>
      <point x="153" y="414" type="curve" smooth="yes"/>
      <point x="153" y="408"/>
      <point x="151" y="401"/>
      <point x="150" y="397" type="curve"/>
      <point x="150" y="398" type="line"/>
      <point x="144" y="389"/>
      <point x="137" y="386"/>
      <point x="131" y="386" type="curve" smooth="yes"/>
      <point x="116" y="386"/>
      <point x="100" y="401"/>
      <point x="94" y="417" type="curve"/>
      <point x="88" y="418"/>
      <point x="84" y="418"/>
      <point x="76" y="418" type="curve" smooth="yes"/>
      <point x="67" y="418"/>
      <point x="58" y="417"/>
      <point x="52" y="416" type="curve"/>
      <point x="39" y="416"/>
      <point x="26" y="414"/>
      <point x="13" y="415" type="curve"/>
      <point x="13" y="407"/>
      <point x="14" y="392"/>
      <point x="14" y="384" type="curve" smooth="yes"/>
      <point x="14" y="382" type="line" smooth="yes"/>
      <point x="15" y="375"/>
      <point x="15" y="365"/>
      <point x="16" y="358" type="curve" smooth="yes"/>
      <point x="18" y="345"/>
      <point x="23" y="332"/>
    </contour>
  </outline>
</glyph>
<glyph name="Agrave" format="1">
  <advance width="434"/>
  <unicode hex="00C0"/>
  <outline>
    <contour>
      <point x="39" y="847" type="line"/>
      <point x="45" y="841"/>
      <point x="60" y="827"/>
      <point x="77" y="813" type="curve"/>
      <point x="76" y="813" type="line"/>
      <point x="78" y="811"/>
      <point x="81" y="809"/>
      <point x="83" y="807" type="curve" smooth="yes"/>
      <point x="107" y="785"/>
      <point x="133" y="761"/>
      <point x="144" y="746" type="curve"/>
      <point x="165" y="743"/>
      <point x="184" y="743"/>
      <point x="204" y="743" type="curve" smooth="yes"/>
      <point x="242" y="743"/>
      <point x="286" y="747"/>
      <point x="306" y="752" type="curve"/>
      <point x="296" y="761"/>
      <point x="274" y="785"/>
      <point x="259" y="800" type="curve"/>
      <point x="239" y="820" type="line"/>
      <point x="239" y="819" type="line"/>
      <point x="205" y="854"/>
      <point x="163" y="898"/>
      <point x="121" y="930" type="curve"/>
    </contour>
    <contour>
      <point x="387" y="352" type="line"/>
      <point x="370" y="418"/>
      <point x="327" y="616"/>
      <point x="304" y="711" type="curve"/>
      <point x="242" y="706"/>
      <point x="198" y="706"/>
      <point x="177" y="706" type="curve" smooth="yes"/>
      <point x="171" y="706" type="line" smooth="yes"/>
      <point x="157" y="706"/>
      <point x="147" y="706"/>
      <point x="133" y="704" type="curve"/>
      <point x="58" y="456"/>
      <point x="33" y="247"/>
      <point x="0" y="65" type="curve" smooth="yes"/>
      <point x="-7" y="28"/>
      <point x="-8" y="0"/>
      <point x="-8" y="0" type="curve"/>
      <point x="93" y="-1"/>
      <point x="117" y="-11"/>
      <point x="158" y="-4" type="curve"/>
      <point x="190" y="44"/>
      <point x="189" y="114"/>
      <point x="205" y="163" type="curve"/>
      <point x="226" y="165"/>
      <point x="222" y="164"/>
      <point x="242" y="163" type="curve"/>
      <point x="257" y="127"/>
      <point x="272" y="45"/>
      <point x="288" y="1" type="curve"/>
      <point x="345" y="-11"/>
      <point x="397" y="-15"/>
      <point x="453" y="-3" type="curve"/>
    </contour>
    <contour>
      <point x="202" y="291" type="line"/>
      <point x="205" y="314"/>
      <point x="208" y="335"/>
      <point x="211" y="358" type="curve" smooth="yes"/>
      <point x="222" y="439"/>
      <point x="219" y="501"/>
      <point x="222" y="501" type="curve"/>
      <point x="223" y="491" type="line"/>
      <point x="222" y="491"/>
      <point x="228" y="434"/>
      <point x="244" y="291" type="curve"/>
    </contour>
  </outline>
</glyph>
<glyph name="Aacute" format="1">
  <advance width="434"/>
  <unicode hex="00C1"/>
  <outline>
    <contour>
      <point x="300" y="930" type="line"/>
      <point x="262" y="899"/>
      <point x="220" y="857"/>
      <point x="183" y="819" type="curve" smooth="yes"/>
      <point x="165" y="800"/>
      <point x="137" y="771"/>
      <point x="116" y="753" type="curve"/>
      <point x="136" y="747"/>
      <point x="182" y="743"/>
      <point x="218" y="743" type="curve" smooth="yes"/>
      <point x="238" y="743"/>
      <point x="259" y="743"/>
      <point x="280" y="746" type="curve"/>
      <point x="290" y="766"/>
      <point x="322" y="794"/>
      <point x="347" y="815" type="curve" smooth="yes"/>
      <point x="363" y="829"/>
      <point x="378" y="842"/>
      <point x="381" y="845" type="curve"/>
    </contour>
    <contour>
      <point x="387" y="352" type="line"/>
      <point x="370" y="418"/>
      <point x="327" y="616"/>
      <point x="304" y="711" type="curve"/>
      <point x="242" y="706"/>
      <point x="198" y="706"/>
      <point x="177" y="706" type="curve" smooth="yes"/>
      <point x="171" y="706" type="line" smooth="yes"/>
      <point x="157" y="706"/>
      <point x="147" y="706"/>
      <point x="133" y="704" type="curve"/>
      <point x="58" y="456"/>
      <point x="33" y="247"/>
      <point x="0" y="65" type="curve" smooth="yes"/>
      <point x="-7" y="28"/>
      <point x="-8" y="0"/>
      <point x="-8" y="0" type="curve"/>
      <point x="93" y="-1"/>
      <point x="117" y="-11"/>
      <point x="158" y="-4" type="curve"/>
      <point x="190" y="44"/>
      <point x="189" y="114"/>
      <point x="205" y="163" type="curve"/>
      <point x="226" y="165"/>
      <point x="222" y="164"/>
      <point x="242" y="163" type="curve"/>
      <point x="257" y="127"/>
      <point x="272" y="45"/>
      <point x="288" y="1" type="curve"/>
      <point x="345" y="-11"/>
      <point x="397" y="-15"/>
      <point x="453" y="-3" type="curve"/>
    </contour>
    <contour>
      <point x="202" y="291" type="line"/>
      <point x="205" y="314"/>
      <point x="208" y="335"/>
      <point x="211" y="358" type="curve" smooth="yes"/>
      <point x="222" y="439"/>
      <point x="219" y="501"/>
      <point x="222" y="501" type="curve"/>
      <point x="223" y="491" type="line"/>
      <point x="222" y="491"/>
      <point x="228" y="434"/>
      <point x="244" y="291" type="curve"/>
    </contour>
  </outline>
</glyph>
<glyph name="AE" format="1">
  <advance width="716"/>
  <unicode hex="00C6"/>
  <outline>
    <contour>
      <point x="713" y="141" type="curve"/>
      <point x="655" y="146"/>
      <point x="605" y="146"/>
      <point x="553" y="146" type="curve" smooth="yes"/>
      <point x="516" y="146"/>
      <point x="491" y="146"/>
      <point x="453" y="148" type="curve"/>
      <point x="448" y="155"/>
      <point x="445" y="179"/>
      <point x="445" y="205" type="curve" smooth="yes"/>
      <point x="445" y="221"/>
      <point x="446" y="239"/>
      <point x="447" y="254" type="curve" smooth="yes"/>
      <point x="447" y="259"/>
      <point x="448" y="265"/>
      <point x="448" y="269" type="curve"/>
      <point x="482" y="274"/>
      <point x="526" y="267"/>
      <point x="569" y="278" type="curve"/>
      <point x="569" y="325"/>
      <point x="576" y="389"/>
      <point x="566" y="421" type="curve"/>
      <point x="518" y="433"/>
      <point x="480" y="423"/>
      <point x="444" y="429" type="curve"/>
      <point x="444" y="537" type="line"/>
      <point x="541" y="547"/>
      <point x="676" y="536"/>
      <point x="710" y="553" type="curve"/>
      <point x="710" y="571"/>
      <point x="710" y="588"/>
      <point x="710" y="702" type="curve"/>
      <point x="694" y="704"/>
      <point x="636" y="704"/>
      <point x="558" y="704" type="curve" smooth="yes"/>
      <point x="432" y="704"/>
      <point x="251" y="703"/>
      <point x="139" y="698" type="curve"/>
      <point x="88" y="471"/>
      <point x="12" y="194"/>
      <point x="-14" y="-6" type="curve"/>
      <point x="-12" y="-6"/>
      <point x="-1" y="-5"/>
      <point x="9" y="-5" type="curve"/>
      <point x="149" y="-3"/>
      <point x="98" y="-4"/>
      <point x="166" y="-4" type="curve"/>
      <point x="174" y="36"/>
      <point x="181" y="76"/>
      <point x="195" y="113" type="curve"/>
      <point x="237" y="112" type="line"/>
      <point x="260" y="23"/>
      <point x="264" y="10"/>
      <point x="266" y="1" type="curve"/>
      <point x="361" y="-6"/>
      <point x="462" y="-4"/>
      <point x="558" y="-2" type="curve" smooth="yes"/>
      <point x="602" y="-1"/>
      <point x="660" y="-1"/>
      <point x="704" y="-1" type="curve"/>
      <point x="715" y="47"/>
      <point x="715" y="87"/>
    </contour>
    <contour>
      <point x="203" y="291" type="line"/>
      <point x="219" y="437"/>
      <point x="223" y="357"/>
      <point x="238" y="288" type="curve"/>
    </contour>
  </outline>
</glyph>
<glyph name="Ccedilla" format="1">
  <advance width="476"/>
  <unicode hex="00C7"/>
  <outline>
    <contour>
      <point x="18" y="339" type="curve"/>
      <point x="18" y="213"/>
      <point x="-1" y="-17"/>
      <point x="161" y="-13" type="curve"/>
      <point x="154" y="-50"/>
      <point x="136" y="-89"/>
      <point x="136" y="-125" type="curve" smooth="yes"/>
      <point x="136" y="-132"/>
      <point x="141" y="-133"/>
      <point x="149" y="-133" type="curve"/>
      <point x="163" y="-135"/>
      <point x="181" y="-134"/>
      <point x="196" y="-133" type="curve" smooth="yes"/>
      <point x="210" y="-132"/>
      <point x="227" y="-131"/>
      <point x="255" y="-133" type="curve"/>
      <point x="264" y="-101"/>
      <point x="276" y="-53"/>
      <point x="283" y="-23" type="curve" smooth="yes"/>
      <point x="284" y="-19"/>
      <point x="284" y="-17"/>
      <point x="285" y="-14" type="curve"/>
      <point x="402" y="-2"/>
      <point x="472" y="98"/>
      <point x="472" y="200" type="curve" smooth="yes"/>
      <point x="472" y="224"/>
      <point x="468" y="249"/>
      <point x="461" y="272" type="curve"/>
      <point x="434" y="280"/>
      <point x="410" y="281"/>
      <point x="387" y="281" type="curve" smooth="yes"/>
      <point x="339" y="280"/>
      <point x="331" y="279"/>
      <point x="301" y="279" type="curve"/>
      <point x="300" y="269"/>
      <point x="299" y="258"/>
      <point x="299" y="242" type="curve" smooth="yes"/>
      <point x="298" y="221"/>
      <point x="297" y="198"/>
      <point x="290" y="182" type="curve"/>
      <point x="291" y="182" type="line"/>
      <point x="280" y="161"/>
      <point x="261" y="151"/>
      <point x="240" y="151" type="curve"/>
      <point x="219" y="159"/>
      <point x="204" y="191"/>
      <point x="197" y="219" type="curve"/>
      <point x="197" y="218" type="line"/>
      <point x="193" y="260"/>
      <point x="191" y="306"/>
      <point x="191" y="349" type="curve" smooth="yes"/>
      <point x="191" y="389"/>
      <point x="193" y="440"/>
      <point x="195" y="480" type="curve"/>
      <point x="198" y="510"/>
      <point x="217" y="537"/>
      <point x="245" y="535" type="curve"/>
      <point x="279" y="527"/>
      <point x="284" y="490"/>
      <point x="287" y="456" type="curve" smooth="yes"/>
      <point x="288" y="439"/>
      <point x="290" y="422"/>
      <point x="297" y="405" type="curve"/>
      <point x="330" y="400"/>
      <point x="360" y="396"/>
      <point x="392" y="396" type="curve" smooth="yes"/>
      <point x="417" y="396"/>
      <point x="437" y="398"/>
      <point x="457" y="398" type="curve"/>
      <point x="469" y="423"/>
      <point x="472" y="450"/>
      <point x="472" y="472" type="curve" smooth="yes"/>
      <point x="472" y="558"/>
      <point x="420" y="649"/>
      <point x="336" y="684" type="curve"/>
      <point x="303" y="696"/>
      <point x="266" y="698"/>
      <point x="226" y="698" type="curve"/>
      <point x="197" y="698" type="line"/>
      <point x="164" y="699"/>
      <point x="124" y="698"/>
      <point x="91" y="678" type="curve"/>
      <point x="-1" y="592"/>
      <point x="18" y="448"/>
    </contour>
  </outline>
</glyph>
<glyph name="Eacute" format="1">
  <advance width="481"/>
  <unicode hex="00C9"/>
  <outline>
    <contour>
      <point x="328" y="930" type="line"/>
      <point x="290" y="899"/>
      <point x="248" y="857"/>
      <point x="211" y="819" type="curve" smooth="yes"/>
      <point x="193" y="800"/>
      <point x="165" y="771"/>
      <point x="144" y="753" type="curve"/>
      <point x="164" y="747"/>
      <point x="210" y="743"/>
      <point x="246" y="743" type="curve" smooth="yes"/>
      <point x="266" y="743"/>
      <point x="287" y="743"/>
      <point x="308" y="746" type="curve"/>
      <point x="318" y="766"/>
      <point x="350" y="794"/>
      <point x="375" y="815" type="curve" smooth="yes"/>
      <point x="391" y="829"/>
      <point x="406" y="842"/>
      <point x="409" y="845" type="curve"/>
    </contour>
    <contour>
      <point x="478" y="142" type="curve"/>
      <point x="462" y="141"/>
      <point x="432" y="140"/>
      <point x="417" y="140" type="curve" smooth="yes"/>
      <point x="349" y="140"/>
      <point x="283" y="146"/>
      <point x="215" y="146" type="curve"/>
      <point x="212" y="166"/>
      <point x="211" y="190"/>
      <point x="211" y="214" type="curve"/>
      <point x="215" y="266" type="line"/>
      <point x="221" y="270"/>
      <point x="231" y="267"/>
      <point x="250" y="267" type="curve" smooth="yes"/>
      <point x="274" y="267"/>
      <point x="304" y="267"/>
      <point x="336" y="276" type="curve"/>
      <point x="339" y="372"/>
      <point x="338" y="392"/>
      <point x="333" y="421" type="curve"/>
      <point x="331" y="421"/>
      <point x="323" y="422"/>
      <point x="320" y="422" type="curve" smooth="yes"/>
      <point x="306" y="423"/>
      <point x="289" y="424"/>
      <point x="278" y="424" type="curve"/>
      <point x="212" y="416" type="line"/>
      <point x="207" y="431"/>
      <point x="206" y="445"/>
      <point x="206" y="458" type="curve" smooth="yes"/>
      <point x="206" y="479"/>
      <point x="209" y="517"/>
      <point x="211" y="536" type="curve"/>
      <point x="341" y="537" type="line" smooth="yes"/>
      <point x="381" y="537"/>
      <point x="424" y="539"/>
      <point x="475" y="550" type="curve"/>
      <point x="475" y="600"/>
      <point x="484" y="650"/>
      <point x="475" y="698" type="curve"/>
      <point x="354" y="709"/>
      <point x="172" y="698"/>
      <point x="31" y="694" type="curve"/>
      <point x="26" y="610"/>
      <point x="24" y="522"/>
      <point x="24" y="439" type="curve" smooth="yes"/>
      <point x="24" y="373"/>
      <point x="31" y="52"/>
      <point x="30" y="1" type="curve"/>
      <point x="175" y="-10"/>
      <point x="323" y="-2"/>
      <point x="469" y="-2" type="curve"/>
      <point x="477" y="27"/>
      <point x="480" y="59"/>
      <point x="480" y="89" type="curve" smooth="yes"/>
      <point x="480" y="104"/>
      <point x="479" y="119"/>
    </contour>
  </outline>
</glyph>
<glyph name="Ecircumflex" format="1">
  <advance width="481"/>
  <unicode hex="00CA"/>
  <outline>
    <contour>
      <point x="221" y="932" type="line"/>
      <point x="159" y="871"/>
      <point x="95" y="822"/>
      <point x="42" y="751" type="curve"/>
      <point x="57" y="750"/>
      <point x="82" y="748"/>
      <point x="95" y="747" type="curve"/>
      <point x="120" y="742"/>
      <point x="150" y="743"/>
      <point x="174" y="747" type="curve"/>
      <point x="191" y="755"/>
      <point x="206" y="772"/>
      <point x="219" y="785" type="curve"/>
      <point x="232" y="769"/>
      <point x="244" y="748"/>
      <point x="266" y="746" type="curve"/>
      <point x="278" y="744"/>
      <point x="295" y="744"/>
      <point x="305" y="744" type="curve" smooth="yes"/>
      <point x="332" y="744"/>
      <point x="370" y="742"/>
      <point x="387" y="759" type="curve"/>
    </contour>
    <contour>
      <point x="478" y="142" type="curve"/>
      <point x="462" y="141"/>
      <point x="432" y="140"/>
      <point x="417" y="140" type="curve" smooth="yes"/>
      <point x="349" y="140"/>
      <point x="283" y="146"/>
      <point x="215" y="146" type="curve"/>
      <point x="212" y="166"/>
      <point x="211" y="190"/>
      <point x="211" y="214" type="curve"/>
      <point x="215" y="266" type="line"/>
      <point x="221" y="270"/>
      <point x="231" y="267"/>
      <point x="250" y="267" type="curve" smooth="yes"/>
      <point x="274" y="267"/>
      <point x="304" y="267"/>
      <point x="336" y="276" type="curve"/>
      <point x="339" y="372"/>
      <point x="338" y="392"/>
      <point x="333" y="421" type="curve"/>
      <point x="331" y="421"/>
      <point x="323" y="422"/>
      <point x="320" y="422" type="curve" smooth="yes"/>
      <point x="306" y="423"/>
      <point x="289" y="424"/>
      <point x="278" y="424" type="curve"/>
      <point x="212" y="416" type="line"/>
      <point x="207" y="431"/>
      <point x="206" y="445"/>
      <point x="206" y="458" type="curve" smooth="yes"/>
      <point x="206" y="479"/>
      <point x="209" y="517"/>
      <point x="211" y="536" type="curve"/>
      <point x="341" y="537" type="line" smooth="yes"/>
      <point x="381" y="537"/>
      <point x="424" y="539"/>
      <point x="475" y="550" type="curve"/>
      <point x="475" y="600"/>
      <point x="484" y="650"/>
      <point x="475" y="698" type="curve"/>
      <point x="354" y="709"/>
      <point x="172" y="698"/>
      <point x="31" y="694" type="curve"/>
      <point x="26" y="610"/>
      <point x="24" y="522"/>
      <point x="24" y="439" type="curve" smooth="yes"/>
      <point x="24" y="373"/>
      <point x="31" y="52"/>
      <point x="30" y="1" type="curve"/>
      <point x="175" y="-10"/>
      <point x="323" y="-2"/>
      <point x="469" y="-2" type="curve"/>
      <point x="477" y="27"/>
      <point x="480" y="59"/>
      <point x="480" y="89" type="curve" smooth="yes"/>
      <point x="480" y="104"/>
      <point x="479" y="119"/>
    </contour>
  </outline>
</glyph>
